<?xml version="1.0" standalone="no"?>
<!DOCTYPE svg PUBLIC "-//W3C//DTD SVG 20010904//EN"
 "http://www.w3.org/TR/2001/REC-SVG-20010904/DTD/svg10.dtd">
<svg version="1.0" xmlns="http://www.w3.org/2000/svg"
 width="310.000000pt" height="310.000000pt" viewBox="0 0 310.000000 310.000000"
 preserveAspectRatio="xMidYMid meet">
<metadata>
Created by potrace 1.14, written by Peter Selinger 2001-2017
</metadata>
<g transform="translate(0.000000,310.000000) scale(0.100000,-0.100000)"
fill="#000000" stroke="none">
<path d="M1409 3096 c-2 -2 -29 -7 -60 -10 -230 -27 -519 -143 -709 -287 -232
-175 -404 -394 -512 -651 -29 -69 -74 -208 -83 -258 -3 -14 -7 -36 -10 -50 -3
-14 -7 -38 -9 -55 -21 -162 -23 -232 -12 -355 61 -711 584 -1278 1291 -1401
120 -20 346 -33 370 -20 5 3 16 6 25 6 177 16 374 72 544 157 236 117 433 290
591 518 87 125 202 383 219 495 4 20 8 41 11 45 2 4 7 25 10 46 3 22 9 59 12
84 9 62 9 333 0 401 -50 372 -250 733 -536 972 -48 40 -94 77 -102 82 -9 6
-36 23 -60 39 -107 72 -355 180 -462 202 -164 33 -232 41 -369 42 -80 1 -147
0 -149 -2z"/>
</g>
</svg>
