<?xml version="1.0" encoding="UTF-8" standalone="no"?>
<!-- Created with Inkscape (http://www.inkscape.org/) -->

<svg
   version="1.1"
   id="svg1146"
   viewBox="0 0 43.84 129.92"
   sodipodi:docname="Vogel_blau.svg"
   inkscape:version="1.1.2 (0a00cf5339, 2022-02-04, custom)"
   xmlns:inkscape="http://www.inkscape.org/namespaces/inkscape"
   xmlns:sodipodi="http://sodipodi.sourceforge.net/DTD/sodipodi-0.dtd"
   xmlns="http://www.w3.org/2000/svg"
   xmlns:svg="http://www.w3.org/2000/svg">
  <defs
     id="defs1150" />
  <sodipodi:namedview
     id="namedview1148"
     pagecolor="#ffffff"
     bordercolor="#666666"
     borderopacity="1.0"
     inkscape:pageshadow="2"
     inkscape:pageopacity="0.0"
     inkscape:pagecheckerboard="0"
     showgrid="false"
     inkscape:zoom="12.642674"
     inkscape:cx="38.401688"
     inkscape:cy="68.102684"
     inkscape:window-width="3840"
     inkscape:window-height="2054"
     inkscape:window-x="-11"
     inkscape:window-y="-11"
     inkscape:window-maximized="1"
     inkscape:current-layer="g1152" />
  <g
     inkscape:groupmode="layer"
     inkscape:label="Image"
     id="g1152">
    <g
       id="g2061"
       transform="translate(-0.15819475)">
      <path
         style="fill:#d2ece8;stroke-width:0.32"
         d="m 15.253333,129.38667 c -0.358803,-0.35881 -0.217853,-1.8339 0.231838,-2.42628 0.233649,-0.30779 1.192984,-0.97006 2.131855,-1.47172 2.63061,-1.4056 2.620247,-1.35205 1.409491,-7.28401 -1.386186,-6.79146 -1.892235,-13.64889 -1.342731,-18.19521 0.06087,-0.503607 -0.199406,-0.690314 -1.292752,-0.92736 -1.220774,-0.264676 -1.455774,-0.215252 -2.170887,0.45656 -1.267045,1.19033 -2.918571,4.82218 -3.291832,7.23902 -0.9289828,6.01512 -1.3099396,10.67955 -1.1323118,13.86399 0.2264518,4.05976 0.042184,4.34758 -2.9160032,4.55474 -1.0683875,0.0748 -2.671416,0.47335 -3.6141021,0.8985 -1.9600849,0.88399 -2.72729761,0.65831 -2.87999499,-0.84717 C 0.23207127,123.73106 0.8690969,123.22497 3.2,123.01205 c 1.144,-0.1045 2.5339136,-0.32748 3.0886973,-0.49551 l 1.0086973,-0.30551 -0.00989,-2.67299 c -0.00544,-1.47015 0.152064,-3.58763 0.3500118,-4.70552 0.1979478,-1.11788 0.5804586,-3.44166 0.850024,-5.16394 0.56888,-3.63465 1.7996866,-7.78678 2.9016996,-9.788884 0.42392,-0.77017 0.770764,-1.586563 0.770764,-1.814214 0,-0.227648 -0.689802,-1.181511 -1.532893,-2.119693 C 8.2664694,93.318893 7.2075267,91.850544 6.1660419,89.76 4.5928698,86.602211 3.9637414,84.310205 2.9161075,77.92 2.2439849,73.820285 3.520425,63.697949 5.760953,55.36 5.9264813,54.744 6.4336506,52.296 6.8879958,49.92 7.3423411,47.544 7.9132032,45.024 8.1565776,44.32 8.8628074,42.277117 9.023432,40.681811 8.6398995,39.519696 8.3392378,38.608682 8.0267008,38.354016 6.6468662,37.895709 3.235921,36.762774 0.64915594,33.224941 0.64312605,29.684592 0.63839654,26.907751 1.8195458,22.835758 3.6267926,19.398451 4.1344086,18.432987 4.3010214,17.608798 4.2491133,16.32 3.838464,6.1242781 4.2712266,0.80763987 5.5127997,0.79517731 5.7770515,0.79252483 6.2177942,0.6040056 6.4922282,0.37624573 6.9188832,0.02215333 7.1106784,0.13796709 7.8155994,1.1753515 8.2690198,1.8426195 8.64,2.5488135 8.64,2.7446714 c 0,0.612792 2.503336,4.262168 4.079753,5.947486 0.829165,0.8864442 2.177194,1.9510396 2.995619,2.3657666 2.179728,1.104552 6.412568,4.384147 7.723914,5.984473 1.351404,1.64921 1.903788,2.901989 2.469593,5.60091 0.636491,3.036093 0.299661,5.019556 -1.405955,8.279138 -1.427798,2.728646 -1.462162,2.861897 -1.263984,4.901229 0.166553,1.713894 0.628119,2.97199 2.530102,6.896326 2.25185,4.646211 3.694859,8.531184 4.318466,11.626477 0.165494,0.821437 0.665775,2.861523 1.111736,4.533523 0.798972,2.99551 1.097038,4.897974 1.905159,12.16 0.446544,4.012816 0.219875,8.576128 -0.631574,12.714701 -0.498336,2.42223 -1.751896,5.609181 -2.352276,5.980237 -0.550965,0.340515 -1.87803,3.320816 -1.645919,3.69638 0.126524,0.20472 1.522594,0.327396 3.547004,0.31168 3.75152,-0.02912 8.710384,0.677197 10.21425,1.454874 1.39497,0.72137 1.628918,1.58984 0.955514,3.547117 -0.92018,2.674551 -2.85465,6.400241 -4.045575,7.791571 -1.618899,1.89132 -2.62439,1.80868 -6.149971,-0.50547 -4.741098,-3.11199 -5.573524,-3.70311 -7.903815,-5.61264 -2.295531,-1.881042 -2.896078,-2.114287 -3.967451,-1.540908 -1.094428,0.585722 -1.446969,2.430818 -1.406735,7.362458 0.03304,4.05012 0.185797,5.32319 1.20158,10.01406 0.640048,2.95573 1.379013,5.88932 1.642144,6.51908 0.708838,1.69648 0.61094,2.08681 -0.881579,3.51491 -2.736861,2.61874 -5.550125,3.97516 -6.426667,3.09862 z"
         id="path2083" />
      <path
         style="fill:#b7e2dc;stroke-width:0.32"
         d="m 15.253333,129.38667 c -0.415303,-0.41531 -0.204979,-1.63098 0.419535,-2.42492 0.348078,-0.44251 1.248078,-1.09412 2,-1.44803 2.599322,-1.22343 2.589832,-1.18122 1.493474,-6.64154 C 18.637129,116.23648 18.064325,113 17.893444,111.68 c -0.26617,-2.05609 -0.383817,-9.03891 -0.19379,-11.50227 0.04825,-0.625503 -0.14375,-0.841957 -0.958082,-1.080104 -0.560136,-0.163812 -1.352136,-0.213412 -1.76,-0.110224 -0.919873,0.232716 -2.658847,2.839438 -3.473149,5.206248 -0.952934,2.76975 -2.0191081,12.77907 -1.757806,16.5024 0.2010688,2.86506 0.1677436,3.14559 -0.4466688,3.76 -0.5119968,0.512 -1.0693188,0.66395 -2.4352068,0.66395 -1.0532889,0 -2.075056,0.19906 -2.5207379,0.49108 C 2.2198382,127.0055 0.32,126.77935 0.32,125.1316 c 0,-1.27496 0.7007552,-1.86112 2.4838231,-2.07765 C 3.6377203,122.95268 4.968,122.76412 5.76,122.63492 L 7.2,122.4 7.257265,119.84 c 0.031494,-1.408 0.2086205,-3.496 0.3936109,-4.64 0.1849904,-1.144 0.566936,-3.57289 0.8487677,-5.39753 0.5788835,-3.74781 1.5641234,-7.09389 2.8124964,-9.55183 1.085926,-2.138096 1.0665,-2.644045 -0.145549,-3.790771 C 8.5207264,93.956605 5.9646458,89.841933 4.7184976,86.08 2.2352952,78.583587 2.3006645,70.772842 4.9434602,59.2 5.4056646,57.176 6.0064099,54.44 6.2784493,53.12 6.9492102,49.865309 7.8668506,45.740077 8.5137325,43.071331 8.8961773,41.493536 8.9678189,40.534326 8.7645478,39.713165 8.514369,38.702506 8.2674189,38.479978 6.72,37.87081 3.0985693,36.445171 0.64,33.212723 0.64,29.877027 0.64,27.381032 1.4867354,24.175775 2.9533513,21.12 4.1197779,18.689686 4.2550006,18.161435 4.2230237,16.16 4.0546394,5.6208742 4.0877914,4.2470784 4.5512138,2.56 4.8290957,1.5483778 5.2228954,0.78684858 5.4773334,0.7690711 5.7208,0.75206022 6.1723376,0.62852429 6.4807504,0.49454678 7.1558787,0.20126435 8.0414301,1.1732266 8.6397283,2.864195 c 0.9808003,2.7720332 5.0099777,7.298849 7.7148197,8.667669 0.772999,0.391185 2.255161,1.376546 3.293694,2.189691 4.118132,3.224393 5.467076,5.231861 6.272297,9.33429 0.560851,2.857416 0.231118,4.611116 -1.483199,7.888455 -1.398846,2.674241 -1.432598,2.807399 -1.232511,4.862618 0.169523,1.741268 0.61798,2.95768 2.548657,6.913082 1.288615,2.64 2.642883,5.815606 3.009484,7.056899 1.363079,4.615328 3.282729,12.775367 3.561712,15.140109 0.158518,1.343645 0.457827,3.666992 0.665132,5.162992 0.462074,3.334518 0.20272,10.098682 -0.515321,13.44 -0.505465,2.352128 -1.243934,4.076525 -3.321303,7.755558 -0.570047,1.009559 -0.946218,1.981559 -0.835934,2.16 0.113883,0.184269 1.609467,0.326922 3.461629,0.330183 3.708888,0.0065 8.47147,0.649161 10.217464,1.378685 2.097245,0.876284 2.028902,2.097737 -0.397011,7.095574 -2.00986,4.14068 -3.210551,5.6 -4.607546,5.6 -1.204502,0 -7.224034,-3.69428 -10.922517,-6.70331 -3.454683,-2.810677 -3.698279,-2.94077 -4.633615,-2.474556 -1.259627,0.62786 -1.671315,1.938036 -1.844887,5.871246 -0.206697,4.68383 0.970105,12.05754 2.889686,18.10645 l 0.685408,2.15984 -1.102934,1.14352 c -2.345323,2.43164 -5.982298,4.27078 -6.8096,3.44348 z m 22.441361,-24.92895 c 1.34848,-0.94451 3.224084,-5.758891 2.737536,-7.026818 C 40.068954,96.484224 31.211406,95.005267 28.091479,95.370349 26.523578,95.553821 24.96,96.639933 24.96,97.545574 c 0,1.364784 4.814639,5.071956 8.053504,6.201026 0.57824,0.20158 1.414755,0.55617 1.858922,0.78798 1.070483,0.55869 1.949059,0.53477 2.822268,-0.0769 z M 20.100027,96.179882 c 2.144078,-0.57072 2.852418,-1.040474 5.379519,-3.567578 C 28.735371,89.35648 30.461702,85.082006 31.025612,78.88 31.414778,74.599875 31.132479,68.966566 30.437182,67.137795 30.263205,66.680202 30.17761,66.249056 30.246972,66.179696 30.389899,66.036768 29.648101,61.301878 29.178554,59.36 27.792722,53.628691 26.443299,49.911901 23.137214,42.72 21.11811,38.327738 21.076803,38.183382 21.027991,35.349091 c -0.04439,-2.577712 0.03981,-3.045731 0.777252,-4.319999 1.372104,-2.370946 2.2258,-5.262381 2.006942,-6.797437 -0.668397,-4.688101 -3.046459,-7.85569 -7.93249,-10.56611 C 14.033797,12.641573 13.185482,12.59026 11.587252,13.405905 10.344189,14.040292 6.7312922,18.273668 4.6894118,21.48838 3.515247,23.336971 2.176,27.660479 2.176,29.602459 c 0,2.813695 2.7532147,5.844795 6.3777418,7.021458 0.9205577,0.298848 1.9997122,0.807315 2.3981202,1.129926 l 0.724379,0.586567 -0.753195,4.429795 C 10.508789,45.206592 10.061601,47.344 9.9292957,47.52 9.6100883,47.944627 8.5039136,51.835946 8.0190192,54.24 7.8060253,55.296 7.2998541,57.672 6.8941942,59.52 6.4885341,61.368 5.9953885,63.708 5.7983152,64.72 5.6012419,65.732 5.2746,67.345334 5.0724445,68.305187 4.6281162,70.414902 4.8830966,78.74641 5.4352531,80.16 c 0.2062397,0.528 0.4442231,1.525779 0.5288519,2.217286 0.5394579,4.407949 2.282511,8.356192 4.794858,10.86098 3.02691,3.017804 5.788141,3.88735 9.341064,2.941616 z m 1.05548,-17.312855 C 19.238892,76.81816 17.762632,74.422938 17.487554,72.915798 17.411683,72.500109 17.195184,71.584 17.006445,70.88 c -0.193806,-0.722899 -0.280012,-2.770026 -0.198067,-4.703498 0.114252,-2.695744 0.307891,-3.791606 0.910918,-5.155155 0.824468,-1.864269 2.651828,-3.555862 3.625508,-3.356147 0.908881,0.186426 0.678436,2.035626 -0.354977,2.848509 -1.046016,0.822797 -1.400023,1.48383 -1.973267,3.684665 -0.879949,3.378352 -0.37402,7.728605 1.198534,10.305642 0.394683,0.64679 1.502477,2.004832 2.461763,3.017866 1.599985,1.689635 1.714098,1.907856 1.38051,2.64 C 23.857362,80.600848 23.563144,80.96 23.40355,80.96 c -0.159594,0 -1.171213,-0.941837 -2.248043,-2.092973 z M 10.57661,33.460013 C 10.341314,33.176499 10.078934,33.0144 9.993543,33.099789 9.908152,33.185181 9.5770266,32.742602 9.2577085,32.116275 8.5551318,30.738213 8.4741706,27.84 9.1382512,27.84 c 0.2402496,0 0.698953,-0.28137 1.0193408,-0.625266 0.335269,-0.359868 1.087935,-0.659303 1.773255,-0.705457 1.051834,-0.07084 1.162643,-0.156542 0.949942,-0.734734 -0.360167,-0.979051 -0.245721,-3.756032 0.18803,-4.562459 0.303711,-0.564658 0.525497,-0.652827 1.095972,-0.435691 0.443145,0.16867 0.683805,0.498824 0.632652,0.867915 -0.436953,3.152842 0.180456,4.686072 2.066639,5.132144 1.069554,0.252943 1.215918,0.401671 1.215918,1.235553 0,0.869146 -0.102573,0.95642 -1.233233,1.049293 -1.127293,0.0926 -1.219974,0.170663 -1.078876,0.908765 0.256133,1.339875 -0.97244,3.260507 -2.280173,3.564596 -1.838344,0.427479 -2.508647,0.410291 -2.911108,-0.07465 z"
         id="path2081" />
      <path
         style="fill:#a7dbd4;stroke-width:0.32"
         d="m 15.253333,129.38667 c -0.415303,-0.41531 -0.204979,-1.63098 0.419535,-2.42492 0.348078,-0.44251 1.248078,-1.09412 2,-1.44803 2.225972,-1.0477 2.620009,-1.6716 2.208289,-3.49648 -0.32128,-1.42401 -0.643763,-2.92804 -1.701849,-7.93724 -0.248981,-1.17873 -0.408213,-4.41612 -0.412434,-8.3853 L 17.76,99.229408 16.573495,99.028858 c -0.652577,-0.110304 -1.446067,-0.11817 -1.76331,-0.01747 -0.70928,0.225116 -2.623496,3.094002 -3.220425,4.826532 -1.111957,3.22735 -2.1196352,12.37354 -1.8401402,16.70203 0.1940874,3.00579 0.1598164,3.31062 -0.4395926,3.91003 -0.4990854,0.49909 -1.0426422,0.6435 -2.3400589,0.62171 -1.208023,-0.0203 -2.2111961,0.21578 -3.5176829,0.8278 C 1.2847386,126.91486 0.32,126.67836 0.32,125.1316 c 0,-1.27496 0.7007552,-1.86112 2.4838231,-2.07765 C 3.6377203,122.95268 4.968,122.76412 5.76,122.63492 L 7.2,122.4 7.3807037,119.04 c 0.3869472,-7.19488 2.0406374,-15.03034 3.9885403,-18.89836 l 1.124961,-2.23387 -1.386488,-1.513885 C 6.5135856,91.377626 4.8296253,87.978032 3.5419254,81.12 2.3186651,74.605158 2.862841,67.967862 5.5520355,56.602758 6.0158419,54.642618 6.3365949,53.107354 7.0819344,49.28 7.2704429,48.312 7.711751,46.516784 8.0626189,45.290634 8.9099488,42.329533 9.0975277,40.040589 8.5736054,39.05529 8.2963885,38.533949 7.6199533,38.105933 6.5581718,37.780022 3.4887286,36.837862 0.64,33.049229 0.64,29.909221 c 0,-2.80494 0.6261487,-5.064769 2.6472128,-9.55404 L 4.5679469,17.510363 4.2840886,14.915181 C 3.6294403,8.9300406 4.3109558,0.85056534 5.4773334,0.7690711 5.7208,0.75206022 6.1723376,0.62852429 6.4807504,0.49454678 7.1546557,0.20179563 8.0377117,1.168998 8.64424,2.864195 c 0.9807549,2.7411314 4.97086,7.289806 7.51576,8.567883 1.749212,0.878474 3.54645,2.24554 6.206682,4.721103 1.907974,1.775527 2.896917,3.673625 3.54613,6.80616 0.642795,3.10157 0.176395,5.120722 -2.088283,9.040659 -0.745051,1.28961 -0.813772,1.673942 -0.658013,3.68 0.151276,1.94832 0.463056,2.82336 2.39436,6.72 2.281129,4.602451 3.465382,7.937395 4.999869,14.08 2.689428,10.765866 3.348381,19.762234 1.957156,26.72 -0.585338,2.927379 -1.131097,4.267885 -2.976609,7.311219 -0.784193,1.293168 -1.34831,2.553168 -1.253592,2.8 0.132095,0.344234 0.938663,0.450119 3.462257,0.454522 3.745445,0.0065 8.481701,0.658038 10.244437,1.409197 2.097478,0.893798 2.031993,2.06488 -0.395056,7.065062 -2.931293,6.03901 -4.050346,6.65658 -7.709725,4.25473 -1.127287,-0.7399 -2.77632,-1.79175 -3.664517,-2.33745 -0.888197,-0.54571 -3.027596,-2.12844 -4.754219,-3.51719 -3.070251,-2.46945 -3.157921,-2.51457 -3.985096,-2.050919 -0.465179,0.260743 -1.053269,0.900848 -1.306865,1.422459 -0.629075,1.2939 -0.849568,7.93901 -0.359799,10.84345 0.72084,4.27475 1.994481,9.94649 2.678649,11.92847 l 0.684709,1.98354 -0.791238,0.85522 c -2.261369,2.44421 -6.318444,4.58382 -7.137904,3.76436 z M 37.988106,104.24 c 1.40647,-1.5351 2.899398,-5.622672 2.466054,-6.751949 C 40.21072,96.853658 39.094915,96.480822 35.68,95.892803 31.13858,95.110813 29.001766,94.961002 27.635779,95.328826 26.083331,95.746854 24.96,96.745469 24.96,97.707523 c 0,1.384525 3.473628,3.986957 8.32,6.233327 2.564672,1.18876 3.819962,1.26852 4.708106,0.29915 z m -17.6194,-8.026461 c 1.263218,-0.30216 2.492937,-1.114486 4.621356,-3.052771 3.667158,-3.339562 5.447454,-7.622493 6.069139,-14.600768 0.373782,-4.195619 0.323251,-5.155693 -0.690533,-13.12 -0.927977,-7.290195 -3.251034,-14.476378 -7.695843,-23.806448 -1.500017,-3.148675 -1.586581,-3.473606 -1.619768,-6.08 -0.03322,-2.60871 0.03496,-2.898509 1.295995,-5.509278 1.724434,-3.570152 1.92274,-5.034689 1.064376,-7.860664 -1.162386,-3.826905 -3.115555,-6.105191 -7.16858,-8.361834 -3.171835,-1.766014 -4.700536,-1.293904 -7.7718934,2.400198 -3.8312506,4.608071 -5.185657,7.145565 -6.0649729,11.362786 -0.3967887,1.903009 -0.3923527,2.352986 0.036389,3.69122 0.6889191,2.150327 2.9835629,4.21218 5.9636333,5.358622 3.472549,1.3359 3.35204,1.055872 2.511542,5.836105 C 10.52409,44.719818 9.7937984,47.784 9.2966771,49.28 8.7995555,50.776 8.2320618,52.792 8.0355795,53.76 6.94528,59.131533 6.7214077,60.194304 6.2492685,62.24 c -1.3133175,5.690378 -1.7737466,12.0156 -1.1646816,16 1.0345334,6.767744 2.3901952,10.981946 4.3663709,13.57328 1.5081302,1.97759 4.4384972,4.242662 5.8801062,4.54512 1.147704,0.240794 3.736583,0.166349 5.037642,-0.144861 z m 1.585601,-16.53608 C 18.34316,76.348819 16.645159,71.97513 16.825301,66.46623 c 0.129086,-3.947584 1.005948,-6.562707 2.656765,-7.923452 1.271701,-1.048244 2.110523,-1.200605 2.403698,-0.436605 0.326656,0.851251 0.238389,1.047597 -1.083074,2.409273 -1.415877,1.458967 -1.900518,2.808768 -2.226566,6.201335 -0.39928,4.154553 0.772171,7.360061 3.867897,10.583939 1.031789,1.074499 1.871399,2.085405 1.865802,2.246458 -0.0056,0.161052 -0.210871,0.557676 -0.456163,0.881385 -0.421079,0.555693 -0.527155,0.513744 -1.899353,-0.751104 z M 11.288088,32.471584 c -2.862071,-1.203411 -0.866138,-5.718212 2.039554,-4.613471 0.703175,0.267347 0.785713,0.247654 0.484283,-0.115547 -0.79462,-0.957459 -1.365155,-3.263097 -1.167446,-4.71787 0.26957,-1.983535 0.547383,-2.356356 1.56547,-2.100832 0.733584,0.184118 0.808595,0.319826 0.598785,1.083311 -0.66396,2.416102 0.168123,4.316468 2.149973,4.910244 1.316635,0.394474 1.648598,1.067276 0.897293,1.818581 -0.47847,0.47847 -2.005205,0.497924 -2.867318,0.03654 -0.663015,-0.354835 -0.669647,-0.157216 -0.05021,1.496197 0.07186,0.191802 -0.0919,0.533434 -0.363913,0.759182 -0.27201,0.225748 -0.494563,0.594732 -0.494563,0.819964 0,0.71272 -1.684971,1.08914 -2.791912,0.623706 z"
         id="path2079" />
      <path
         style="fill:#a0a0a0;stroke-width:0.32"
         d="m 15.253333,129.38667 c -0.376236,-0.37624 -0.228514,-1.54259 0.288943,-2.28136 0.276252,-0.39441 1.176252,-1.05889 2,-1.47662 2.386462,-1.21021 2.75296,-1.77611 2.338881,-3.61145 -0.32128,-1.42401 -0.643763,-2.92804 -1.701849,-7.93724 -0.248866,-1.17818 -0.408215,-4.41432 -0.412434,-8.37591 L 17.76,99.248186 16.84,99.064093 c -2.006983,-0.4016 -2.330829,-0.25481 -3.575791,1.620807 -1.543603,2.32553 -2.24937,4.40062 -2.678435,7.8751 -0.190176,1.54 -0.508536,4.05139 -0.7074668,5.58087 -0.2168326,1.66712 -0.2744384,4.1598 -0.1438326,6.22383 0.201726,3.18798 0.1700041,3.49082 -0.4283389,4.08917 -0.4953968,0.49539 -1.0405847,0.6392 -2.3361674,0.61623 -1.1944054,-0.0212 -2.1944598,0.20892 -3.4103843,0.7847 -2.2446457,1.06292 -3.0966809,0.81226 -3.03987232,-0.89428 0.0477342,-1.43395 0.3849841,-1.67638 2.67753262,-1.92472 C 4.16676,122.93077 5.464,122.73986 6.08,122.61156 l 1.12,-0.23328 0.1911606,-3.34914 c 0.4220375,-7.39411 2.0340752,-15.02721 3.9966374,-18.92434 l 1.143516,-2.27072 -1.404367,-1.47704 C 6.6206822,91.617587 4.8660054,88.051606 3.4888448,80.834336 2.9264692,77.887101 2.8402227,76.542118 2.9839057,72.96 3.200223,67.567059 3.5757952,65.244614 5.7524528,55.84 6.0699642,54.468138 6.4680339,52.5152 7.0569734,49.44 7.2592106,48.384 7.711751,46.516784 8.0626189,45.290634 8.9099488,42.329533 9.0975277,40.040589 8.5736054,39.05529 8.2956419,38.532544 7.6228128,38.108086 6.5581718,37.78384 5.4155859,37.435856 4.4921248,36.822979 3.3187171,35.633898 -0.26529828,32.002013 -0.23935344,28.152347 3.4239248,20.023315 4.5584717,17.505689 4.5649594,17.46602 4.2874733,14.743315 3.6572256,8.559304 4.313615,0.85037955 5.4773334,0.7690711 5.7208,0.75206022 6.1723376,0.62852429 6.4807504,0.49454678 7.1488294,0.20432659 8.182968,1.2991142 8.4842947,2.6155933 8.9967754,4.8545904 13.571,10.106785 16.16,11.428956 c 1.587347,0.810639 5.609015,3.990579 7.259425,5.74004 1.062163,1.12591 1.944467,3.173682 2.486318,5.770594 0.636693,3.051452 0.171914,5.097024 -2.057511,9.055461 -1.211068,2.150303 -0.940389,5.873474 0.598843,8.237023 1.096961,1.684425 3.854168,8.118572 4.63149,10.807926 3.077054,10.645901 4.42731,19.153491 4.105701,25.868918 -0.306714,6.404432 -1.113719,9.438205 -3.600222,13.534311 -0.807707,1.330563 -1.391062,2.621158 -1.296344,2.86799 0.132095,0.344234 0.938663,0.450119 3.462257,0.454522 3.952584,0.0069 8.599185,0.669849 10.260014,1.463849 2.069367,0.989309 2.008627,2.026276 -0.410633,7.01041 -2.971101,6.12102 -4.075357,6.69881 -7.894295,4.13054 -1.201773,-0.8082 -2.568971,-1.66965 -3.038217,-1.91434 -0.469246,-0.24469 -2.544644,-1.76705 -4.611995,-3.38302 -3.656335,-2.858025 -3.781396,-2.925481 -4.586826,-2.474031 -1.381846,0.774531 -1.744704,2.000821 -1.882165,6.360851 -0.08566,2.71701 0.03171,4.87243 0.365917,6.72 0.945007,5.22414 1.836442,9.13499 2.530937,11.10355 l 0.699781,1.98354 -0.791238,0.85522 c -2.261369,2.44421 -6.318444,4.58382 -7.137904,3.76436 z m 22.703608,-24.88849 c 0.95064,-0.66586 2.415725,-4.13985 2.473667,-5.86555 0.06021,-1.792947 -0.291667,-2.020128 -4.270608,-2.757283 -6.500598,-1.204323 -9.648301,-0.966003 -10.982084,0.831482 l -0.643211,0.866832 0.876228,1.264393 c 1.445052,2.085216 8.579467,6.077086 10.917864,6.108806 0.532841,0.007 1.265504,-0.19468 1.628144,-0.44868 z M 19.91801,96.319763 c 2.773597,-0.549753 6.419441,-3.66512 8.364821,-7.147721 2.965308,-5.308461 3.792286,-13.576816 2.27222,-22.718314 C 30.286747,64.840179 29.912199,62.584 29.722723,61.44 28.900448,56.47537 26.890446,50.633805 23.158364,42.362349 21.189859,37.99953 21.12,37.75527 21.12,35.235248 c 0,-2.416096 0.09693,-2.802246 1.30817,-5.211276 1.595369,-3.173032 1.873034,-5.135378 1.1048,-7.807965 -1.018257,-3.54238 -2.912798,-5.833727 -6.707908,-8.112854 -2.253637,-1.353407 -2.528246,-1.443249 -4.138165,-1.353855 -1.205832,0.06696 -4.5521556,3.426178 -7.0634759,7.090702 -2.0364182,2.971546 -2.532826,4.127425 -3.2373057,7.53803 -0.4102632,1.986211 -0.4099101,2.455073 0.0029,3.845141 0.686414,2.311408 2.633919,4.087434 5.9468396,5.423219 1.4599574,0.588663 2.766357,1.270231 2.903111,1.514596 0.232515,0.415481 0.07815,1.798406 -0.663846,5.947411 -0.168039,0.939616 -0.6594868,2.811616 -1.0921056,4.16 C 8.6834286,50.760525 8.0434929,53.343616 7.3693889,56.8 7.1634356,57.856 6.8590904,59.247312 6.6930664,59.891805 4.4797985,68.483542 4.1907268,75.207107 5.7373588,82.120755 c 1.6548804,7.39753 2.873353,9.737549 6.5457342,12.570771 1.64655,1.270304 4.257811,2.295258 5.316907,2.086957 0.264,-0.05192 1.307105,-0.258349 2.31801,-0.45872 z M 21.848213,79.439136 C 18.546294,76.51009 16.866537,72.322653 16.874397,67.04 c 0.0068,-4.541718 1.175803,-7.662806 3.351632,-8.948102 1.080623,-0.63834 1.533974,-0.423482 1.533962,0.726988 -7e-6,0.591092 -0.332022,1.126026 -1.058807,1.70593 -1.176964,0.939101 -1.741993,2.427475 -2.169645,5.715184 -0.541885,4.16591 0.792687,8.021059 3.942281,11.387984 1.604332,1.715037 1.856519,2.133984 1.525008,2.533427 -0.547233,0.659376 -0.621004,0.634602 -2.150615,-0.722275 z M 14.848188,28.473695 c -1.326418,-0.849929 -2.201832,-2.861237 -2.114904,-4.859101 0.08214,-1.887797 0.552316,-2.891254 1.288307,-2.749522 0.436641,0.08408 0.54121,0.496008 0.553227,2.179306 0.01914,2.681579 0.446656,3.427537 2.239089,3.906939 1.558232,0.416764 1.920537,1.241547 0.80713,1.837424 -0.906555,0.485174 -1.657088,0.3999 -2.772849,-0.315046 z"
         id="path2077" />
      <path
         style="fill:#de836d;stroke-width:0.32"
         d="m 15.144559,129.09092 c -0.362863,-0.94561 0.721766,-2.5574 2.187108,-3.2501 0.763583,-0.36097 1.725503,-1.01812 2.137599,-1.46034 0.832413,-0.89326 0.894149,-0.10574 -0.569175,-7.26048 -0.959071,-4.68926 -1.396195,-9.70025 -1.216341,-13.94356 l 0.163759,-3.86357 -1.313218,-0.350518 c -0.793575,-0.211818 -1.52323,-0.238122 -1.843951,-0.06648 -0.663886,0.355299 -2.295494,2.880948 -3.090629,4.784128 -1.094993,2.62091 -2.1843689,12.09833 -1.8957238,16.49254 0.2106624,3.20704 -0.098874,4.60019 -1.035352,4.65988 -0.2797494,0.0178 -0.9757587,0.007 -1.5466877,-0.0243 -0.5709286,-0.0312 -1.8483302,0.31419 -2.8386697,0.76758 -2.9299196,1.34136 -4.4387513,0.90655 -3.80317002,-1.09599 0.28324582,-0.89243 1.00238912,-1.20355 3.26554762,-1.41279 3.5209817,-0.32552 3.4825491,-0.28378 3.7293836,-4.05029 0.5356676,-8.1739 1.8434372,-14.36368 3.965737,-18.77015 L 12.555068,97.932854 10.29785,95.337747 C 7.538512,92.165357 6.1395962,89.865238 5.0566016,86.72 2.06952,78.044906 2.1815334,71.379229 5.5567037,56.96 5.8244848,55.816 6.1896624,54.16 6.3682096,53.28 7.3521693,48.430394 7.817249,46.338506 8.358816,44.326432 9.1195373,41.500138 9.1335075,39.625962 8.4,38.801341 8.092,38.455078 7.1367312,37.915859 6.2771808,37.603069 3.5477126,36.609821 1.1667126,33.597459 0.75879792,30.621396 0.43540189,28.261965 1.4170647,24.397012 3.4158973,20.16 4.5386909,17.779966 4.5462893,17.73471 4.3292678,14.72 3.9665238,9.6810186 4.0162246,6.055215 4.4838883,3.44 4.7278048,2.076 5.0427136,0.942 5.1836864,0.92 5.3246589,0.898 5.572,0.862 5.7333334,0.84 5.8946666,0.818 6.1346666,0.692 6.2666666,0.56 6.676152,0.15051461 7.1943872,0.2941905 7.524119,0.90861702 7.6978534,1.2323564 8.2132528,2.2763564 8.6694506,3.228617 c 1.5816814,3.3015779 5.4029604,7.433912 7.8352794,8.473077 1.227004,0.524215 5.800394,4.192866 6.991443,5.608348 1.041263,1.23747 1.337686,1.923201 2.12968,4.926698 0.81797,3.102004 0.464907,5.44004 -1.318677,8.732469 -1.303863,2.406881 -1.334039,2.531092 -1.166656,4.802042 0.153417,2.081453 0.427496,2.852941 2.557878,7.2 2.468909,5.037824 3.261714,7.386864 5.153232,15.268749 1.61268,6.719971 2.273615,11.82177 2.23862,17.28 -0.04577,7.13936 -0.83458,10.242797 -3.944746,15.52 -1.559483,2.646067 -1.499233,2.72 2.216602,2.72 3.745379,0 9.235404,0.756115 10.595027,1.459203 1.646717,0.851549 1.796918,1.723735 0.754323,4.380227 -0.98872,2.51922 -2.885853,5.93294 -4.116573,7.40741 -0.655769,0.78565 -0.939878,0.89986 -1.864976,0.74974 -1.303286,-0.2115 -7.765875,-4.33273 -11.129907,-7.09762 -1.32,-1.084899 -2.588692,-2.086861 -2.819314,-2.226576 -0.662807,-0.401539 -2.210429,0.417168 -2.609417,1.38041 -0.601449,1.452026 -0.904212,5.880896 -0.618591,9.048886 0.36975,4.10112 2.153487,12.24162 3.405629,15.54238 0.330427,0.87103 -5.377883,5.19594 -6.857962,5.19594 -0.418237,0 -0.848341,-0.22909 -0.955786,-0.50908 z m 22.812382,-24.59274 c 0.95064,-0.66586 2.415725,-4.13985 2.473667,-5.86555 0.06021,-1.792947 -0.291667,-2.020128 -4.270608,-2.757283 -6.500598,-1.204323 -9.648301,-0.966003 -10.982084,0.831482 l -0.643211,0.866832 0.876228,1.264393 c 1.445052,2.085216 8.579467,6.077086 10.917864,6.108806 0.532841,0.007 1.265504,-0.19468 1.628144,-0.44868 z M 19.91801,96.319763 c 2.773597,-0.549753 6.419441,-3.66512 8.364821,-7.147721 2.965308,-5.308461 3.792286,-13.576816 2.27222,-22.718314 C 30.286747,64.840179 29.912199,62.584 29.722723,61.44 28.900448,56.47537 26.890446,50.633805 23.158364,42.362349 21.189859,37.99953 21.12,37.75527 21.12,35.235248 c 0,-2.416096 0.09693,-2.802246 1.30817,-5.211276 1.595369,-3.173032 1.873034,-5.135378 1.1048,-7.807965 -1.018257,-3.54238 -2.912798,-5.833727 -6.707908,-8.112854 -2.253637,-1.353407 -2.528246,-1.443249 -4.138165,-1.353855 -1.205832,0.06696 -4.5521556,3.426178 -7.0634759,7.090702 -2.0364182,2.971546 -2.532826,4.127425 -3.2373057,7.53803 -0.4102632,1.986211 -0.4099101,2.455073 0.0029,3.845141 0.686414,2.311408 2.633919,4.087434 5.9468396,5.423219 1.4599574,0.588663 2.766357,1.270231 2.903111,1.514596 0.232515,0.415481 0.07815,1.798406 -0.663846,5.947411 -0.168039,0.939616 -0.6594868,2.811616 -1.0921056,4.16 C 8.6834286,50.760525 8.0434929,53.343616 7.3693889,56.8 7.1634356,57.856 6.8590904,59.247312 6.6930664,59.891805 4.4797985,68.483542 4.1907268,75.207107 5.7373588,82.120755 c 1.6548804,7.39753 2.873353,9.737549 6.5457342,12.570771 1.64655,1.270304 4.257811,2.295258 5.316907,2.086957 0.264,-0.05192 1.307105,-0.258349 2.31801,-0.45872 z M 21.848213,79.439136 C 18.546294,76.51009 16.866537,72.322653 16.874397,67.04 c 0.0068,-4.541718 1.175803,-7.662806 3.351632,-8.948102 1.080623,-0.63834 1.533974,-0.423482 1.533962,0.726988 -7e-6,0.591092 -0.332022,1.126026 -1.058807,1.70593 -1.176964,0.939101 -1.741993,2.427475 -2.169645,5.715184 -0.541885,4.16591 0.792687,8.021059 3.942281,11.387984 1.604332,1.715037 1.856519,2.133984 1.525008,2.533427 -0.547233,0.659376 -0.621004,0.634602 -2.150615,-0.722275 z M 14.793657,28.288294 c -1.481234,-1.167339 -2.105875,-2.543625 -2.056129,-4.530315 0.0492,-1.964702 0.525991,-3.038892 1.284063,-2.892907 0.436641,0.08408 0.54121,0.496008 0.553227,2.179306 0.01914,2.681579 0.446656,3.427537 2.239089,3.906939 1.558232,0.416764 1.920537,1.241547 0.80713,1.837424 -0.970007,0.519132 -1.696896,0.390473 -2.82738,-0.500447 z"
         id="path2075" />
      <path
         style="fill:#f27354;stroke-width:0.32"
         d="m 15.144559,129.09092 c -0.362863,-0.94561 0.721766,-2.5574 2.187108,-3.2501 0.763583,-0.36097 1.725503,-1.01812 2.137599,-1.46034 0.832413,-0.89326 0.894149,-0.10574 -0.569175,-7.26048 -0.959071,-4.68926 -1.396195,-9.70025 -1.216341,-13.94356 l 0.163759,-3.86357 -1.313218,-0.350518 c -0.793575,-0.211818 -1.52323,-0.238122 -1.843951,-0.06648 -0.663886,0.355299 -2.295494,2.880948 -3.090629,4.784128 -1.094993,2.62091 -2.1843689,12.09833 -1.8957238,16.49254 0.2106624,3.20704 -0.098874,4.60019 -1.035352,4.65988 -0.2797494,0.0178 -0.9757587,0.007 -1.5466877,-0.0243 -0.5709286,-0.0312 -1.8483302,0.31419 -2.8386697,0.76758 -2.9299196,1.34136 -4.4387513,0.90655 -3.80317002,-1.09599 0.28324582,-0.89243 1.00238912,-1.20355 3.26554762,-1.41279 3.5209817,-0.32552 3.4825491,-0.28378 3.7293836,-4.05029 0.5356676,-8.1739 1.8434372,-14.36368 3.965737,-18.77015 L 12.555068,97.932854 10.29785,95.337747 C 7.538512,92.165357 6.1395962,89.865238 5.0566016,86.72 2.06952,78.044906 2.1815334,71.379229 5.5567037,56.96 5.8244848,55.816 6.1896624,54.16 6.3682096,53.28 7.3521693,48.430394 7.817249,46.338506 8.358816,44.326432 9.1195373,41.500138 9.1335075,39.625962 8.4,38.801341 8.092,38.455078 7.1367312,37.915859 6.2771808,37.603069 3.5477126,36.609821 1.1667126,33.597459 0.75879792,30.621396 0.43540189,28.261965 1.4170647,24.397012 3.4158973,20.16 4.5386909,17.779966 4.5462893,17.73471 4.3292678,14.72 3.9665238,9.6810186 4.0162246,6.055215 4.4838883,3.44 4.7278048,2.076 5.0427136,0.942 5.1836864,0.92 5.3246589,0.898 5.572,0.862 5.7333334,0.84 5.8946666,0.818 6.1346666,0.692 6.2666666,0.56 6.676152,0.15051461 7.1943872,0.2941905 7.524119,0.90861702 7.6978534,1.2323564 8.2132528,2.2763564 8.6694506,3.228617 c 1.5816814,3.3015779 5.4029604,7.433912 7.8352794,8.473077 1.227004,0.524215 5.800394,4.192866 6.991443,5.608348 1.041263,1.23747 1.337686,1.923201 2.12968,4.926698 0.81797,3.102004 0.464907,5.44004 -1.318677,8.732469 -1.303863,2.406881 -1.334039,2.531092 -1.166656,4.802042 0.153417,2.081453 0.427496,2.852941 2.557878,7.2 2.468909,5.037824 3.261714,7.386864 5.153232,15.268749 1.61268,6.719971 2.273615,11.82177 2.23862,17.28 -0.04577,7.13936 -0.83458,10.242797 -3.944746,15.52 -1.559483,2.646067 -1.499233,2.72 2.216602,2.72 3.745379,0 9.235404,0.756115 10.595027,1.459203 1.646717,0.851549 1.796918,1.723735 0.754323,4.380227 -0.98872,2.51922 -2.885853,5.93294 -4.116573,7.40741 -0.655769,0.78565 -0.939878,0.89986 -1.864976,0.74974 -1.303286,-0.2115 -7.765875,-4.33273 -11.129907,-7.09762 -1.32,-1.084899 -2.588692,-2.086861 -2.819314,-2.226576 -0.662807,-0.401539 -2.210429,0.417168 -2.609417,1.38041 -0.601449,1.452026 -0.904212,5.880896 -0.618591,9.048886 0.36975,4.10112 2.153487,12.24162 3.405629,15.54238 0.330427,0.87103 -5.377883,5.19594 -6.857962,5.19594 -0.418237,0 -0.848341,-0.22909 -0.955786,-0.50908 z m 22.812382,-24.59274 c 0.95064,-0.66586 2.415725,-4.13985 2.473667,-5.86555 0.06021,-1.792947 -0.291667,-2.020128 -4.270608,-2.757283 -6.500598,-1.204323 -9.648301,-0.966003 -10.982084,0.831482 l -0.643211,0.866832 0.876228,1.264393 c 1.445052,2.085216 8.579467,6.077086 10.917864,6.108806 0.532841,0.007 1.265504,-0.19468 1.628144,-0.44868 z M 19.91801,96.319763 c 2.773597,-0.549753 6.419441,-3.66512 8.364821,-7.147721 2.965308,-5.308461 3.792286,-13.576816 2.27222,-22.718314 C 30.286747,64.840179 29.912199,62.584 29.722723,61.44 28.900448,56.47537 26.890446,50.633805 23.158364,42.362349 21.189859,37.99953 21.12,37.75527 21.12,35.235248 c 0,-2.416096 0.09693,-2.802246 1.30817,-5.211276 1.595369,-3.173032 1.873034,-5.135378 1.1048,-7.807965 -1.018257,-3.54238 -2.912798,-5.833727 -6.707908,-8.112854 -2.253637,-1.353407 -2.528246,-1.443249 -4.138165,-1.353855 -1.205832,0.06696 -4.5521556,3.426178 -7.0634759,7.090702 -2.0364182,2.971546 -2.532826,4.127425 -3.2373057,7.53803 -0.4102632,1.986211 -0.4099101,2.455073 0.0029,3.845141 0.686414,2.311408 2.633919,4.087434 5.9468396,5.423219 1.4599574,0.588663 2.766357,1.270231 2.903111,1.514596 0.232515,0.415481 0.07815,1.798406 -0.663846,5.947411 -0.168039,0.939616 -0.6594868,2.811616 -1.0921056,4.16 C 8.6834286,50.760525 8.0434929,53.343616 7.3693889,56.8 7.1634356,57.856 6.8590904,59.247312 6.6930664,59.891805 4.4797985,68.483542 4.1907268,75.207107 5.7373588,82.120755 c 1.6548804,7.39753 2.873353,9.737549 6.5457342,12.570771 1.64655,1.270304 4.257811,2.295258 5.316907,2.086957 0.264,-0.05192 1.307105,-0.258349 2.31801,-0.45872 z M 21.848213,79.439136 C 18.546294,76.51009 16.866537,72.322653 16.874397,67.04 c 0.0068,-4.541718 1.175803,-7.662806 3.351632,-8.948102 1.080623,-0.63834 1.533974,-0.423482 1.533962,0.726988 -7e-6,0.591092 -0.332022,1.126026 -1.058807,1.70593 -1.176964,0.939101 -1.741993,2.427475 -2.169645,5.715184 -0.541885,4.16591 0.792687,8.021059 3.942281,11.387984 1.604332,1.715037 1.856519,2.133984 1.525008,2.533427 -0.547233,0.659376 -0.621004,0.634602 -2.150615,-0.722275 z M 14.793657,28.288294 c -1.481234,-1.167339 -2.105875,-2.543625 -2.056129,-4.530315 0.0492,-1.964702 0.525991,-3.038892 1.284063,-2.892907 0.436641,0.08408 0.54121,0.496008 0.553227,2.179306 0.01914,2.681579 0.446656,3.427537 2.239089,3.906939 1.558232,0.416764 1.920537,1.241547 0.80713,1.837424 -0.970007,0.519132 -1.696896,0.390473 -2.82738,-0.500447 z M 7.1576205,14.468572 C 7.2430858,14.330286 7.0461565,14.217143 6.72,14.217143 c -0.3261565,0 -0.5230858,0.113143 -0.4376205,0.251429 C 6.3678448,14.606857 6.5647741,14.72 6.72,14.72 c 0.1552259,0 0.3521552,-0.113143 0.4376205,-0.251428 z M 9.6408176,12.24 C 10.038856,11.732462 10.027538,11.721144 9.52,12.119182 8.9869606,12.53722 8.8174467,12.8 9.0808176,12.8 c 0.06645,0 0.3184499,-0.252 0.56,-0.56 z M 5.3385965,10.5 C 5.2364442,10.244725 5.1606179,10.320552 5.145263,10.693333 5.1313686,11.030667 5.207,11.219667 5.3133334,11.113333 5.4196666,11.007 5.4310352,10.731 5.3385974,10.5 Z m 6.4396025,-0.108468 c -0.09852,-0.09852 -0.277455,0.07908 -0.397625,0.394667 -0.173659,0.456063 -0.136903,0.49282 0.179134,0.179134 0.218694,-0.217066 0.317015,-0.475277 0.218491,-0.573801 z M 8.32,8.64 C 8.32,8.464 8.1787434,8.32 8.0060966,8.32 7.8334499,8.32 7.6001558,7.9532938 7.4876659,7.5050976 7.3751757,7.0569011 7.2090496,6.7642838 7.1184966,6.8548368 6.8836285,7.089705 7.7012758,8.96 8.0388224,8.96 8.1934701,8.96 8.32,8.816 8.32,8.64 Z M 5.3417571,6.8060902 C 5.260623,6.4947405 5.188905,6.672 5.1823837,7.2 c -0.00652,0.528 0.059861,0.7827405 0.1475161,0.5660902 0.087655,-0.2166505 0.092991,-0.6486505 0.011856,-0.96 z M 8.2185965,7.3 C 8.1164442,7.0447254 8.0406179,7.1205517 8.025263,7.4933334 8.0113686,7.8306666 8.087,8.0196666 8.1933334,7.9133334 8.2996666,7.807 8.3110352,7.531 8.2185974,7.3 Z m -0.32,-1.28 C 7.7964442,5.7647254 7.7206179,5.8405517 7.705263,6.2133334 7.6913686,6.5506666 7.767,6.7396666 7.8733334,6.6333334 7.9796666,6.527 7.9910352,6.251 7.8985965,6.02 Z m -2.24,-1.92 C 5.5564442,3.8447254 5.4806179,3.9205517 5.465263,4.2933334 5.4513686,4.6306666 5.527,4.8196666 5.6333334,4.7133334 5.7396666,4.607 5.7510352,4.331 5.6585965,4.1 Z"
         id="path2073" />
      <path
         style="fill:#6aa79e;stroke-width:0.32"
         d="m 15.144559,129.09092 c -0.362863,-0.94561 0.721766,-2.5574 2.187108,-3.2501 0.763583,-0.36097 1.725503,-1.01812 2.137599,-1.46034 0.832413,-0.89326 0.894149,-0.10574 -0.569175,-7.26048 -0.959071,-4.68926 -1.396195,-9.70025 -1.216341,-13.94356 l 0.163759,-3.86357 -1.313218,-0.350518 c -0.793575,-0.211818 -1.52323,-0.238122 -1.843951,-0.06648 -0.663886,0.355299 -2.295494,2.880948 -3.090629,4.784128 -1.094993,2.62091 -2.1843689,12.09833 -1.8957238,16.49254 0.2106624,3.20704 -0.098874,4.60019 -1.035352,4.65988 -0.2797494,0.0178 -0.9757587,0.007 -1.5466877,-0.0243 -0.5709286,-0.0312 -1.8483302,0.31419 -2.8386697,0.76758 -2.9299196,1.34136 -4.4387513,0.90655 -3.80317002,-1.09599 0.28324582,-0.89243 1.00238912,-1.20355 3.26554762,-1.41279 3.5209817,-0.32552 3.4825491,-0.28378 3.7293836,-4.05029 0.5356676,-8.1739 1.8434372,-14.36368 3.965737,-18.77015 L 12.555068,97.932854 10.29785,95.337747 C 7.538512,92.165357 6.1395962,89.865238 5.0566016,86.72 2.06952,78.044906 2.1815334,71.379229 5.5567037,56.96 5.8244848,55.816 6.1896624,54.16 6.3682096,53.28 7.3521693,48.430394 7.817249,46.338506 8.358816,44.326432 9.1195373,41.500138 9.1335075,39.625962 8.4,38.801341 8.092,38.455078 7.1367312,37.915859 6.2771808,37.603069 3.5477126,36.609821 1.1667126,33.597459 0.75879792,30.621396 0.43540189,28.261965 1.4170647,24.397012 3.4158973,20.16 4.5386909,17.779966 4.5462893,17.73471 4.3292678,14.72 3.9665238,9.6810186 4.0162246,6.055215 4.4838883,3.44 4.7278048,2.076 5.0427136,0.942 5.1836864,0.92 5.3246589,0.898 5.572,0.862 5.7333334,0.84 5.8946666,0.818 6.1346666,0.692 6.2666666,0.56 6.676152,0.15051461 7.1943872,0.2941905 7.524119,0.90861702 7.6978534,1.2323564 8.2132528,2.2763564 8.6694506,3.228617 c 1.5816814,3.3015779 5.4029604,7.433912 7.8352794,8.473077 1.227004,0.524215 5.800394,4.192866 6.991443,5.608348 1.041263,1.23747 1.337686,1.923201 2.12968,4.926698 0.81797,3.102004 0.464907,5.44004 -1.318677,8.732469 -1.303863,2.406881 -1.334039,2.531092 -1.166656,4.802042 0.153417,2.081453 0.427496,2.852941 2.557878,7.2 2.468909,5.037824 3.261714,7.386864 5.153232,15.268749 1.61268,6.719971 2.273615,11.82177 2.23862,17.28 -0.04577,7.13936 -0.83458,10.242797 -3.944746,15.52 -1.559483,2.646067 -1.499233,2.72 2.216602,2.72 3.745379,0 9.235404,0.756115 10.595027,1.459203 1.646717,0.851549 1.796918,1.723735 0.754323,4.380227 -0.98872,2.51922 -2.885853,5.93294 -4.116573,7.40741 -0.655769,0.78565 -0.939878,0.89986 -1.864976,0.74974 -1.303286,-0.2115 -7.765875,-4.33273 -11.129907,-7.09762 -1.32,-1.084899 -2.588692,-2.086861 -2.819314,-2.226576 -0.662807,-0.401539 -2.210429,0.417168 -2.609417,1.38041 -0.601449,1.452026 -0.904212,5.880896 -0.618591,9.048886 0.36975,4.10112 2.153487,12.24162 3.405629,15.54238 0.330427,0.87103 -5.377883,5.19594 -6.857962,5.19594 -0.418237,0 -0.848341,-0.22909 -0.955786,-0.50908 z m 22.812382,-24.59274 c 0.95064,-0.66586 2.415725,-4.13985 2.473667,-5.86555 0.06021,-1.792947 -0.291667,-2.020128 -4.270608,-2.757283 -6.500598,-1.204323 -9.648301,-0.966003 -10.982084,0.831482 l -0.643211,0.866832 0.876228,1.264393 c 1.445052,2.085216 8.579467,6.077086 10.917864,6.108806 0.532841,0.007 1.265504,-0.19468 1.628144,-0.44868 z M 19.91801,96.319763 c 2.773597,-0.549753 6.419441,-3.66512 8.364821,-7.147721 2.965308,-5.308461 3.792286,-13.576816 2.27222,-22.718314 C 30.286747,64.840179 29.912199,62.584 29.722723,61.44 28.900448,56.47537 26.890446,50.633805 23.158364,42.362349 21.189859,37.99953 21.12,37.75527 21.12,35.235248 c 0,-2.416096 0.09693,-2.802246 1.30817,-5.211276 1.595369,-3.173032 1.873034,-5.135378 1.1048,-7.807965 -1.018257,-3.54238 -2.912798,-5.833727 -6.707908,-8.112854 -2.253637,-1.353407 -2.528246,-1.443249 -4.138165,-1.353855 -1.205832,0.06696 -4.5521556,3.426178 -7.0634759,7.090702 -2.0364182,2.971546 -2.532826,4.127425 -3.2373057,7.53803 -0.4102632,1.986211 -0.4099101,2.455073 0.0029,3.845141 0.686414,2.311408 2.633919,4.087434 5.9468396,5.423219 1.4599574,0.588663 2.766357,1.270231 2.903111,1.514596 0.232515,0.415481 0.07815,1.798406 -0.663846,5.947411 -0.168039,0.939616 -0.6594868,2.811616 -1.0921056,4.16 C 8.6834286,50.760525 8.0434929,53.343616 7.3693889,56.8 7.1634356,57.856 6.8590904,59.247312 6.6930664,59.891805 4.4797985,68.483542 4.1907268,75.207107 5.7373588,82.120755 c 1.6548804,7.39753 2.873353,9.737549 6.5457342,12.570771 1.64655,1.270304 4.257811,2.295258 5.316907,2.086957 0.264,-0.05192 1.307105,-0.258349 2.31801,-0.45872 z M 21.848213,79.439136 C 18.546294,76.51009 16.866537,72.322653 16.874397,67.04 c 0.0068,-4.541718 1.175803,-7.662806 3.351632,-8.948102 1.080623,-0.63834 1.533974,-0.423482 1.533962,0.726988 -7e-6,0.591092 -0.332022,1.126026 -1.058807,1.70593 -1.176964,0.939101 -1.741993,2.427475 -2.169645,5.715184 -0.541885,4.16591 0.792687,8.021059 3.942281,11.387984 1.604332,1.715037 1.856519,2.133984 1.525008,2.533427 -0.547233,0.659376 -0.621004,0.634602 -2.150615,-0.722275 z M 14.793657,28.288294 c -1.481234,-1.167339 -2.105875,-2.543625 -2.056129,-4.530315 0.0492,-1.964702 0.525991,-3.038892 1.284063,-2.892907 0.436641,0.08408 0.54121,0.496008 0.553227,2.179306 0.01914,2.681579 0.446656,3.427537 2.239089,3.906939 1.558232,0.416764 1.920537,1.241547 0.80713,1.837424 -0.970007,0.519132 -1.696896,0.390473 -2.82738,-0.500447 z M 7.6785328,13.921562 C 8.0910842,13.482421 9.1961856,12.594485 10.134313,11.948372 11.072441,11.302259 11.84,10.579522 11.84,10.34229 11.84,10.105057 11.228,9.1546848 10.48,8.2303504 9.732,7.3060163 8.76,5.8016451 8.32,4.8873037 7.88,3.9729622 7.3952128,3.2192701 7.2426954,3.2124323 6.9585008,3.1996911 6.9783011,3.3216947 7.7729968,6.48 8.4136589,9.0261398 7.8840346,8.7945939 7.0410477,6.16 6.6609251,4.972 6.2795008,3.784 6.1934381,3.52 5.8672179,2.5193108 5.4599277,4.0602755 5.2459094,7.1049331 5.0401478,10.03213 5.3744054,12.688859 6.1335456,14.16 c 0.3865485,0.749094 0.6563693,0.707452 1.5449872,-0.238438 z"
         id="path2071" />
      <path
         style="fill:#59827d;stroke-width:0.32"
         d="m 15.144559,129.09092 c -0.362863,-0.94561 0.721766,-2.5574 2.187108,-3.2501 0.763583,-0.36097 1.725503,-1.01812 2.137599,-1.46034 0.832413,-0.89326 0.894149,-0.10574 -0.569175,-7.26048 -0.959071,-4.68926 -1.396195,-9.70025 -1.216341,-13.94356 l 0.163759,-3.86357 -1.313218,-0.350518 c -0.793575,-0.211818 -1.52323,-0.238122 -1.843951,-0.06648 -0.663886,0.355299 -2.295494,2.880948 -3.090629,4.784128 -1.094993,2.62091 -2.1843689,12.09833 -1.8957238,16.49254 0.2106624,3.20704 -0.098874,4.60019 -1.035352,4.65988 -0.2797494,0.0178 -0.9757587,0.007 -1.5466877,-0.0243 -0.5709286,-0.0312 -1.8483302,0.31419 -2.8386697,0.76758 -2.9299196,1.34136 -4.4387513,0.90655 -3.80317002,-1.09599 0.28324582,-0.89243 1.00238912,-1.20355 3.26554762,-1.41279 3.5209817,-0.32552 3.4825491,-0.28378 3.7293836,-4.05029 0.5356676,-8.1739 1.8434372,-14.36368 3.965737,-18.77015 L 12.555068,97.932854 10.29785,95.337747 C 7.538512,92.165357 6.1395962,89.865238 5.0566016,86.72 2.06952,78.044906 2.1815334,71.379229 5.5567037,56.96 5.8244848,55.816 6.1896624,54.16 6.3682096,53.28 7.3521693,48.430394 7.817249,46.338506 8.358816,44.326432 9.1195373,41.500138 9.1335075,39.625962 8.4,38.801341 8.092,38.455078 7.1367312,37.915859 6.2771808,37.603069 3.5477126,36.609821 1.1667126,33.597459 0.75879792,30.621396 0.43540189,28.261965 1.4170647,24.397012 3.4158973,20.16 4.5386909,17.779966 4.5462893,17.73471 4.3292678,14.72 3.9665238,9.6810186 4.0162246,6.055215 4.4838883,3.44 4.7278048,2.076 5.0427136,0.942 5.1836864,0.92 5.3246589,0.898 5.572,0.862 5.7333334,0.84 5.8946666,0.818 6.1346666,0.692 6.2666666,0.56 6.676152,0.15051461 7.1943872,0.2941905 7.524119,0.90861702 7.6978534,1.2323564 8.2132528,2.2763564 8.6694506,3.228617 c 1.5816814,3.3015779 5.4029604,7.433912 7.8352794,8.473077 1.227004,0.524215 5.800394,4.192866 6.991443,5.608348 1.041263,1.23747 1.337686,1.923201 2.12968,4.926698 0.81797,3.102004 0.464907,5.44004 -1.318677,8.732469 -1.303863,2.406881 -1.334039,2.531092 -1.166656,4.802042 0.153417,2.081453 0.427496,2.852941 2.557878,7.2 2.468909,5.037824 3.261714,7.386864 5.153232,15.268749 1.61268,6.719971 2.273615,11.82177 2.23862,17.28 -0.04577,7.13936 -0.83458,10.242797 -3.944746,15.52 -1.559483,2.646067 -1.499233,2.72 2.216602,2.72 3.745379,0 9.235404,0.756115 10.595027,1.459203 1.646717,0.851549 1.796918,1.723735 0.754323,4.380227 -0.98872,2.51922 -2.885853,5.93294 -4.116573,7.40741 -0.655769,0.78565 -0.939878,0.89986 -1.864976,0.74974 -1.303286,-0.2115 -7.765875,-4.33273 -11.129907,-7.09762 -1.32,-1.084899 -2.588692,-2.086861 -2.819314,-2.226576 -0.662807,-0.401539 -2.210429,0.417168 -2.609417,1.38041 -0.601449,1.452026 -0.904212,5.880896 -0.618591,9.048886 0.36975,4.10112 2.153487,12.24162 3.405629,15.54238 0.330427,0.87103 -5.377883,5.19594 -6.857962,5.19594 -0.418237,0 -0.848341,-0.22909 -0.955786,-0.50908 z M 38.724333,103.67391 C 39.601011,102.44274 40.64,99.503907 40.64,98.255373 c 0,-1.38385 -0.850128,-1.785274 -5.400106,-2.549885 -6.057774,-1.017997 -8.216158,-0.866906 -9.879894,0.69161 -0.939268,0.879862 -0.908767,1.569462 0.123687,2.796464 1.541084,1.831468 7.728412,5.276738 10.356313,5.766668 1.362986,0.25411 1.98497,-0.0233 2.884333,-1.28632 z M 19.051077,96.61087 c 2.589707,-0.478732 3.859532,-1.195091 6.295911,-3.55176 2.357161,-2.280044 3.99193,-5.174064 5.059271,-8.95639 0.975799,-3.457933 1.230006,-11.451466 0.507154,-15.947446 C 30.616715,66.309872 30.220753,63.792 30.033499,62.56 29.208666,57.133187 27.261792,51.33543 23.399665,42.804554 21.230848,38.013955 21.12,37.65368 21.12,35.395286 c 0,-2.135363 0.136618,-2.658182 1.36,-5.204554 1.25091,-2.60367 1.35998,-3.036078 1.359745,-5.390732 -2.1e-4,-2.107372 -0.151843,-2.883519 -0.857618,-4.389781 C 21.838394,17.969268 19.560172,15.599082 16.812586,13.991633 13.168576,11.85974 11.477771,12.297746 8.3180624,16.192155 4.2572038,21.197251 3.19189,23.157025 2.37057,27.13329 1.8335235,29.733298 2.0524963,31.567969 3.0885904,33.149248 3.8307549,34.281936 6.290641,35.954525 8.48,36.815117 c 2.827464,1.111417 2.955649,1.266589 2.691401,3.258022 -0.460516,3.470547 -0.991176,5.886778 -1.8956624,8.631434 C 8.7636384,50.258534 8.0377021,53.075718 7.6625469,54.964979 7.2873917,56.85424 6.700351,59.572733 6.3580118,61.006074 4.968887,66.822205 4.5014902,70.600502 4.6686102,74.662701 4.7567949,76.806214 5.0517744,79.424 5.32412,80.48 c 0.2723456,1.056 0.6140787,2.650166 0.7594074,3.542592 0.9317977,5.721939 4.6917216,10.83392 9.0856126,12.352771 1.969092,0.680663 1.596238,0.658042 3.881937,0.235507 z m 2.798631,-17.238492 c -2.819722,-2.709444 -4.000593,-5.077959 -4.734624,-9.496413 -0.470433,-2.831744 -0.220241,-5.983847 0.676748,-8.526186 0.961822,-2.726093 3.969453,-4.65912 3.967248,-2.549779 -6.4e-4,0.62023 -0.283136,1.068922 -0.956962,1.52 -1.155042,0.773216 -1.798496,2.280643 -2.269609,5.317037 -0.382585,2.465824 -0.227022,4.335427 0.569383,6.842963 0.621096,1.955568 1.325326,3.031587 3.377987,5.161357 1.493069,1.549155 1.87174,2.615299 1.028585,2.895971 -0.182344,0.0607 -0.928785,-0.46353 -1.658756,-1.16495 z M 15.031989,28.410244 c -1.656715,-1.106973 -2.289302,-2.566253 -2.154179,-4.969353 0.117284,-2.085821 0.461703,-2.78216 1.230229,-2.487249 0.332614,0.127635 0.454642,0.766957 0.45351,2.375994 -0.0018,2.606638 0.550061,3.451912 2.452437,3.756114 0.674308,0.107826 1.223809,0.357643 1.221114,0.555149 -0.01854,1.358667 -1.712277,1.765481 -3.203111,0.769345 z M 7.6785328,13.921562 C 8.0910842,13.482421 9.1961856,12.594485 10.134313,11.948372 11.072441,11.302259 11.84,10.579522 11.84,10.34229 11.84,10.105057 11.228,9.1546848 10.48,8.2303504 9.732,7.3060163 8.76,5.8016451 8.32,4.8873037 7.88,3.9729622 7.3952128,3.2192701 7.2426954,3.2124323 6.9585008,3.1996911 6.9783011,3.3216947 7.7729968,6.48 8.4136589,9.0261398 7.8840346,8.7945939 7.0410477,6.16 6.6609251,4.972 6.2795008,3.784 6.1934381,3.52 5.8672179,2.5193108 5.4599277,4.0602755 5.2459094,7.1049331 5.0401478,10.03213 5.3744054,12.688859 6.1335456,14.16 c 0.3865485,0.749094 0.6563693,0.707452 1.5449872,-0.238438 z"
         id="path2069" />
      <path
         style="fill:#56605e;stroke-width:0.32"
         d="m 15.36024,129.12029 c -0.686428,-0.8271 0.192411,-2.32143 1.88607,-3.20698 0.810529,-0.4238 1.821124,-1.04596 2.245765,-1.38258 0.862293,-0.68356 0.915882,-0.0277 -0.618628,-7.57073 -0.909707,-4.47172 -1.383196,-10.17895 -1.171773,-14.12405 l 0.191054,-3.565025 -1.30398,-0.330983 c -0.717189,-0.182044 -1.501723,-0.255107 -1.74341,-0.162361 -0.717003,0.275139 -2.52894,3.010699 -3.247184,4.902419 -1.192302,3.14029 -2.1875905,11.83443 -1.9161342,16.73798 0.2171216,3.92206 0.027165,4.23426 -2.7100137,4.45398 -1.2533671,0.1006 -2.4372771,0.41939 -3.1332883,0.84368 -1.5736339,0.95928 -3.12742625,0.91983 -3.37983114,-0.0858 -0.10631863,-0.4236 -0.0329056,-1.0699 0.16314003,-1.43622 0.38190811,-0.7136 0.83356071,-0.85944 3.46458101,-1.11876 0.9276339,-0.0914 2.0496774,-0.35266 2.4934294,-0.58053 0.7601536,-0.39033 0.8145904,-0.59013 0.9411197,-3.45429 0.1165072,-2.6373 0.506752,-5.85452 1.3003219,-10.72 0.3593005,-2.20292 1.7011653,-6.32038 2.7000853,-8.28509 C 12.048704,98.998102 12.48,98.060211 12.48,97.950701 12.48,97.84119 11.463779,96.601485 10.221731,95.195795 7.0109949,91.562045 4.9061709,87.602038 4.1097088,83.696669 3.0653034,78.57553 2.9316379,77.336304 3.0206604,73.6 3.1412415,68.539178 3.6916234,64.927901 5.5567037,56.96 5.8244848,55.816 6.1896624,54.16 6.3682096,53.28 7.4610973,47.893523 7.809911,46.341395 8.3536099,44.445501 9.1360138,41.717235 9.1553683,39.305034 8.4,38.663827 8.092,38.402374 7.1643952,37.939354 6.338656,37.63489 5.5129168,37.330422 4.2588749,36.519962 3.551896,35.833862 -0.0658678,32.322944 -0.13516409,28.348878 3.2845728,20.503169 L 4.5995296,17.486337 4.2610765,12.823169 C 3.7931037,6.3754912 4.3806115,1.2385591 5.6127232,1.0049138 5.9577254,0.93949107 6.3490595,0.72262163 6.4823549,0.5229817 6.7956602,0.05373515 7.7844131,1.2687425 8.6608685,3.2 c 1.4917555,3.287064 5.2042715,7.238814 8.2558395,8.787844 1.53948,0.781468 5.58632,4.126107 6.711891,5.547257 1.33998,1.691862 2.581997,6.09037 2.369923,8.3929 -0.146391,1.589396 -1.191314,4.25883 -2.502084,6.391999 -0.371127,0.603978 -0.455491,1.40753 -0.344306,3.27943 0.136885,2.304567 0.31745,2.826128 2.560236,7.395229 1.32713,2.70369 2.505426,5.331943 2.618435,5.84057 0.113009,0.508624 0.477223,1.788771 0.809365,2.844771 1.125771,3.579232 2.805572,11.181363 3.394014,15.36 1.036551,7.360739 0.53114,15.99257 -1.163654,19.873837 -0.315535,0.722611 -1.166986,2.297517 -1.892114,3.499795 -1.969879,3.266106 -1.928536,3.346368 1.723692,3.346368 3.429129,0 8.926697,0.737821 10.549366,1.415814 1.28457,0.536727 1.898554,1.542564 1.619734,2.653469 -0.401158,1.598336 -3.070947,6.927057 -4.249264,8.481247 -1.114937,1.47059 -1.284435,1.57453 -2.34158,1.43595 -1.522455,-0.19957 -7.813622,-4.36525 -13.582692,-8.993744 -0.668991,-0.53673 -0.873912,-0.5588 -1.76421,-0.190026 -1.226988,0.508234 -1.503154,1.183133 -1.894906,4.63082 -0.489929,4.31169 0.67798,12.49389 2.718651,19.04647 l 0.747432,2.4 -1.182318,1.24099 c -1.403436,1.47308 -4.732614,3.71901 -5.512748,3.71901 -0.303164,0 -0.730362,-0.21587 -0.949331,-0.47971 z M 38.220864,104.24 c 1.712502,-1.71768 2.95864,-5.933315 2.137059,-7.229594 C 39.987821,96.426461 32.695907,95.028541 29.92,95.00937 c -2.468898,-0.01706 -3.641103,0.311734 -4.627221,1.297852 -0.899721,0.899719 -0.818135,1.722176 0.296799,2.992016 1.497213,1.705232 7.484806,5.117842 10.090422,5.751002 1.24855,0.3034 1.515434,0.21829 2.540864,-0.81024 z M 21.6,95.870003 C 23.929813,94.81856 27.474357,91.21145 28.704594,88.64 c 1.608119,-3.361299 2.049688,-5.036163 2.49965,-9.481126 0.435428,-4.301383 0.225793,-9.517437 -0.480545,-11.956762 C 30.545664,66.587274 30.4,65.630835 30.4,65.076691 c 0,-3.933712 -2.901819,-13.317696 -6.658202,-21.531472 -2.229385,-4.874816 -2.436914,-5.506681 -2.55804,-7.78848 -0.125626,-2.366573 -0.07024,-2.614681 1.178607,-5.28 0.720735,-1.538207 1.439424,-3.402871 1.597086,-4.143698 C 24.553863,23.54 23.016523,19.367999 20.399258,16.671464 18.778038,15.001142 14.556922,12.493626 13.353139,12.48578 11.552205,12.474043 9.2329338,14.66115 5.3848445,20 3.147408,23.104226 2.0731006,26.372782 2.1380037,29.87844 c 0.028079,1.516634 0.2107474,2.127531 0.9483867,3.171685 1.138735,1.61192 3.4246147,3.205805 5.6290208,3.924976 C 10.956462,37.706224 11.2,37.943382 11.2,39.394589 c 0,1.706589 -1.098932,6.593133 -2.5469658,11.325411 -0.3769804,1.232 -0.8365836,3.032 -1.0213401,4 -0.1847568,0.968 -0.4591095,2.408 -0.609673,3.2 -0.1505635,0.792 -0.7325859,3.456 -1.293383,5.92 -0.8909373,3.91455 -1.0225136,5.085837 -1.0424675,9.28 -0.01849,3.886538 0.114798,5.408973 0.7003968,8 1.1825952,5.23248 1.7046601,6.940298 2.7213692,8.902339 1.2669904,2.445034 4.8580944,5.805815 6.8936594,6.45152 1.878415,0.595856 4.464451,0.359194 6.598404,-0.603856 z M 21.558042,78.96 c -3.145608,-3.26192 -4.211221,-5.743712 -4.499759,-10.479853 -0.26644,-4.373414 0.456532,-7.547261 2.116747,-9.292509 1.412661,-1.485014 2.58497,-1.701436 2.58497,-0.477219 0,0.507069 -0.343909,1.044685 -0.959342,1.499693 -1.869928,1.382499 -2.950727,6.275091 -2.245354,10.164336 0.520541,2.870128 1.424604,4.609619 3.609864,6.945667 1.452408,1.552627 1.838076,2.165549 1.678664,2.667811 -0.113828,0.35864 -0.310175,0.652074 -0.436327,0.652074 -0.126152,0 -0.95841,-0.756 -1.849463,-1.68 z M 15.105926,28.434274 c -2.254947,-1.443888 -3.086433,-5.612284 -1.508381,-7.561806 0.03897,-0.04814 0.278027,-0.008 0.531238,0.08913 0.352038,0.135089 0.43084,0.645199 0.334842,2.167532 -0.157355,2.495347 0.572699,3.640375 2.51954,3.951687 1.417474,0.226663 1.617123,0.790533 0.545633,1.541034 -0.917818,0.642865 -1.154574,0.624535 -2.422872,-0.187581 z M 7.6785328,13.921562 C 8.0910842,13.482421 9.1961856,12.594485 10.134313,11.948372 11.072441,11.302259 11.84,10.57139 11.84,10.32422 11.84,10.07705 11.283532,9.2009856 10.603403,8.3774099 9.9232749,7.5538346 8.9512749,6.088 8.4434032,5.12 7.9355315,4.152 7.4935805,3.3095805 7.4612899,3.2479565 7.4289994,3.1863328 7.2495274,3.2305037 7.0624634,3.3461168 6.8299898,3.4897936 6.8640877,3.8304173 7.1702016,4.422376 7.4165216,4.8987066 7.703696,6.0065344 7.8083667,6.884216 L 7.9986774,8.48 7.4851994,7.36 C 7.2027866,6.744 6.8090064,5.556 6.6101325,4.72 5.9648774,2.0075623 5.5294022,2.8448034 5.2330019,7.3676595 5.0346141,10.394918 5.3200061,12.531092 6.1404563,14.16 c 0.3775226,0.749527 0.6495482,0.707357 1.5380765,-0.238438 z"
         id="path2067" />
      <path
         style="fill:#2b2d2d;stroke-width:0.32"
         d="m 15.339631,129.09546 c -0.600375,-0.72341 0.42486,-2.52386 1.738317,-3.05273 0.551129,-0.22191 1.485652,-0.7653 2.076718,-1.20753 1.118288,-0.83668 1.164295,-1.1649 0.565888,-4.03715 -1.201533,-5.76714 -1.515018,-7.57552 -1.830254,-10.55805 -0.205643,-1.94564 -0.290015,-5.18668 -0.18864,-7.24641 l 0.183403,-3.726409 -1.454494,-0.366247 c -1.682375,-0.423625 -1.903189,-0.306492 -3.329094,1.765986 -1.730727,2.51553 -2.370185,4.98959 -3.1978958,12.37261 -0.3698051,3.29859 -0.4435046,9.35518 -0.1202038,9.87829 0.1054844,0.17068 -0.039942,0.66399 -0.3231696,1.09625 -0.4375498,0.66779 -0.7663917,0.7864 -2.1875828,0.78906 -1.1054316,0.002 -2.2530908,0.27334 -3.384398,0.8 C 2.9467489,126.04141 1.9078154,126.4 1.5794839,126.4 0.74847386,126.4 0.24743161,125.35253 0.61544102,124.3846 0.95931894,123.48013 1.5431834,123.2 3.0844696,123.2 c 1.4217538,0 4.0517534,-0.64698 4.3268862,-1.06441 0.1162455,-0.17636 0.1362071,-0.78375 0.044358,-1.34975 -0.1630771,-1.00492 0.5528416,-7.6746 1.2350308,-11.50584 0.6982361,-3.92137 2.0728904,-8.11377 3.2164224,-9.809398 0.602984,-0.894109 0.760152,-2.063613 0.301557,-2.243936 C 11.542002,96.964509 7.8521824,92.453555 6.8526848,90.678691 3.6594384,85.008266 2.3047779,75.961798 3.4566714,68 3.9446819,64.626909 4.6611549,61.04863 6.1157053,54.72 6.2977357,53.928 6.5668374,52.56 6.7137088,51.68 7.082009,49.473283 8.192553,44.829779 8.6128442,43.739168 8.8037798,43.243712 8.96,41.994163 8.96,40.962394 8.96,39.316925 8.8564118,39.00497 8.1168451,38.423226 7.6531101,38.058451 7.0411101,37.759382 6.7568451,37.75863 5.947359,37.75639 3.6608528,36.105242 2.5745543,34.738314 -0.08530366,31.391318 0.17264172,27.670675 3.6185197,19.68 L 4.7224874,17.12 4.316592,12.96 C 3.7405981,7.0566707 4.371185,1.2403466 5.6127232,1.0049138 5.9577254,0.93949107 6.3460163,0.72262163 6.4755917,0.5229817 6.7647005,0.07754508 8.1867322,1.726251 8.4758573,2.8420932 9.0493942,5.0555872 13.6041,10.301055 16.012123,11.521301 c 2.893684,1.466351 7.344313,5.346944 8.439648,7.358699 0.723335,1.328519 1.468229,4.735834 1.468229,6.716016 0,1.803575 -0.836649,4.120591 -2.427956,6.723984 -0.374778,0.613139 -0.449959,1.397952 -0.321871,3.36 0.155079,2.375485 0.33078,2.89087 2.43769,7.150506 1.248811,2.524777 2.612019,5.76879 3.029351,7.208918 1.646278,5.680963 3.135487,12.034422 3.534786,15.080576 0.230707,1.76 0.590186,4.352 0.798842,5.76 0.43903,2.962547 0.217276,7.939638 -0.534663,12 -0.492793,2.661008 -1.421334,4.944874 -3.317571,8.16 -0.519012,0.88 -0.947022,1.852 -0.951133,2.16 -0.0081,0.60464 0.258311,0.645264 3.704227,0.564906 2.634592,-0.06144 8.665482,0.857078 10.046644,1.530121 1.492153,0.727133 1.850236,1.816339 1.133673,3.448378 -1.603981,3.653205 -3.472115,7.134755 -4.323024,8.056595 -1.495507,1.62018 -1.639232,1.58127 -7.276975,-1.96955 -1.370611,-0.86326 -3.898269,-2.69926 -5.617017,-4.08 C 24.116255,99.369702 22.486788,98.24 22.213966,98.24 c -0.868525,0 -1.754267,0.65176 -2.09212,1.539456 -0.66303,1.742094 -0.931083,5.914884 -0.589741,9.180544 0.37222,3.56108 1.947203,11.19681 2.8702,13.91511 l 0.599267,1.76489 -1.180786,1.22237 c -1.395723,1.44488 -4.793434,3.73763 -5.538934,3.73763 -0.287918,0 -0.711918,-0.22704 -0.942221,-0.50454 z M 38.162742,104.4 c 2.01217,-2.10178 3.233792,-7.016915 1.917258,-7.71399 -1.108758,-0.58706 -7.653776,-1.703293 -10.16,-1.732756 -4.587545,-0.05393 -6.606745,1.976298 -4.38281,4.406746 1.892106,2.06781 8.982752,5.89133 10.962941,5.9116 0.485114,0.005 1.164275,-0.35107 1.662611,-0.8716 z M 20.526293,96.326256 C 22.176357,95.812061 23.020644,95.270445 25.00189,93.455133 28.894422,89.888611 30.639167,85.78569 31.335965,78.56 31.65167,75.286186 31.351741,68.283296 30.861875,67.490672 30.769148,67.340637 30.5548,65.999152 30.385544,64.50959 29.652715,58.060208 27.323416,50.906563 22.873852,41.44 c -1.398741,-2.975859 -1.507237,-3.390704 -1.548973,-5.92264 -0.04086,-2.4788 0.04943,-2.91457 1.008106,-4.865645 1.724096,-3.508832 2.087667,-5.101688 1.650736,-7.232109 -0.51997,-2.535312 -1.759123,-4.929105 -3.479854,-6.722379 C 18.832077,14.954959 14.591663,12.48 13.278376,12.48 c -1.745508,0 -3.8429264,1.906556 -7.4109155,6.736532 -2.4174634,3.272513 -3.3470554,5.611195 -3.8433839,9.669245 -0.2503218,2.046664 0.5355062,4.030274 2.1881176,5.523308 1.319618,1.192195 4.805993,3.030205 5.7486234,3.030662 0.9331584,3.2e-4 1.3317354,0.864512 1.1448634,2.481907 -0.355823,3.079674 -0.91282,5.650756 -1.8089178,8.349924 C 8.4022746,50.965898 7.5061584,54.678662 7.0452464,57.6 6.9202893,58.392 6.589256,59.904 6.309617,60.96 c -1.3062436,4.932765 -1.8968903,9.518867 -1.7515511,13.6 0.1316995,3.698128 0.3695367,5.174477 1.7527482,10.88 0.8314173,3.429462 2.3183792,6.010413 4.8252259,8.375245 3.316775,3.128877 5.518322,3.717584 9.390253,2.511011 z M 21.44701,78.783382 C 18.404972,75.68855 16.96,71.892922 16.96,66.996979 c 0,-3.899091 1.258516,-7.459133 3.052409,-8.634537 1.806041,-1.183364 2.408174,0.577747 0.65479,1.915116 -1.591653,1.214013 -2.233098,3.374304 -2.245478,7.562442 -0.01314,4.446275 0.676242,6.241405 3.578309,9.31775 1.847697,1.958656 2.052705,2.29985 1.760229,2.929546 -0.318583,0.685904 -0.405573,0.636867 -2.313249,-1.303914 z m -6.447713,-50.52217 c -1.197438,-0.743157 -1.900712,-2.100664 -2.102834,-4.059037 -0.193705,-1.87682 0.242106,-3.081917 1.114796,-3.082611 0.465865,-3.84e-4 0.532015,0.268386 0.437995,1.779497 -0.17355,2.789326 0.820002,4.300939 2.826918,4.300939 0.803425,0 1.112791,0.554934 0.632194,1.134018 -0.50846,0.612657 -1.859055,0.578855 -2.909069,-0.07281 z M 8.6591261,13.277196 C 9.6166067,12.483653 10.800004,11.48857 11.288898,11.065899 L 12.177796,10.297405 10.534295,8.1260384 C 9.6303686,6.9317869 8.5896701,5.3348707 8.2216314,4.577336 7.8535926,3.8198013 7.3651642,3.2 7.1362349,3.2 6.6220131,3.2 6.6220355,3.20128 7.1594445,4.5209203 7.4011411,5.1144141 7.6853232,6.176 7.7909619,6.88 L 7.983032,8.16 7.3752483,6.88 C 7.0409674,6.176 6.7545802,5.24 6.7388323,4.8 6.6990256,3.6877898 6.1989306,2.9530695 5.772175,3.379825 5.3101706,3.8418294 4.8880435,9.5502742 5.2031984,11.074129 5.739001,13.664873 6.117616,14.72 6.5114602,14.72 c 0.2237356,0 1.1901852,-0.649262 2.1476659,-1.442804 z"
         id="path2065" />
      <path
         style="fill:#020202;stroke-width:0.32"
         d="m 15.526022,129.16397 c -0.581014,-0.42484 -0.580531,-0.46301 0.01884,-1.48879 0.338326,-0.57901 1.119139,-1.31425 1.735139,-1.63385 0.616,-0.3196 1.595179,-0.98164 2.175954,-1.47121 0.949004,-0.79997 1.025683,-0.98735 0.757077,-1.85012 -0.164383,-0.528 -0.473667,-1.968 -0.687299,-3.2 -0.213632,-1.232 -0.509007,-2.744 -0.656389,-3.36 -0.952315,-3.98031 -1.391226,-10.19492 -1.001016,-14.17356 0.276424,-2.818469 0.193948,-2.973787 -1.743647,-3.283621 -1.194965,-0.191081 -1.357599,-0.120931 -2.356064,1.016259 -1.381624,1.573582 -2.679678,4.527462 -3.146795,7.160922 -0.7185522,4.05097 -1.1572949,9.48849 -1.0666021,13.21884 0.062843,2.58482 -0.029059,3.92456 -0.290856,4.24 C 9.0174026,124.63641 8.2674266,124.8 7.1501798,124.8 c -1.2231561,0 -2.2058044,0.24037 -3.347262,0.81879 -2.1680693,1.09864 -2.97408471,0.96432 -3.09851342,-0.51637 -0.12143062,-1.44502 0.49787052,-1.78131 3.76861642,-2.04646 1.3161613,-0.1067 2.5401613,-0.34111 2.72,-0.52091 0.1798384,-0.17979 0.3415162,-1.37588 0.3592838,-2.65797 0.035995,-2.59732 0.6518967,-8.0544 1.1099168,-9.83421 C 8.8259997,109.40645 8.96,108.55268 8.96,108.14559 c 0,-0.40708 0.1630179,-1.25437 0.3622624,-1.88287 1.1111986,-3.50516 1.7253936,-5.12072 2.4025926,-6.319702 0.957473,-1.695204 0.943776,-2.31353 -0.07261,-3.278 C 9.0017331,94.149901 6.4673309,90.385242 5.2533171,87.159904 4.2968282,84.618746 3.2247008,79.269981 3.0163824,76 2.8453702,73.315616 3.5265971,66.824435 4.393281,62.88 4.6639798,61.648 4.9959382,60.064 5.1309664,59.36 5.2659946,58.656 5.6206864,57.072 5.9191712,55.84 6.2176557,54.608 6.5777827,52.88 6.7194531,52 7.1489088,49.332397 8.2802624,44.512176 8.6305341,43.857686 8.8117402,43.519101 8.96,42.296608 8.96,41.141037 8.96,38.950918 8.3355766,37.76 7.1872518,37.76 6.2217686,37.76 4.2185408,36.484714 2.9878895,35.086621 1.2039335,33.059939 0.52275373,30.724523 0.95051245,28.101499 1.4052292,25.313167 2.0430528,23.343521 3.4106838,20.504309 4.6724925,17.884784 4.9479651,15.965385 4.4234077,13.447994 4.2592918,12.66039 4.1234736,10.57239 4.1215894,8.8079939 4.1185741,5.9843469 4.2629952,4.774352 4.9758374,1.6509052 5.083264,1.1801955 5.3115056,0.96501472 5.5900029,1.0718842 5.8337654,1.1654247 6.2161597,1.0215141 6.4397677,0.75208294 6.8016157,0.31608263 6.8956646,0.32697261 7.2949418,0.85110403 7.5416794,1.1749968 8.0153853,2.0595748 8.3476214,2.816833 c 1.4485741,3.3017017 5.5647846,7.933467 7.9387396,8.933065 1.258343,0.529849 5.037604,3.508513 6.813461,5.370102 0.906819,0.950596 1.426817,1.943056 2.020615,3.856513 1.277574,4.116857 0.983818,6.901861 -1.078349,10.223487 -0.437065,0.704 -0.899939,1.852486 -1.028609,2.552192 -0.324291,1.763485 0.384809,5.174266 1.415008,6.806205 0.468332,0.741888 0.851513,1.425241 0.851513,1.518563 0,0.09332 0.5753,1.334698 1.278444,2.758608 1.375062,2.784592 1.564507,3.377574 3.720156,11.644432 3.525557,13.520429 3.65044,25.568422 0.327999,31.643526 -0.588492,1.076061 -1.459076,2.66192 -1.934631,3.524135 -0.629711,1.141709 -0.768824,1.663395 -0.511988,1.92 0.205638,0.205453 1.713264,0.366339 3.616339,0.385923 3.888219,0.04001 8.108519,0.597482 9.875483,1.30448 1.73879,0.695725 2.033622,1.578563 1.218112,3.647523 -1.287133,3.265483 -2.545383,5.671213 -3.789127,7.244663 -1.250326,1.58178 -1.298934,1.60781 -2.569014,1.37556 -0.712013,-0.1302 -1.766442,-0.58841 -2.343171,-1.01824 C 33.591869,106.07774 32.112,105.10285 30.88,104.34115 29.648,103.57945 27.325158,101.89509 25.71813,100.59812 24.111101,99.301155 22.553635,98.24 22.257092,98.24 c -1.834506,0 -2.592087,1.605773 -2.88668,6.11863 -0.209003,3.20172 0.07877,5.98019 1.122847,10.84137 0.170105,0.792 0.451821,2.24295 0.626035,3.22434 0.280586,1.58059 1.096329,4.29809 1.732269,5.77073 0.275556,0.6381 -2.272417,3.01506 -4.753858,4.4348 -1.969688,1.12694 -1.807107,1.09318 -2.571683,0.5341 z m 22.52424,-24.41116 c 0.882992,-0.61847 2.415783,-3.87245 2.699325,-5.730445 C 41.03856,97.128819 40.462022,96.497056 38.014659,96.025453 36.906598,95.81193 35.38064,95.48208 34.623645,95.292448 33.86665,95.102819 31.82443,94.933024 30.085381,94.915123 c -3.450565,-0.03551 -4.419647,0.345456 -5.436517,2.137216 -0.443119,0.780791 -0.412569,0.902637 0.513717,2.048909 1.722151,2.131152 8.974913,6.135892 11.166216,6.165612 0.532841,0.007 1.307501,-0.2241 1.721465,-0.51405 z M 20.50192,96.445021 c 2.046706,-0.606419 5.279333,-3.089258 6.82319,-5.240589 1.417085,-1.974675 2.636409,-4.733587 3.455325,-7.818214 0.579596,-2.183178 0.687396,-3.483866 0.691729,-8.346218 0.0031,-3.501587 -0.143553,-6.276102 -0.374082,-7.076298 -0.208568,-0.723964 -0.455761,-2.085276 -0.549317,-3.025142 -0.617178,-6.200147 -2.68711,-12.705978 -7.27281,-22.85856 -2.250521,-4.982576 -2.553621,-7.334912 -1.31943,-10.24 2.430528,-5.72107 2.414895,-5.666912 2.20424,-7.636021 -0.413956,-3.869493 -2.654042,-7.346258 -6.217612,-9.650154 -3.182573,-2.057578 -4.16008,-2.39726 -5.536712,-1.923996 -1.509163,0.518825 -2.4208538,1.266977 -4.1177178,3.379079 -4.0586982,5.051899 -4.918737,6.45817 -5.6699562,9.271092 -0.8027601,3.005915 -0.8433387,5.50391 -0.112452,6.922483 1.148365,2.228851 3.5532636,4.044714 6.7165055,5.071421 0.9365515,0.303981 1.7872115,0.772611 1.8903565,1.041402 0.103145,0.26879 0.01056,1.441808 -0.205755,2.606704 C 10.691112,42.086902 10.36654,43.832 10.186149,44.8 10.005759,45.768 9.6681453,47.064 9.4358963,47.68 8.4858944,50.199715 7.9627926,52.334554 6.6915485,58.88 6.5035456,59.848 6.220839,61.072 6.063312,61.6 5.9057846,62.128 5.4844208,64.144 5.1269478,66.08 4.1689418,71.268362 4.2589997,76.872842 5.3763366,81.6 c 0.1872016,0.792 0.5654135,2.397027 0.8404714,3.56673 0.8351798,3.55166 2.2074208,6.188697 4.319481,8.300758 3.250865,3.250867 6.134878,4.112554 9.965631,2.977533 z M 22.481484,79.829056 C 21.547385,79.174787 19.167919,75.987197 18.461705,74.444061 17.725144,72.834618 16.96,69.162931 16.96,67.23785 c 0,-3.908631 1.463776,-7.940013 3.21106,-8.843568 1.844427,-0.953792 2.176474,0.255555 0.491227,1.789094 -1.51517,1.378774 -2.103528,3.069376 -2.319088,6.663728 -0.254803,4.248698 0.49485,6.763482 2.87401,9.641162 0.942059,1.139452 1.945016,2.262262 2.228792,2.495129 0.283776,0.232871 0.43711,0.628871 0.340741,0.88 -0.222289,0.579277 -0.437272,0.573623 -1.305258,-0.03434 z M 16.32,28.379492 C 16.32,27.883653 13.964925,25.6 13.453578,25.6 12.934927,25.6 12.71688,23.461465 13.113116,22.260857 13.320201,21.633386 13.69448,21.12 13.944849,21.12 c 0.352127,0 0.442424,0.464248 0.398732,2.050014 -0.06978,2.532749 0.483748,3.520435 2.200501,3.926438 1.415388,0.334731 1.756498,1.466773 0.495918,1.645804 -0.46327,0.06579 -0.72,-0.06356 -0.72,-0.362764 z M 8.3372266,13.578126 c 0.6065254,-0.62803 1.641206,-1.445666 2.2992904,-1.816967 1.756101,-0.99082 1.797689,-1.592006 0.232839,-3.3658614 C 10.13414,7.5618838 9.1189875,6.0624899 8.6134611,5.063311 7.619648,3.0990286 7.2085318,2.6684245 6.8621114,3.2289443 6.7046186,3.4837731 6.5624166,3.4627955 6.3733251,3.156839 5.8646653,2.3338103 5.488591,3.335929 5.1480496,6.4218086 4.8721725,8.9217232 4.9002672,9.9157504 5.3011402,11.838348 c 0.2700364,1.295102 0.5642476,2.473288 0.6538028,2.618191 0.3526167,0.570545 1.3315351,0.209592 2.3822836,-0.878413 z M 7.2513066,6.48 c -0.3958717,-1.4601878 -0.524928,-2.4540285 -0.2597124,-2 0.3155482,0.5401936 0.7431552,2.56 0.54197,2.56 -0.07174,0 -0.1987559,-0.252 -0.2822576,-0.56 z"
         id="path2063" />
    </g>
  </g>
</svg>
