<?xml version="1.0" encoding="UTF-8" standalone="no"?>
<!-- Created with Inkscape (http://www.inkscape.org/) -->

<svg
   version="1.1"
   id="svg824"
   viewBox="0 0 75.519997 224"
   sodipodi:docname="Vogel-ink.svg"
   inkscape:version="1.1.2 (0a00cf5339, 2022-02-04, custom)"
   xmlns:inkscape="http://www.inkscape.org/namespaces/inkscape"
   xmlns:sodipodi="http://sodipodi.sourceforge.net/DTD/sodipodi-0.dtd"
   xmlns="http://www.w3.org/2000/svg"
   xmlns:svg="http://www.w3.org/2000/svg">
  <defs
     id="defs828" />
  <sodipodi:namedview
     id="namedview826"
     pagecolor="#ffffff"
     bordercolor="#666666"
     borderopacity="1.0"
     inkscape:pageshadow="2"
     inkscape:pageopacity="0.0"
     inkscape:pagecheckerboard="0"
     showgrid="false"
     inkscape:zoom="8.1071429"
     inkscape:cx="37.806167"
     inkscape:cy="112"
     inkscape:window-width="3840"
     inkscape:window-height="2054"
     inkscape:window-x="-11"
     inkscape:window-y="-11"
     inkscape:window-maximized="1"
     inkscape:current-layer="g830" />
  <g
     inkscape:groupmode="layer"
     inkscape:label="Image"
     id="g830">
    <path
       style="fill:#191209;stroke:none;stroke-width:0.32"
       d="M 10.56,1.92 9.9199996,1.28 c -3.1441919,1.6924992 -2.9550079,9.305632 -3.1713599,12.48 -0.364224,5.343872 2.048416,11.057472 0.998752,16.32 -1.7475839,8.7616 -9.2104476,16.3024 -5.704675,25.92 1.2039392,3.30272 3.8649631,6.456 6.9172829,8.1952 2.6594884,1.51488 5.8404154,1.1904 6.4930874,4.9248 0.950016,5.43584 -2.565056,12.5776 -3.749151,17.8656 -2.6376644,11.77952 -6.0393922,24.38624 -6.5713282,36.5344 -0.436768,9.9744 0.516928,21.74272 5.3202242,30.72 1.842912,3.44448 4.033567,6.64928 6.599775,9.6 1.219808,1.40256 3.76464,3.19936 4.12368,5.12 0.210176,1.12448 -0.832672,2.27136 -1.32368,3.2 -1.117024,2.11232 -2.003648,4.42624 -2.65952,6.72 -1.971264,6.89376 -3.304928,13.98752 -4.018528,21.12 -0.26368,2.63552 0.6984,8.2864 -0.703455,10.47456 -2.276704,3.5536 -10.2977921,-0.53312 -11.64665923,4.25024 -1.77046073,6.27808 7.63741093,0.95104 9.68121923,0.65376 2.228767,-0.32416 5.013503,0.7312 6.131359,-1.94336 1.300736,-3.11232 -0.162336,-8.48352 -0.234304,-11.8352 -0.06346,-2.95488 0.84928,-6.02528 1.14272,-8.96 0.478976,-4.7904 0.681504,-9.54208 2.502208,-14.08 1.530048,-3.81344 5.185152,-10.95744 10.250368,-7.35616 1.224224,0.8704 0.364864,2.66528 0.198048,3.83616 -0.48496,3.4032 -0.112384,7.12384 -0.09581,10.56 0.02758,5.71904 0.926624,12.09504 2.462464,17.6 0.58912,2.11104 2.45984,7.94624 1.65504,9.92 -1.32288,3.2448 -5.731328,3.38496 -7.602944,6.09376 -1.11936,1.62016 -1.34944,4.17312 1.249888,4.12608 3.102304,-0.0563 7.151456,-3.70848 9.274976,-5.75232 0.863039,-0.83072 2.153919,-1.85888 2.042559,-3.18752 -0.19456,-2.32192 -1.69568,-4.74944 -2.225279,-7.04 -1.99392,-8.62656 -4.55712,-17.99264 -3.71136,-26.88 0.29984,-3.14848 -0.35232,-7.43968 2.32928,-9.7952 2.509759,-2.20448 4.309119,-0.21184 6.365119,1.5008 4.88352,4.06848 10.19808,7.24064 15.36,10.8992 2.00992,1.42464 5.960639,4.32064 8.352319,2.10592 2.03456,-1.88352 3.51264,-4.53248 4.80416,-6.95072 1.53184,-2.86784 5.15008,-8.87008 3.75616,-12.12992 -0.58944,-1.37792 -2.14944,-1.99584 -3.47264,-2.46848 -3.46976,-1.23904 -8.529599,-1.9792 -12.214399,-2.01088 -2.62464,-0.0227 -5.33024,0.32544 -7.94528,0.18112 -0.83808,-0.0464 -2.03808,-0.19104 -2.22592,-1.208 -0.18176,-0.98304 0.82176,-2.32512 1.25472,-3.16384 1.36096,-2.63616 3.21152,-4.8688 4.272,-7.68 2.7696,-7.34304 3.13632,-15.5776 3.09856,-23.36 -0.01888,-3.9568 -1.02048,-7.92224 -1.50816,-11.84 -1.3248,-10.64832 -3.65152,-21.92416 -7.44032,-32 -1.46176,-3.888 -3.36832,-7.84384 -5.29536,-11.52 -0.96768,-1.8464 -2.54432,-3.6544 -2.89056,-5.76 -0.40096,-2.43744 -0.94016,-5.57728 -0.232,-7.99968 0.95424,-3.264 3.5824,-5.87904 4.45472,-9.28032 1.06144,-4.14016 0.32736,-7.79456 -0.69248,-11.84 C 41.382078,27.061344 32.447679,23.520864 25.628639,18.550592 20.171775,14.573248 14.372287,7.208576 12.48,0.64 l -1.92,1.28 m 0.32,3.52 c 0.554304,2.941984 0.921024,7.134464 3.199999,9.28 L 12.16,5.44 h 0.639999 c 1.487616,2.91728 2.901024,5.760928 4.960992,8.332352 0.838048,1.046112 2.63184,2.368064 2.624448,3.827648 -0.01059,2.081248 -5.706752,5.38448 -7.26544,6.6736 -0.655967,0.542528 -1.547327,1.181856 -2.335295,0.487136 C 9.7071996,23.810816 9.3666236,21.500704 9.1491196,20.16 8.3887997,15.473184 8.7871357,10.0384 9.9199996,5.44 H 10.88 m 12.479999,16.132864 c 2.149408,-0.01936 3.980928,1.667456 5.76,2.647392 6.97888,3.843968 11.738559,10.254304 12.424319,18.339744 0.42464,5.00512 -3.2576,9.27776 -4.758719,13.76 -0.81056,2.42048 -0.65568,6.48608 -0.08768,8.96 0.75808,3.30336 2.806719,6.528 4.211199,9.6 2.81248,6.15136 5.4848,12.43488 7.5648,18.88 3.5168,10.8976 5.7712,23.74304 5.8752,35.2 0.03104,3.4304 -0.73088,6.82528 -0.89664,10.24 -0.59776,12.29408 -10.04032,27.88032 -23.692479,27.81472 C 17.412287,166.95488 11.79664,152.33088 9.9412476,142.4 8.7128957,135.8256 7.5806077,129.61664 7.7629757,122.88 7.9588797,115.6432 10.421888,108.4336 11.99088,101.44 12.863199,97.55168 13.305791,93.52128 14.217023,89.6 15.917375,82.28288 19.384831,75.18016 19.446911,67.52 19.472447,64.37024 14.705407,63.79328 12.48,62.75648 7.9302717,60.63712 3.1148991,56.39392 3.2716159,50.88 3.5208959,42.10848 8.7344637,34.69248 14.017023,28.16 c 2.349632,-2.905632 5.21232,-6.549984 9.342976,-6.587136 m 0.08643,14.656576 c -1.3824,0.63584 -1.323904,2.84512 -1.378528,4.09056 -0.156992,3.57984 3.003232,12.66176 8.221984,9.19072 0.658272,-0.43776 1.301824,-1.4752 0.735296,-2.23328 C 30.211455,46.1888 27.743807,46.42848 26.593567,45.368 23.874335,42.86176 25.661855,40.16192 25.123935,37.16256 24.986079,36.39392 24.197951,35.88384 23.446431,36.22944 M 40.639998,139.2 c 1.69536,-3.04544 -1.21792,-4.61216 -3.171199,-6.72 -2.35008,-2.53632 -3.91104,-5.3488 -4.89312,-8.64 -1.541568,-5.16736 -1.301728,-10.8992 0.5584,-16 0.83424,-2.288 5.214719,-4.78048 4.11264,-7.31136 -0.60288,-1.38464 -2.12992,-0.57728 -2.99392,0.0477 -1.98528,1.43552 -3.056416,3.36992 -3.790592,5.66368 -3.364128,10.51008 -1.172416,27.69824 10.177791,32.96 m 10.24,24.50272 c 4.52,0 9.38752,0.8736 13.759999,1.9712 1.52928,0.38368 3.4848,0.3136 4.66112,1.51808 1.096,1.1216 0.79808,2.9392 0.52032,4.328 -0.64288,3.21504 -2.67168,9.47008 -6.64576,9.7488 -2.080319,0.14624 -4.063679,-0.9344 -5.895679,-1.74496 -4.50944,-1.99552 -10.14016,-4.43328 -13.33472,-8.32384 -4.10208,-4.99616 2.8128,-7.49728 6.93472,-7.49728 z"
       id="path986" />
  </g>
</svg>
