<?xml version="1.0" encoding="utf-8"?>
<!-- Generator: Adobe Illustrator 15.1.0, SVG Export Plug-In . SVG Version: 6.00 Build 0)  -->
<!DOCTYPE svg PUBLIC "-//W3C//DTD SVG 1.1//EN" "http://www.w3.org/Graphics/SVG/1.1/DTD/svg11.dtd" [
	<!ENTITY ns_flows "http://ns.adobe.com/Flows/1.0/">
	<!ENTITY ns_extend "http://ns.adobe.com/Extensibility/1.0/">
	<!ENTITY ns_ai "http://ns.adobe.com/AdobeIllustrator/10.0/">
	<!ENTITY ns_graphs "http://ns.adobe.com/Graphs/1.0/">
]>
<svg version="1.1" id="Ebene_1" xmlns:x="&ns_extend;" xmlns:i="&ns_ai;" xmlns:graph="&ns_graphs;"
	 xmlns="http://www.w3.org/2000/svg" xmlns:xlink="http://www.w3.org/1999/xlink" xmlns:a="http://ns.adobe.com/AdobeSVGViewerExtensions/3.0/"
	 x="0px" y="0px" viewBox="0 0 1500 1499" enable-background="new 0 0 1500 1499"
	 xml:space="preserve">
<g>
	<path fill="#FFFFFF" d="M353.4,263.2c0.5,18.199,2.1,19.399,23.399,17.5c7-0.601,12.801-1.2,13-1.301c0.301-0.199-2-25-5.8-61.399
		c-1-10.2-2.1-24.4-2.5-31.7c-0.5-12.7-0.5-13.2,1.7-15.2c1.2-1.2,3.4-2.1,4.9-2.1c2.6,0,2.899,0.6,6.199,10.2
		c1.9,5.699,5.7,15.5,8.5,21.8c2.7,6.3,7.7,18,11,26c23.001,55,22.001,52.899,25.4,54.6c3.5,1.8,13.601,1.8,23.4-0.1
		C474,279.3,474,279.2,468.5,267.4c-2.6-5.399-7.1-15.3-10-21.899c-2.899-6.601-8-17.7-11.399-24.7c-3.3-7-6.101-12.9-6.101-13.2
		c0-0.6-0.8-2.399-14.5-32.1c-5.3-11.601-9.899-21.7-10.1-22.5c-0.5-1.601,1.8-5,10.4-15.2c13.8-16.5,21.6-38.6,21.699-61.8
		c0-12.4,0-12.601-3.399-18.801C438.6,45.3,424.7,35.5,408.9,31.6c-9-2.2-24.5-2-33,0.4c-15.5,4.5-20.5,7.399-23.9,14
		c-1.7,3.3-1.8,7.1-1.5,58C350.8,150.3,352,218.8,353.4,263.2z"/>
	<path fill="#FFFFFF" d="M669.5,485.999c-0.899,9.601-2.5,25.9-3.6,36.101c-2.2,20.899-1.9,23.1,3.4,25.399
		c1.8,0.7,6.699,1.801,11,2.4c15.1,2.1,19.8,1.1,21.1-4.6c0.3-1.5,1.5-14.101,2.5-27.801c1.1-13.8,2.7-32.699,3.5-42
		c2.9-32.6,4.6-59.199,5.6-89.8c0.7-22.1,1.4-31.8,2.4-34.2c1.6-3.6,0.5-3.3,18.4-5.1c9.6-0.9,12-2,13.199-6.2c0.5-2,1-6.7,1-10.399
		c0-5.9-0.3-6.9-2.199-8.2c-3.5-2.2-20.601-5.3-36.301-6.601c-7.699-0.6-17.1-1.6-21-2.1c-3.8-0.6-12.199-1.2-18.699-1.4
		L658.2,311.3l-1.5,6.1c-0.899,3.3-2.1,9.9-2.7,14.6c-1.5,11.301-1.3,11.5,15,12.2c6.601,0.3,12.301,0.8,12.7,1.101
		c1,1-1.5,32.3-6.2,79.199C673.1,448.699,670.4,476.4,669.5,485.999z"/>
	<path fill="#FFFFFF" d="M599.1,280.1c6.8,2.101,13.7,4,15.399,4.101c2.7,0.3,3.101,0,3.7-3.2c1.2-5.4,11.8-96.7,11.8-101
		c0-1,0.801-2.7,1.801-3.9c1.5-1.8,2.199-2,5.199-1.1c4.4,1.2,5.101,2.3,10.7,17.8c9.8,27.3,11.7,33.3,17.9,58.1
		c3.6,14,6.899,26,7.399,26.5c1.101,1.101,29.801-2.8,31.301-4.3c1.199-1.2-0.5-11.1-6.801-39.6c-2.399-11-6-27.2-8-36.101
		c-1.899-8.899-7.399-30.199-12.1-47.5c-4.7-17.3-10.6-40-13-50.399c-8.3-35.4-13.3-51.2-17.7-55.301c-1.2-1.199-3.8-2.8-5.7-3.6
		c-3.899-1.6-15.699-2.9-18-1.9c-2.399,1-3.8,3.5-4.5,8.301c-0.399,2.5-3.1,13.899-6.1,25.5c-6.4,24.899-8.4,34.7-16.9,81
		c-11.3,62-17.5,106.1-16.1,114.1C580.4,272.8,585.1,275.8,599.1,280.1z"/>
	<path fill="#FFFFFF" d="M223.1,237.7c11.3,19.6,21.5,30.3,35.8,37.699c14.7,7.5,23.3,9.101,35.2,6.2c15.6-3.6,26.199-16.2,29.6-35
		c2.1-11.5,1-58.2-1.4-60.899c-1.8-1.9-10.6-4.9-23.1-7.7l-8.4-1.8l0.601,3.1c3.3,18.6,0,39.6-7.4,46.9c-3.2,3.199-4.399,3.8-8,3.8
		c-13.399,0-20.899-8-27.899-30C239,171.2,237.5,157.3,240.5,128.5C243.1,104.3,248,90.9,258,80.8c5.5-5.5,6.101-5.8,10.7-5.8
		c11.7,0,15.3,6.5,18.5,33c1.2,10.2,2.7,18.8,3.2,19.2c1.8,1.3,4.6,0.899,16.8-2.301c10.3-2.8,11.9-3.5,12.4-5.5
		c1-3.8-1.5-34.6-3.601-45.5c-2.399-12.7-5.5-19.5-12.1-26.399c-6.3-6.7-9.101-8.5-20-12.801C279.3,32.8,273.5,31.1,271,30.8
		c-6.3-0.7-15.5,0.8-20.899,3.399C240.1,38.9,225.6,58.1,217,78c-15.3,35.2-18.8,73.899-10.399,114.8
		C210.7,212.8,214,221.9,223.1,237.7z"/>
	<path fill="#FFFFFF" d="M492.1,276.9c14.8,3.2,70.1,1.801,73.3-1.8c1.2-1.399,1.2-2.8,0-10.1c-2.2-13.4-3.5-16.9-7.6-20.3
		c-3.4-2.801-4.4-3-16.5-3.801c-22.101-1.5-20.9-1.1-23.4-7.699c-4.5-12-9.4-43.101-8.7-55.601l0.3-6l7.5-1.8
		c4.101-1,11.7-3.2,16.801-5c11.8-4,11.899-4.3,9.199-18c-3.8-18.6-5.1-19.9-20.3-20.7l-10.1-0.6l-0.8-3.5
		c-1.2-5.7-2.101-36-1.4-43.2c0.7-6.3,0.9-6.7,3.9-7.8c1.8-0.601,11.399-1.4,21.399-1.7s18.7-0.9,19.3-1.3c1.4-0.9,3.9-14.7,4-21.7
		c0-4.9-0.199-5.4-3.1-6.8c-1.9-1-7.8-1.9-16.2-2.5c-30.899-2.2-51.1-2-53.8,0.699c-1.4,1.4-2.7,13.801-3.9,37.801
		c-0.6,12.1-1.8,33.2-2.699,47c-2.301,35.3-2.5,141.6-0.301,146C481,272.4,486,275.6,492.1,276.9z"/>
	<path fill="#FFFFFF" d="M566.9,1059.4c-14-2.8-42.1-1.3-82.4,4.5c-16.399,2.4-19.399,2.5-20.1,0.601c-0.8-2,0.6-10.7,4.1-25
		c5.301-21.601,8.5-37.7,8.5-42.5c0-5.9-3.199-14.9-6.3-17.7c-1.2-1.2-4.1-3-6.399-4.2c-4.5-2.2-12.9-2.8-17.101-1.1
		c-4.399,1.8-11.7,10.399-15.399,18.199c-2,4.2-5.9,14.101-8.601,22c-9.5,27.2-21.5,56-25.3,60.601c-1.5,1.899-5.101,3.2-17.601,6.3
		c-17.6,4.3-39.199,12.1-47.899,17.3c-10.4,6.3-16.4,13.5-16.4,19.8c0,3.101,3.3,8.301,6.5,10.4c2.5,1.6,3,1.6,7.9,0.1
		c4.1-1.3,9.3-1.699,23.3-1.699c9.9,0,18.2,0.3,18.6,0.6c0.9,0.9-2.399,9.5-10.6,27.4c-6.9,15.199-20.8,47.399-33.7,78
		c-2.899,6.899-6.5,15.399-8.2,18.899c-1.6,3.601-4.5,10.2-6.399,14.8c-7.101,17.4-25,51.301-29.4,56.101c-4.3,4.6-5.5,2.6-8.5-14.3
		c-3.3-18.2-3-63.4,0.601-118.5c1.699-27.4,6.8-70.601,10.399-90c1.3-6.9,4.2-22,6.4-33.5c7.8-40.7,8.399-47.2,5.1-54
		c-3.6-7.601-7.399-10.5-13.7-10.5c-5.899,0-12.199,3.699-17.5,10.399c-15.899,19.9-40,86.4-50.699,140.101
		c-13.4,67.1-13.9,125.1-1.601,168.3c8.2,28.7,24,51.899,41.101,60.3c6.3,3.1,7.6,3.4,16.399,3.4c11.8,0,17.5-2.301,26.9-11.101
		c12.1-11.2,20.5-24.8,34.6-56c0.8-1.6,2.8-6.1,4.601-10c1.699-3.8,4.8-11.2,6.899-16.399c10.4-26.101,14.3-34.7,16.601-37l2.5-2.5
		l-0.801,20c-1,26.1-0.8,55.6,0.601,69.199c2.2,20.4,10.5,53.301,15.399,60.801c2.4,3.6,8.301,8.399,11.4,9.1
		c5.2,1.4,12.3-2.8,16.5-9.6c4.7-7.9,11-38.101,17.8-86.5c2.7-19.801,5.7-40.7,6.5-46.5c0.801-5.801,2.601-20.9,4-33.5
		c1.4-12.7,3.2-27.5,3.9-33c0.8-5.5,2.4-17.2,3.6-26c3.101-23.4,7-45.7,8.601-48.101c1.3-2.2,1.6-2.2,47.6-2.7
		c45.3-0.6,50.5-0.899,65.8-4.199c15.2-3.2,26.7-11.2,31.601-21.801c3.1-7,3-13-0.5-19.8
		C590.801,1068.699,581.301,1062.3,566.9,1059.4z"/>
	<path fill="#FFFFFF" d="M90.3,313.1c-5,0.1-23.6,2.3-31.3,3.7l-4.5,0.8l-1.2,21.899c-0.6,12.101-1.699,44.2-2.3,71.4
		c-0.6,27.2-1.2,49.7-1.399,50c-0.2,0.3-1,13.2-1.601,28.5c-1.399,31.8-0.6,42.6,3.5,47.4c2.2,2.5,2.7,2.6,14.7,3l12.5,0.399
		l0.6-7.3c0.4-4.1,1.101-20.9,1.7-37.4c1.3-40.5,1.601-45.399,5.5-87c2.7-28.5,3.4-36.699,4-51.699c0.3-8.101,1-17.2,1.5-20.301
		c0.601-3,1.4-8.1,2-11.3c0.5-3.1,1-7.2,1-9C95,312.999,95,312.999,90.3,313.1z"/>
	<path fill="#FFFFFF" d="M276.7,954.699c6.2,3.101,7.9,3.5,12.5,3.101c6.7-0.601,17.7-5.7,23.6-11.2
		c10.801-9.8,11.4-24.3,1.601-37.1c-3.2-4.2-9.101-7.9-16-10c-5.9-1.801-7.8-1.801-12.4-0.101C275.9,903,267.5,911.699,264.1,922
		c-3.101,9.399-2.5,16.1,2.1,23.699C269,950.4,270.5,951.6,276.7,954.699z"/>
	<path fill="#FFFFFF" d="M218.4,488.999c-0.101-24.1-0.101-24.3-14.601-56C200.9,426.6,184,400.8,175.7,389.9
		c-9.2-11.9-19.7-37.4-19.7-47.6c0-5.5,1.7-10.801,4.601-14.301c3.699-4.3,9.5-4.3,14.199,0.101c5.101,4.8,5.601,7,5.7,22.899v14.5
		h10.3c12.301,0,12.601-0.199,16.2-11.6c2-6.4,2.2-8.6,1.7-18.1c-0.4-8.601-1-11.601-2.7-14.2c-3.3-5.4-9.7-10.601-17.6-14.2
		c-6-2.8-8.8-3.5-16.101-3.9c-21.399-1.1-35.8,6.601-44.399,23.7c-5.101,10.2-6.9,18-6.9,30.8c0,20.7,8.101,41.5,24.8,63.301
		c5.301,7.1,11.801,15.6,14.4,19c6.7,8.8,13.5,22.3,15.8,31.3c1.601,6,2,11,2,22.8c0,13.8-0.2,15.6-2.2,19.6
		c-4.899,9.4-15.5,13.601-23.8,9.301c-4.399-2.301-5.8-6.7-5.899-18.301C146,489.8,149.3,477.4,156,467.9c1.2-1.6,1.8-3.4,1.4-4
		c-1.101-1.8-6.3-3.5-18.601-6c-15.3-3-15.199-3.1-21.199,10.6C107.1,492.4,106,512.8,114.2,529.3c6.7,13.5,23.9,22,47.3,23.399
		c11.3,0.601,17.5-0.7,26-5.6c8.101-4.601,19.5-16,23.7-23.4C217.9,511.499,218.5,508.499,218.4,488.999z"/>
	<path fill="#FFFFFF" d="M1025.4,306.199c-1.6,2.5-1.6,42.601,0,103.8c0.9,34.4,1.9,63.601,2.1,65c0.301,1.4,1.2,13.2,2,26.301
		c0.9,13.1,2,24.899,2.5,26.199c1.7,4.601,5.101,5.7,19.801,6.601c7.5,0.5,15,0.6,16.6,0.3l2.9-0.6l-0.601-8.2
		c-0.3-4.4-1.3-13.101-2.1-19.101c-1.5-11.1-2.601-23.6-4.601-53.5c-0.6-9.1-1.6-21.3-2.1-27.3c-1.8-20.2-3.9-69.2-4-91.899
		c0-20.5-0.2-22.7-1.7-23.2c-0.899-0.3-5.5-1.4-10.2-2.5C1033.6,305.3,1026.4,304.6,1025.4,306.199z"/>
	<path fill="#FFFFFF" d="M746,635.4l-2-5.8l2-6.3c2.5-7.7,2.5-9.7,0-15.2c-3.899-8.5-13.1-14.101-23.6-14.101
		c-7.2,0-23.1,2.801-39.7,7.101c-17.399,4.399-22.399,6-38.5,12.3c-7.899,3.1-15.3,5.6-16.399,5.6c-1.9,0-2-0.399-1.301-12.3
		c0.601-10.1,0.301-13.8-1.3-21.7c-3.2-15.5-8-25.399-19.2-39.5c-0.5-0.6,0.7-0.899,3.4-0.699c3.1,0.3,4.6-0.101,5.9-1.601
		c2.699-2.899,4.5-16.3,5.699-41.6c0.601-12.2,1.5-27.5,2.101-34.101c1-12,4.2-56,5.899-81.5c0.5-7.399,1.601-17.8,2.4-23
		c0.8-5.199,1.7-13.399,2.1-18.1c0.4-4.7,1.5-12.8,2.5-18c1.9-9.3,1.9-9.4-0.1-11.1c-2.6-2.2-7.1-3.5-19.1-5.301
		c-11.5-1.8-14.101-1.1-15.601,3.7c-3.8,12-7.899,50.5-9.8,91.2c-0.4,8.8-1,14.2-1.5,13.4c-1.2-2.101-13.6-31.9-16.5-39.601
		c-1.3-3.5-5-12.2-8.2-19.5c-3.3-7.3-9-20.3-12.8-28.899c-3.8-8.7-7.5-16-8.3-16.301c-0.8-0.3-9.5-0.899-19.3-1.199l-17.9-0.601
		l0.5,9.9c0.3,5.399,0.8,14.7,1.1,20.5c0.301,5.8,0.5,31,0.5,56c0,40.7-0.399,56.8-2.6,95.899l-0.7,11.5l-16.8,0.101
		c-9.3,0-16.9,0-16.9-0.2c0-0.1,0.9-2.4,2-5c2.7-6.1,8.5-26.4,9.9-34c2.7-15.2,3.2-29.9,1.6-52.1c-0.8-12-2-24.5-2.5-27.801
		c-0.5-3.3-1.5-9.8-2-14.5c-2.699-22.199-9.699-37.8-22.3-50.199c-4.399-4.2-9.6-8.4-11.6-9.301c-2-0.899-4.7-2.199-6-2.8
		c-1.3-0.7-5.8-1.2-10-1.2c-18.301,0.101-28.2,10.9-35.601,38.7c-6,22.5-9.1,57.8-8.1,91.4c0.8,26.7,1.7,35.399,5.7,50.3
		c4,15,7.8,23.5,11.899,26c1.7,1,2.8,2.1,2.3,2.4c-0.399,0.199-4.899,1.6-9.8,3.1c-5,1.4-15.5,4.9-23.399,7.6
		c-7.9,2.801-14.5,4.9-14.7,4.7s0.6-2.3,1.8-4.8c3.4-7.2,8.7-30.3,9.9-43.9c1.899-20.5-0.7-54.399-4.4-58.899
		c-2.4-2.9-24,1.6-29.5,6.1c-1.7,1.4-1.5,6.101,1.3,31.3c2.3,20.601,1.7,33.101-1.899,41.101c-2.9,6.5-5.301,8.399-10.5,8.399
		c-5.9,0-13-12.899-16.5-30C304,455.3,302,436.3,302,407.999c0-28.399,2.3-43.1,9.2-59.699c4.6-11.101,9.7-13.301,16.1-6.9
		c3.9,3.9,5.301,8.4,6.301,20.9c0.5,6.6,1.1,9,2.3,9.6c2.7,1.4,25.899,2.2,26.7,1c1.199-2,0.5-25.3-1-33.9
		c-2.2-12.6-10.5-23.3-23-29.5c-4.2-2.1-6.301-2.5-13.5-2.399c-4.801,0.1-10.301,0.5-12.4,1c-14.3,3.399-26.1,16.1-32.9,35.2
		c-7.8,22-10.199,37.899-11.3,75.699c-0.8,24.801,0.2,36.7,4.5,54.5c3.4,14.101,5.4,20.2,11.7,35c8.9,20.7,19.3,32.5,33.3,37.601
		c3.3,1.2,6,2.399,6,2.8c0,0.3-4.8,3-10.8,6c-5.9,3-12.5,6.6-14.7,7.9c-2.2,1.399-6.5,3.899-9.5,5.5c-3,1.6-8,4.8-11,7.1
		c-3,2.2-8.3,5.9-11.6,8.1c-10.8,7-27.101,22.301-35.7,33.5c-8.4,10.9-10.8,15.301-12.7,23.2c-1.1,4.3-1,5.2,1,9.4
		c2.5,5,8.101,9.7,15.3,12.6c5,2,8.7,2.2,12.2,0.601c4.2-1.9,3.101-6-2.6-8.801c-2.101-1.1-4.4-2.899-5.3-4.1
		c-1.301-1.9-1.301-2.5-0.101-5c1.7-3.2,2.3-3.8,10-10.4c3.2-2.8,6.3-5.5,6.9-6c6.8-6.199,41.7-24.399,63.6-33.3
		c51.8-20.8,113.4-33.2,165-33.2c32.9,0,53.5,3.9,70.5,13.5c10.601,5.9,14.4,12.601,14.5,25.5c0,9.801-2,17.4-7.399,28.5
		c-9,18.301-23.9,35-37.4,42c-13.8,7.101-20.7,9.301-21.6,6.9c-0.3-0.8,0.1-7.6,0.899-15.2c3.5-34,4.601-68.7,2.4-78.2
		c-1.7-7.3-6.2-13.5-11.5-15.5c-6.1-2.3-10.1-1.399-14.7,3.301c-6.3,6.5-11.399,22.6-21.2,67.699
		c-6.5,30.101-16.899,70.9-18.699,73.7c-0.801,1.3-5.5,4.7-10.4,7.601c-4.9,2.899-10.4,6.6-12.3,8.199c-1.801,1.7-3.7,3-4.101,3
		c-1.7,0-17,12.601-24.8,20.301c-13.6,13.5-16.1,21.6-10.1,32.6c2.699,4.9,4,6.1,8.8,8.4c7.899,3.699,14,4.8,24.5,4.5l9.1-0.301
		l-0.2,4c-0.1,2.2-1.1,10.101-2.3,17.5c-3,19.5-3.6,42.4-1.6,65.7c1.7,20.101,2.399,23.4,6.3,29.601c4.101,6.6,12.8,8.5,18.601,4
		c5.6-4.101,9.399-11.9,20.1-40.601c10.7-28.6,14.6-43.6,24.1-92.7c1.4-7.399,3.2-14.5,4-15.699c0.801-1.2,8.101-6.5,16.2-11.9
		c22-14.4,48.9-35.6,67.3-53.1c2.5-2.301,6.801-5.7,9.5-7.4c6.5-4.1,26.2-13.4,30.301-14.3l3.1-0.7l-2.4,5.8
		c-1.3,3.2-5.1,11.3-8.399,18.101c-3.4,6.8-6.101,12.6-6.101,12.8c0,0.3-2,4.6-4.5,9.6s-5.699,11.601-7,14.7c-1.3,3.1-4,9.4-6,14.1
		C562.7,801.699,553.6,858,560.4,889.3c4,18.399,12.3,33.3,21.8,39.3c9.8,6.2,20.601,6.3,30,0.3c11.7-7.5,18.9-18.7,41.3-63.899
		c0.5-1.101,1.301-2,1.601-2C656,863,657,874.199,657,885.4c0,19.101,3.7,38.8,9,48.101c4.2,7.199,8.601,11,15.2,12.899
		c7.601,2.2,9.7,2,13.9-0.8c5.5-3.8,6.899-7.7,6.899-19.8c0.101-21.101,2.101-38.7,8.5-74.801c1.9-10.699,5.301-30.5,7.5-44
		c3.801-22.5,9.5-51.6,20-102c5.4-25.699,10-52.899,10-58.899C748,643.499,747.1,638.699,746,635.4z M585.7,528.6
		c-0.3,0.3-2.2-0.5-4.399-1.9c-5.301-3.3-19.101-9-29.601-12.3l-8.8-2.7l0.7-14.1c0.399-7.7,0.8-26.101,0.8-40.8
		c0.1-14.801,0.5-26.7,1-26.5c0.9,0.3,2.5,4.1,10.1,24.699c6,16.301,15.301,38.7,24.5,59.301C583.4,521.9,586,528.4,585.7,528.6z
		 M705.7,645.499c-0.899,5.601-13.1,35.4-28.7,70c-1,2.2-5.5,12.5-10,23c-4.5,10.4-12,27.2-16.6,37.301
		c-4.6,10.1-8.4,18.6-8.4,18.899s-3.1,7.601-6.899,16.2s-10.5,23.8-15,33.9c-4.4,10.1-9.2,19.7-10.601,21.399l-2.5,3v-6.5
		c0-26,18.801-90.8,39.801-137.2c17.5-38.8,39.1-74.5,49.1-81.199c1.9-1.301,4.9-2.301,6.9-2.301
		C706.2,641.999,706.301,642.1,705.7,645.499z"/>
	<path fill="#FFFFFF" d="M1055.1,63c1,0.6,8.5,0.899,16.8,0.8c8.2-0.2,15.1-0.101,15.4,0.2c0.3,0.3-0.101,7.899-0.9,17
		c-0.7,9.1-2,25.5-2.9,36.5c-0.8,11-2.3,24.3-3.199,29.5c-1.301,7.8-1.7,19.3-2,63.2c-0.5,65.5-0.2,67.8,8.5,69.399
		c7.899,1.5,29.199-5.399,30.899-9.899c0.4-1.2,0.601-15,0.5-30.7c-0.399-28.4,0.5-59.3,3.3-117c0.9-16.8,1.5-34.9,1.5-40.2
		s0.4-10.8,0.9-12.101c1-2.699,0.5-2.5,20.5-4.899c6.1-0.7,11.4-1.8,12.2-2.5c1.399-1.5,1.2-3.7-1.2-13.3c-0.7-3-2-6-2.8-6.601
		c-0.9-0.6-8.9-1.8-17.8-2.7c-22.2-2.3-75.601-1.6-80.4,1.101c-3.2,1.7-3.4,3.3-2.2,12.7C1053,60,1053.7,62.3,1055.1,63z"/>
	<path fill="#FFFFFF" d="M1153.301,305.9c-10.601-4.8-27.601-4.8-32.9,0.1c-7.3,6.7-17.1,25.5-22.4,42.9
		c-9.1,29.7-10.199,37.5-10.3,72.1c-0.1,34.301,2.3,50,10.9,72.301c4.3,11.3,8.8,17.899,19.6,29.3c7.4,7.7,9.8,9.5,14.8,11.399
		c7.301,2.7,11.7,2.301,20.5-2.1c13.2-6.5,26.2-21.7,32.301-37.7c12.3-32.1,12.8-71,1.6-130.8
		C1181.801,333.1,1170.1,313.499,1153.301,305.9z"/>
	<path fill="#FFFFFF" d="M1001.301,180.5c0.399,2.2,1.199,11.6,1.699,21c1.5,24.8,3.9,62.7,4.601,72.5c0.899,12.1,2.5,13,17.2,8.6
		c11.1-3.3,16.8-6,18.1-8.399c2.1-3.9,1.2-26.7-3-82.7c-0.6-7.7-1.2-42.601-1.4-77.5c-0.199-34.9-0.399-64-0.399-64.7
		c-0.101-1.7-5.4-3-17-4.2c-5.7-0.6-12-1.4-14-1.6c-7.101-1-6.7-5.301-6.5,67.5C1000.6,147,1001,178.3,1001.301,180.5z"/>
	<path fill="#FFFFFF" d="M704.4,62c6.1,0,11.7,0.399,12.5,0.899c1,0.7,1.2,2,0.7,5.2c-1.101,7-3.9,85.8-5.2,146.4
		c-0.8,36.7,0.3,54.7,3.6,58.8c1.7,2,2.801,2.2,15.7,2.5l14,0.4l0.601-17.301c0.399-9.6,0.699-28.5,0.699-42
		c0-55.899,2.801-151,4.601-152.8c0.8-0.9,9.8-2.1,20.5-2.7l11.7-0.7l0.6-4.5c1.1-8,0.7-19.699-0.7-21.6
		c-1.7-2.4-2.399-2.4-50.899-1.7c-30.7,0.5-40,0.9-41,1.9c-1.9,1.899-1.801,23.3,0.1,25.5C693,61.699,695.301,62,704.4,62z"/>
	<path fill="#FFFFFF" d="M1178.1,84c2.6,9.1,8.2,26.6,12.5,39c4.2,12.399,7.7,24.3,7.7,26.5c0.1,3.7-1.5,55.2-3,97.1
		c-0.9,25.9,0.1,28.601,10.399,27.8c14.601-1.199,28-4.1,28.7-6.1c1.1-2.8,2.6-28.6,3.2-55.8c0.6-26.5,0.7-27.2,3.6-36
		c4.101-12.2,8.5-21.9,17.5-38.2c18.2-33.1,47.7-93.9,47.101-97.101c-0.2-0.8-1.601-2.399-3.101-3.6c-2.6-1.9-4.399-2.1-18.5-2.4
		c-11.8-0.199-16.1,0-17.399,1c-1,0.7-5.7,9.2-10.601,18.801c-12,23.6-21.1,40.899-23.399,44.2c-1.101,1.6-2.7,2.8-3.7,2.8
		c-1.5,0-2.2-1.9-3.9-10.3c-1.2-5.601-4.2-20.101-6.7-32.2C1216,47.4,1213.6,35,1213.2,32c-0.6-4.9-1-5.5-3.2-5.7
		c-3.699-0.3-40.6,12.899-43.1,15.399c-1.9,1.9-1.1,6.801,2.6,16.301C1171.6,63.199,1175.4,74.9,1178.1,84z"/>
	<path fill="#FFFFFF" d="M813.9,274.3c5.3,1.4,27.4,0.8,29-0.8c2.2-2.2,1.5-53.7-1.6-130c-1.301-32.9-1.4-45.4-0.5-70
		C841.4,55.9,841.5,43.1,841,42.6s-6.899-1.7-14.199-2.7c-16.101-2.2-17.9-2.3-20.2-0.6c-1.601,1.1-1.9,4.6-3.101,29.899
		c-1.6,35.601-1,136.801,1.101,174.2C806.2,272.5,806.1,272.1,813.9,274.3z"/>
	<path fill="#FFFFFF" d="M955.5,298.199c-12.699-2.8-19.8-2.1-29.1,2.601c-7,3.6-15.9,12.8-20.8,21.6c-4.7,8.5-12.4,29.3-14.7,40.1
		c-4.1,18.5-3.5,61.801,1.2,86.101c5.3,27.5,13.899,56.1,19.899,65.6c9.2,15,22.4,26.601,32.801,29c12.1,2.7,30.1-3.6,38.5-13.5
		c7.1-8.3,9.8-13.399,13.8-26c6.399-20,6.399-20.2,6.2-54.2c-0.2-17.1-0.7-35.3-1.2-40.5c-0.601-5.199-1.3-15.3-1.7-22.3
		c-0.5-10.3-1-13-2.2-13.5c-1.7-0.6-44.399,4.5-49.7,5.9c-5.8,1.6-6,2.5-3.399,15.6c1.3,6.5,2.7,12.3,3.2,13
		c0.6,0.8,3.3,1,9.199,0.601c5.801-0.4,8.9-0.2,9.801,0.6c6.899,5.7,10.699,66,5.6,88.3c-2.9,12.7-12.2,15-20.9,5.101
		c-11.899-13.601-25.8-54.601-28-82.5c-1.699-22.801,1.5-50.9,7.7-68.301c5.4-15,10.8-23.699,16.601-26.6c3.5-1.8,3.899-1.8,6.8-0.4
		c5.8,3,7.1,10.9,4.5,26.801c-0.7,4.3-0.9,8-0.4,8.3c1.5,0.899,26.8-0.8,28.3-2c2.101-1.601,4.5-12,4.5-19.601
		c0-7.6-2-14.899-5.5-20.199C981.5,310.199,966.1,300.499,955.5,298.199z"/>
	<path fill="#FFFFFF" d="M769.9,330.999c-2.3,33.7-8.7,96.301-13.4,131c-2.5,17.801-3.6,30-5.6,60.9c-1.1,17.1-1,17.4,1,19.5
		c3.2,3.1,15.7,2.7,26.9-0.8c8.6-2.8,10.399-4.4,12.199-10.5c1.101-3.9,4.5-34.601,6.101-55.101c0.7-8.5,1.5-18.8,1.8-22.8
		c0.6-7.8,1.7-9.399,6.1-9c2.101,0.3,3.4,2.2,8.7,12.8c6.4,12.9,19.9,46,26,63.5c6.9,19.801,11.3,29.5,13.9,30.101
		c3.1,0.8,8.1-0.101,17.6-3.2c10.3-3.4,12.8-5.4,12.8-10.5c0-5.8-2.699-18.1-6.199-27.9c-6.4-18.399-18-55.5-24.9-80
		c-1.7-5.8-7-22.899-11.9-38c-4.899-15.1-10.3-32.199-12-38c-1.8-5.8-5.899-17.699-9.199-26.6l-6-16.1l-9.101-0.7
		c-12.2-0.8-14.899-0.7-24.1,1.2C771,312.9,771.2,312.499,769.9,330.999z"/>
	<path fill="#FFFFFF" d="M884,182c1.601,8.5,3.601,20,4.5,25.5c1.601,9.5,3.4,18.6,8.9,42.899C900.5,264,903,268,911.9,272.9
		c5.6,3,7.6,3.5,14.8,3.9c11.4,0.6,13.9-0.5,15.8-7.2c0.801-2.8,2.101-9.2,3-14.1c1.601-9.601,3.9-20.7,13.4-65
		c3.3-15.4,7.1-35.9,8.5-45.5c4.7-32.101,10.1-64,14.5-85.7c1.2-5.5,2.1-10.8,2.1-11.601c0-1.899-5.399-4.5-12.1-5.699
		c-6.5-1.301-23.6,0.3-27.9,2.5c-3.6,1.8-4.199,4-7.5,24C935.1,77.3,931.7,96.9,929,112c-2.6,15.1-5.199,29.5-5.5,32
		c-1.199,7.7-2,7.3-3.899-1.7c-0.9-4.9-3.3-15-5.2-22.6c-1.9-7.7-5.7-26.801-8.4-42.501C903.301,61.4,900.6,47.5,900.1,46.3
		c-1.3-2.9-5.3-4.9-12.601-6.2c-7.3-1.4-22.5-1.2-22.5,0.2c0,0.1,1.601,13.2,3.5,29.2C878.301,152.7,878.1,150.8,884,182z"/>
	<path fill="#FFFFFF" d="M1023.6,1415c-0.101-15.101-0.2-15.5-2.3-15.801c-1.101-0.199-2.4,0.2-2.801,0.9
		c-0.699,1.1-0.1,25.8,1,44.4c0.4,6.699,0.301,7.6-0.699,5.5c-0.601-1.4-4.5-9.7-8.5-18.5c-8.4-18.2-16.7-31.801-19.2-31.301
		c-1.3,0.301-1.5,1.601-1.3,7.301c0.199,3.899,0.699,18.5,1,32.5c0.6,21.699,0.899,25.5,2.199,25.5c1.301,0,1.5-3.601,1.5-26.301
		c0-14.399,0.101-26.199,0.2-26.199c0.8,0,9.9,20.6,21.3,48.199c3.2,7.801,6.2,10.601,8.2,7.7c0.5-0.899,0.601-8.8,0.2-19.899
		C1024,1438.8,1023.6,1423.5,1023.6,1415z"/>
	<path fill="#FFFFFF" d="M1190.2,1423c-0.7-24.301-0.7-24.5-2.899-24.801c-1.7-0.3-2.4,0.301-2.9,2.4c-0.8,2.9,0.3,43.2,1.2,47.4
		l0.5,2.5l-1.5-2.5c-2.7-4.4-8.4-18.101-14.7-35.301c-4.9-13.1-6.6-16.699-8-16.699c-2.7,0-3,1.199-1.9,9.1
		c1.101,7.8,0.801,15-1.699,43.1c-0.801,9.801-1.301,18.4-1,19.301c0.8,2,2.399,1.899,3.6-0.301c0.9-1.699,3.8-30.399,4.3-42.699
		l0.3-6l2.9,8.5c3.7,11,15,35.5,18.2,39.699c2.6,3.4,6.7,4.5,7.7,2c0.199-0.6-0.4-5.699-1.5-11.199
		C1191.5,1450.4,1190.7,1440.4,1190.2,1423z"/>
	<path fill="#FFFFFF" d="M1142.5,1402c-0.3,0.5-1,8-1.5,16.699c-0.5,8.7-1.399,20.101-2,25.301c-1.5,14.899-1.3,27.899,0.5,28.6
		c3,1.2,4.5-1.6,4.5-8c0-3.3,0.7-13.3,1.5-22.1c1.5-16.5,2-37.101,0.9-39.9C1145.7,1400.8,1143.4,1400.5,1142.5,1402z"/>
	<path fill="#FFFFFF" d="M1069.801,1396c-3.5,2.199-0.9,6,4,6c1.8,0,2.1,0.899,2.699,8.6c0.4,4.7,0.5,14.7,0.101,22.2
		c-0.3,7.5-0.7,19.1-0.8,25.7c-0.2,11.199-0.101,12,1.6,12c1.3,0,2.2-1,2.7-2.7c0.399-1.5,1-16.7,1.399-33.7l0.801-31.1h5.8
		c3.1,0,6.399-0.301,7.3-0.601c1.9-0.7,2.1-3.8,0.4-5.2C1093.9,1395.699,1071.9,1394.699,1069.801,1396z"/>
	<path fill="#FFFFFF" d="M1454,470.9c-1.5-5.7-10.3-22.1-14.899-27.9c-2-2.5-8.101-9.199-13.601-15
		c-31.6-33.199-35.899-41-35.699-64.1c0.1-16.9,3.199-23.9,10.399-23.9c6.101,0,7.5,2.301,9.8,16c1.101,6.2,2,13.5,2,16.2
		c0,4.2,0.2,4.9,1.801,4.4c4-1.3,16.5-3.601,19.199-3.601c1.601,0,3.101-0.399,3.5-0.899c1.301-2.3,0.7-25.8-0.899-32.5
		c-3.5-14.5-12.7-27.101-23.601-32.3c-4.399-2.101-7.399-2.7-15-3c-8.8-0.4-9.899-0.301-14.8,2.199
		c-8.1,4.101-13.1,11.101-19.2,26.7c-6.1,15.3-8.8,27-9.6,41.8c-0.8,13.101,0.6,22,5.1,31.7c3.9,8.4,14.101,22.4,24.601,33.9
		c13.899,15.1,21.1,27.2,27.7,46.399c4.8,14.2,5.699,19.7,4.199,26.101c-1.8,7.5-6.1,8.7-12.5,3.7c-5.1-4-9.8-18.9-12-38.101
		l-0.699-5.899l-6.601-2.9c-6.5-3-25.2-8.9-27.8-8.9c-2.2,0-1.8,18.5,0.6,32.4c2.7,15.2,5.4,22.5,12.5,33.1
		c9.301,14,15.9,17.301,32.9,16.2c11.5-0.7,18.6-3.2,29-10.1c12.1-8.101,19.9-17.9,23.1-29
		C1455.5,496.699,1455.801,477.8,1454,470.9z"/>
	<path fill="#FFFFFF" d="M1405.1,837.499c-8.7-4.399-17.8,1.5-29.3,19.001C1353.2,891,1326.4,964.699,1318.5,1013.9
		c-16.5,104.101-19.5,136.9-13.6,152.2c2,5.4,6.4,10.5,10.8,12.8c7,3.601,17.7-1.2,24-10.8c6.101-9,15.9-38.8,35.101-106.1
		c2.699-9.601,7.1-24.101,9.6-32.301c15-48.5,28.8-127,29-164.699c0.1-17.501,0.1-17.501-2.6-21.7
		C1409.2,840.999,1406.7,838.4,1405.1,837.499z"/>
	<path fill="#FFFFFF" d="M1315.1,1270.199c-14.8-6.899-33.8-1.199-44.3,13.2c-10.5,14.4-15.601,34.101-12.4,48
		c2.6,11.101,7.3,17.101,16.5,21.4c6.8,3.1,14.9,2.7,21.4-1.101c4.6-2.8,22.8-18,29.5-24.699c9-9.101,12.699-21.601,9.8-32.801
		C1332.9,1283.4,1325.801,1275.1,1315.1,1270.199z"/>
	<path fill="#FFFFFF" d="M1299.4,532.4c11.9-12,19.1-28.1,24.1-53.8c5.2-26.4,5.9-38,5.2-87.101c-0.7-49.8-2.2-79.899-4.3-83.3
		c-1.4-2.1-2.1-2.2-13.3-2.2c-12.2,0-22.4,1.4-24,3.4c-0.5,0.6-0.5,5.2,0,11.1c2.5,27.9,4.899,64.301,4.899,74.5
		c-0.1,18.5-2.8,60.9-4.399,68.601c-3.9,18.5-8.9,24.5-16.2,19.7c-8.6-5.601-12.7-30.4-12.6-75.801c0.1-27.5,1.8-69.8,3.3-81.3
		c0.5-4,0.899-9.3,0.899-11.8c0-4.2-0.3-4.6-3.3-5.9c-1.899-0.8-8-1.899-13.6-2.399c-14.4-1.5-17.5-1.4-19.3,0.6
		c-1.2,1.4-2,6.8-3.2,21.8c-3.3,42.4-4.9,75-4.2,88c1.3,24.5,3.7,49,5.6,57.101c2.5,10.8,10.301,32.2,14.801,40.7
		c5.1,9.8,15.699,20.8,23.899,24.899C1277.301,545.9,1288,543.8,1299.4,532.4z"/>
	<path fill="#FFFFFF" d="M1125.1,1399c-2.2-1.101-12.2-1.2-16.101-0.101c-5.1,1.4-5.3,3.3-4,38.9c0.7,18.7,1.7,33.2,2.2,33.899
		c1.5,1.801,16.2,1.801,17.7,0c2.1-2.699-0.9-4.8-7-4.8l-5.6-0.1l-0.7-8.2c-0.3-4.4-0.601-10.7-0.601-13.8v-5.7l5.801-0.6
		c7.8-0.9,8.399-1.2,8-3.7c-0.301-2.101-0.801-2.3-7-2.2c-7.9,0.1-7.301,1.2-8.4-16.3l-0.7-12.2l6.601,0.6
		c8.1,0.7,11.699-0.1,11.699-2.699C1127,1400.9,1126.1,1399.6,1125.1,1399z"/>
	<path fill="#FFFFFF" d="M777.7,1462.9l-10.8,0.3l0.3-13.3l0.3-13.399l8.4-1c8.5-1,10.4-2.101,7.6-4.5c-1.5-1.301-11.3-1-14.6,0.399
		c-1.4,0.601-1.7-1-2.3-13.399c-0.4-7.7-0.9-14.7-1.2-15.4c-0.4-1.1,0.3-1.2,3.9-0.4c2.5,0.5,6.899,0.801,9.8,0.601
		c5-0.3,5.399-0.5,5.399-2.8c0-2.5-0.1-2.5-10.199-2.801c-8.7-0.199-10.301,0-10.301,1.301c0,0.8-0.699,1.5-1.5,1.5
		c-1.3,0-1.5,4.199-1.5,31.899c0,39.2-1,36.601,13.9,36.4c10.6-0.2,14.4-1.3,13.9-4.101C788.5,1462.699,787.1,1462.5,777.7,1462.9z"
		/>
	<path fill="#FFFFFF" d="M1045.5,1400.199c-3.199,1.7-8.5,7.101-10.1,10c-3.7,7.101-0.1,19.2,7.9,27
		c8.399,8.101,10.199,13.2,7.199,20.5c-2.399,5.601-4.3,7.2-9.699,7.9c-3.801,0.5-4.801,1-4.601,2.3c0.4,2,7.9,2.7,11.9,1.101
		c3.7-1.601,7.6-7.4,9-13.7c1.8-7.7,0.2-11.9-7.5-20.101c-7.101-7.5-9.3-11.199-10.101-16.8c-1.1-7.5,5.301-13.399,14.301-13.399
		c4.699,0,7.199-2.101,5.199-4.5C1057.5,1398.699,1048.5,1398.5,1045.5,1400.199z"/>
	<path fill="#FFFFFF" d="M702.9,1462c-7.7,0-8-0.101-9-2.801c-0.6-1.5-1.4-14.899-1.9-29.899c-0.399-14.9-1.1-27.601-1.5-28.2
		c-1-1.6-3.5-1.3-4.199,0.5c-0.9,2.3,0.5,52.9,1.6,58.2c1.3,6.3,2.9,7.5,11.8,8.399c8.8,0.801,11.9,0.301,12.7-1.899
		C713.6,1463.199,711.1,1462,702.9,1462z"/>
	<path fill="#FFFFFF" d="M974.1,1397.199c-1.101,2.601-3.4,70.5-2.5,71.9c1.1,1.8,3.5,0.8,4.5-1.9c1.3-3.1,2.6-62.899,1.5-68.5
		C976.801,1394.5,975.4,1393.9,974.1,1397.199z"/>
	<path fill="#FFFFFF" d="M947.1,1462.699L936,1463.5v-16.7V1430h4.801c7.1,0,9.399-0.9,9-3.4c-0.301-1.9-1-2.1-7-2.4l-6.801-0.3
		l-0.1-10.399c-0.1-5.801-0.2-11.101-0.3-11.801c-0.101-0.8,2.399-1.3,8.7-1.5c7-0.199,8.899-0.6,9.399-1.899
		c0.4-0.9-0.1-2.101-1.2-2.9c-2.3-1.7-12.699-1.7-17.5,0l-3.5,1.3l-0.8,19.4c-0.899,23.1,0,49.1,1.7,51.4c1.1,1.5,2.7,1.6,14.7,0.8
		c12.8-0.8,13.399-0.9,13.7-3.101C961.301,1462,959.6,1461.699,947.1,1462.699z"/>
	<path fill="#FFFFFF" d="M860.2,1397c-10.2,0-14.399,1.199-15,4.3c-0.3,1.399,0.3,1.6,4.101,1.1l4.5-0.6l0.6,15.8
		c0.9,25.6,2.5,46.9,3.5,49.7c0.7,1.8,1.8,2.7,3.2,2.7c2.2,0,2.2-0.2,1.6-11.801c-1.1-18.699-2.6-42.1-3.3-49.399l-0.6-6.7l5.1,0.6
		c6,0.7,8.7-0.8,7-3.8C870.1,1397.199,868.7,1397,860.2,1397z"/>
</g>
<path fill="#FFFFFF" d="M1233,706.999c-8.3-7.899-26.3-15.1-47.5-19.199c-10.8-2-14.899-2.2-41-2.2c-30,0-40.3,0.899-65.899,5.5
	c-37.2,6.7-88.2,25.399-117.8,43.3c-6.801,4.1-12.601,6.2-13.9,4.9c-2.2-2.2-4.3-26.301-4.4-49.801c0-33.3,2-42.899,11.2-53.5
	c11.7-13.5,18.3-26.899,16.7-33.699c-2.3-9.301-7.3-14.801-16.1-17.4c-8.9-2.6-23,4.1-34,16c-2.4,2.5-4.301,4.9-4.301,5.2
	s-1.399,2.399-3.1,4.5c-8.3,10.399-17.7,35.399-21.4,56.899c-0.899,5.5-2.3,11.101-3.1,12.7c-1.5,2.9-10.8,13-31.3,34.2
	c-18,18.6-19,19.6-21.101,19.6c-2.199,0-2.899-3-6-24c-5.699-38.8-4.199-62.899,5-82.399c9.301-19.601,16.301-18,20.101,4.6
	c3,18.101,4.899,21.601,10.899,20.3c2.5-0.6,3.601-1.6,5-4.899c2.4-5.3,7-28.101,7-34.3c0-6.101-2.399-16.2-5-21.301
	c-2.699-5.399-10.6-12.899-17-16.399c-7.3-4-18.8-4.7-26.8-1.7c-16.6,6.2-31,20.4-41.1,40.8c-10.3,20.601-14.4,39.4-14.5,66.3
	c0,19.4,0.899,29.601,6.1,64c6.601,44.4,6.601,44.5,4.5,49.301c-1,2.3-2.6,5-3.5,5.899c-4.6,4.5-24.5,35.3-29.8,45.8
	C739,870,735.5,882.4,736.2,898.1c0.4,8.9,0.9,10.7,4.2,17.3c6.6,13.4,17.5,20.601,32.2,21.4c9.6,0.5,16.3-1.101,25.5-6.3
	c9.399-5.4,9.6-5.301,14.8,4.3c11.5,20.8,35.6,29.1,62.2,21.2c9.399-2.801,24.5-10.5,33.1-17c20.5-15.5,38.2-42,44.3-66.5
	c4.801-19.4,6-47.2,3-71.001c-2.1-16.8-2-19.699,0.801-22.199c3.1-2.801,23.1-13.2,35.8-18.601
	C1035.5,742.3,1078,733.999,1119,736.1c17.5,0.899,22.801,1.6,49.5,6.3c29.2,5.3,32.4,5.7,43.601,5.9
	c9.399,0.199,10.899-0.101,15.899-2.4c6.601-3.2,9.301-5.6,12.2-11.2C1244.801,725.9,1242.1,715.6,1233,706.999z M783.4,857
	c-4.1,14.199-12.7,30-15.2,27.6c-1.399-1.5-0.3-19.1,1.7-27c2.2-8.5,10.5-26.8,14.3-31.601c1.3-1.6,2.601-2.899,3.101-2.899
	C789.301,822.9,786.801,844.9,783.4,857z M842.301,777.9c-2-11.9-3.301-21.8-2.9-23.3c0.7-2.9,40.1-43.601,45.1-46.7
	c2-1.3,3.101-1.5,3.601-0.7c0.399,0.601,1,6.3,1.399,12.7c0.301,6.4,1.7,20.3,3.101,31c1.3,10.6,2.399,21.4,2.399,24v4.6
	L879.301,795.6c-8.7,8.8-18.9,19.3-22.601,23.399c-5.3,5.7-7,7.101-7.7,6c-0.399-0.8-1.3-7.1-1.899-14
	C846.5,804.1,844.301,789.199,842.301,777.9z M898.9,845.499c-1.9,15.301-7.5,31.2-14.8,41.9c-3.601,5.4-13.9,15.101-19.601,18.5
	c-7.399,4.5-15.899,5.601-17,2.2c-2.5-8.1,9.101-35.4,23.101-54.2c9-12.1,21.8-26.5,25.399-28.4c1.4-0.8,2.801-1.399,3.301-1.5
	C900.301,823.999,900.2,835.1,898.9,845.499z"/>
<path fill="#FFFFFF" d="M1235.6,1126.6c-1.8-6.2-5.3-10.6-8.5-10.6c-5.4,0-11.601,10.1-19.5,32c-8.4,23.199-19.9,49.3-28.601,64.5
	c-1.199,2.199-4.199,7.5-6.699,11.8c-13.801,24.399-35.101,50.2-44.601,54.2l-3.7,1.5l-1.899-3.101c-4.3-7.1-8.5-28.2-10.101-50.899
	c-1.699-24.5-1.399-36.601,3-113c1.2-21.2,4.5-60.5,7-83.5c4.2-39.101,5.4-56.601,5.5-77.5c0-15.601-0.399-22.9-1.399-26.5
	c-3.2-11.5-9.5-20-17.5-23.601c-7.9-3.6-19.4-1.6-25.9,4.4c-1.899,1.8-6.6,7.7-10.5,13.2c-3.899,5.5-8.5,12-10.3,14.5
	c-3.9,5.399-23.3,34.3-30.5,45.5c-4.9,7.6-6.7,10.5-16.1,25.5c-4.301,6.8-19,31.199-32.2,53.5c-7.2,12.1-17.601,30.6-30,53.5
	c-2.8,5.199-6.2,10.8-7.601,12.5c-3.199,3.899-3.199,3,0-14.5c5.101-27,6.801-43.4,6.9-64c0.1-22-1.2-30.9-6.7-44
	c-3.5-8.4-11.2-17.2-18.5-20.9c-7.5-3.8-16.7-5.4-24.1-4.1c-17.3,2.899-31.601,7.3-68.3,21.1c-8.7,3.2-17.2,5.9-19.101,5.9
	c-2.1,0-5.3-1.301-8.7-3.601c-3-1.899-8.1-4.899-11.3-6.5c-6.1-3.1-26-9.2-33.7-10.399c-11.1-1.601-30.5,5.699-42.699,15.899
	C676.5,1035.5,650,1085.8,638.1,1153c-4.9,27.8-5.4,61.399-1.101,84c8.301,44.699,32.301,78.1,63.7,88.6c5.9,2,9.101,2.4,18.8,2.4
	c10.301,0,12.801-0.4,20.601-3c28-9.4,53.399-29.2,73.899-57.7c19.301-26.9,31.4-57.4,38-96c10.7-62.2,3.9-111.601-20.199-147.101
	c-3.101-4.399-4.7-7.699-4.2-8.199c2.7-2.7,30.1-9.601,49.5-12.5c17.8-2.7,27.1-1.7,29,3.199c1.3,3.601,1.1,17.4-0.601,29.301
	c-3.6,25-8.1,44.6-27.899,121c-5.101,19.8-11,48.3-12.601,61c-3,24.6,0.301,42.699,9.801,53.199c9.899,10.9,25.899,11.601,36.5,1.5
	c7-6.6,13.199-17.199,26.699-45.199c15.101-31.301,49.5-100.4,54.5-109.5c2-3.601,5.2-9.4,7.2-12.9s4.8-8.7,6.2-11.5
	c1.5-2.8,4-7.1,5.6-9.6c1.601-2.5,5.9-9.7,9.5-16c17.101-29.301,33.801-55.801,38.7-61l2.3-2.5l-0.5,5c-0.3,2.699-1.699,11.1-3,18.5
	c-15.199,85.3-20.899,137.3-19.8,181c1.101,44.6,9.2,78,24.7,102c8.5,13,16.9,20.5,30.1,26.699c5.5,2.601,7,2.801,17.5,2.801
	c11.2,0,11.7-0.101,19-3.601c4.101-2,9.7-5.2,12.301-7.2c11.399-8.199,26.899-29.3,49.899-67.699
	C1221.6,1212.8,1242.1,1148.9,1235.6,1126.6z M807.1,1135.5c-4.4,56.3-21.8,98.1-51.601,123.8c-17,14.7-32.5,20.7-41.899,16.2
	c-11-5.301-20.5-23.301-24.2-46.301c-1.8-11.3-2-41.3-0.4-55.3c4.601-39,13.4-72.6,26.2-99.899c6-12.9,18.8-32.801,24.2-37.801
	c3.9-3.6,5-4.1,11.2-4.699c3.8-0.301,7.399-0.801,7.899-1c2.4-1,11.4,0.899,15.7,3.199c5.3,2.9,13.5,9.601,17.4,14.2
	C803.5,1062.1,809.9,1098.6,807.1,1135.5z"/>
<path fill="#FFFFFF" d="M836.2,1454.4c-3.2-4.3-8.2-11.5-11.2-15.899c-2.899-4.4-6.699-9.7-8.399-11.801l-3-3.699l5.6-5.4
	c5.601-5.3,8.3-10.8,7.101-14.4c-1.301-4.399-2.9-6.199-6.5-7.6c-6.301-2.6-10.801-1.4-12.7,3.3c-2.8,6.8-5.601,68.101-3.2,69.601
	c0.7,0.399,1.7,0.3,2.2-0.2s1.1-9.8,1.3-20.601c0.1-10.899,0.5-20,0.9-20.3c0.3-0.3,2.199,2,4.3,5.3
	c20.399,31.7,24.2,36.601,27.2,34.7C843,1465.3,842.2,1462.5,836.2,1454.4z M808.301,1420.6c-0.801-0.8,1.699-18.8,2.8-20.2
	c2.899-3.5,9.899-0.2,9.899,4.7c0,2.4-1.399,4.5-6.199,9.5C811.4,1418.1,808.5,1420.8,808.301,1420.6z"/>
<path fill="#FFFFFF" d="M671.5,1443.199c-3.399-16.8-11.3-45.5-12.8-46.399c-3.2-2-3.8-0.7-11.6,22.5
	c-3.9,11.3-9.5,26.899-12.601,34.6c-3.199,7.8-5.399,14.8-5.1,15.601c0.8,2.1,3.6,1.899,3.6-0.301c0-0.899,1.7-5.5,3.7-10.1l3.8-8.3
	l11.5,0.399c6.301,0.301,12.2,0.801,13.101,1.2c1.1,0.5,2.399,3.9,3.8,10.101c2.1,9,4.4,12.5,5.8,8.899
	C675.6,1469,674.2,1456.8,671.5,1443.199z M664.6,1444.699c-0.5,1.101-1.7,1.301-5.4,0.9c-2.6-0.3-7.399-0.2-10.7,0.3
	c-3.3,0.5-6.1,0.8-6.1,0.7c-0.2-0.1,5.5-15.6,11.2-30.9C655,1412,656.301,1409,656.5,1409C657.301,1409,665.1,1443.4,664.6,1444.699
	z"/>
<path fill="#00FF00" d="M725.301,1405.199c0.3,1.301,0.899,7.4,1.3,13.5c0.399,6.2,0.8,11.301,1,11.301s1.6-1,3-2.301
	c8-6.699,6.6-19.699-2.5-23.399C724.801,1402.9,724.801,1402.9,725.301,1405.199z"/>
<path fill="#FFFFFF" d="M740.6,1433.6c-2.601-1.6-4.5-3.2-4.3-3.5c6.8-12,5.3-24.7-3.601-30.4c-6.399-4.199-15-3.199-12.2,1.4
	c0.4,0.6,0.7,5.2,0.601,10.3c-0.3,13.7,1.7,39.601,3.5,45.601c2.2,7.3,6,11,11.399,11c8.2,0,13.9-7.4,14-17.9
	C750,1443.1,746.801,1437.5,740.6,1433.6z M738.801,1462.4c-5.7,2-9.2-5.399-10.4-21.7l-0.7-9.199l2.4,2.1c1.3,1.1,4.5,3.3,7.2,4.8
	c5.3,3.101,7.3,5.601,8.199,10.601C746.301,1453.699,742.6,1461.1,738.801,1462.4z"/>
</svg>
