<?xml version="1.0" encoding="utf-8"?>
<!-- Generator: Adobe Illustrator 15.1.0, SVG Export Plug-In . SVG Version: 6.00 Build 0)  -->
<!DOCTYPE svg PUBLIC "-//W3C//DTD SVG 1.1//EN" "http://www.w3.org/Graphics/SVG/1.1/DTD/svg11.dtd" [
	<!ENTITY ns_flows "http://ns.adobe.com/Flows/1.0/">
	<!ENTITY ns_extend "http://ns.adobe.com/Extensibility/1.0/">
	<!ENTITY ns_ai "http://ns.adobe.com/AdobeIllustrator/10.0/">
	<!ENTITY ns_graphs "http://ns.adobe.com/Graphs/1.0/">
]>
<svg version="1.1" id="Ebene_1" xmlns:x="&ns_extend;" xmlns:i="&ns_ai;" xmlns:graph="&ns_graphs;"
	 xmlns="http://www.w3.org/2000/svg" xmlns:xlink="http://www.w3.org/1999/xlink" xmlns:a="http://ns.adobe.com/AdobeSVGViewerExtensions/3.0/"
	 x="0px" y="0px" width="192px" height="447.332px" viewBox="0 0 192 447.332" enable-background="new 0 0 192 447.332"
	 xml:space="preserve">
<g>
	<g id="XMLID_3_">
		<g>
			<path fill="#FFFFFF" d="M12.108,154.313c-0.25,0.229-0.49,0.47-0.72,0.72C7.138,154.712,11.858,150.073,12.108,154.313z"/>
			<path d="M57.708,150.953c0.7,1.33-0.6,2.13-0.96,3.12c-0.96,2.62-1.2,5.25-2.4,7.68c-3.87,7.811-9.25,15.561-17.76,18.96
				c-1.06,0.061-1.75,0.49-2.88,0.48c-0.35,31.74,0.96,65.09-0.48,97.92c-1.9,43.16-5.27,86.48-11.04,125.76
				c-1.64,11.149-3.45,21.659-5.52,32.881c-0.19,1.02-0.04,3.29-1.68,3.6c-0.08-4.66,1.39-9.6,2.4-14.88
				c4.83-25.29,7.88-52.13,10.32-80.4c1.81-20.91,3.33-42.778,4.32-64.56c1.56-34.391-0.06-67.431,1.2-100.08
				c-14.66,0.08-22.15-11.641-22.32-25.44c-1.26-0.81-2.27-0.6-2.4-2.16c-0.4-4.729,7.34-0.43,2.64,2.16
				c0.88,12.48,6.32,20.41,16.08,24c-5.65-6.58-12.63-17.95-12-31.439c-0.21-1.07-1.99-0.57-1.92-1.921
				c-0.05-1.47,1.86-2.729,3.12-1.439c1.04,1.07-0.49,2.05-0.72,3.36c-1.04,5.92,2.82,15.729,4.8,18.72
				c-1.24-3.63,0.61-8.09-0.24-11.28c-0.35-1.31-1.35-1.14-1.68-2.399c1.24-4.341,6.33,0.409,1.92,1.92
				c-0.15,11.909,2.15,21.369,11.52,23.76c-4.03-6.13-8.59-13.811-8.4-24.96c1.13,9.189,3.03,17.609,8.16,22.8
				c-0.77-3.29-2.87-5.9-3.84-9.6c-1.73-6.641-1.65-16.7-0.96-24.721c-0.07-0.43,0.23-0.489,0.24-0.239
				c-0.3,10.63-0.85,23.13,3.6,29.76c-0.8-3.24,0.35-9.19,0-12.24c-0.18-1.55-1.33-2.4-0.72-3.36c0.69-1.09,3.11-0.83,3.36,0.721
				c0.25,1.56-1.13,1.569-2.16,2.159c0.14,6.66-0.58,14.181,2.4,18c3.71-7.93,2.36-19.869-0.72-27.359
				c-1.08-1.101-2.42-0.84-2.4-2.641c0.04-4.479,6.76-0.189,2.64,2.4c1.9,4.64,4.33,10.54,3.84,17.04
				c-0.33,4.42-2.16,8.16-2.4,11.76c4.96-3.529,4.69-16.74,4.08-25.92c-0.22-3.27,0.03-6.689-0.48-8.64
				c-0.41-1.58-2.72-2.49-1.92-3.84c0.44-0.73,1.71-1.011,2.64-0.24c0.72,1.27-0.31,2.04-0.72,2.88c1.8,9.8,2.46,22.73-0.48,31.68
				c3.07-3.729,4.16-9.439,4.56-15.84c-0.19-1.26-1.73-0.87-1.44-2.399c0.19-0.971,1.08-1.66,2.64-0.96
				c0.97,1.47-0.61,2.199-0.72,3.359c0.02,8.74-2.82,14.62-6.48,19.68c2.78-2.079,5.9-5.89,7.68-10.319
				c3.36-8.36,2.79-19.04-0.96-26.88c-0.3-1.141-2.09-0.79-1.68-2.641c0.34-0.75,1.55-0.899,2.4-0.479
				c0.99,1.01-0.04,1.77-0.48,2.64c8.29,12.17,2.07,31.32-6.48,38.4c8.4-4.32,12.88-12.561,14.88-23.28
				c0.12,7.72-3.94,13.34-7.44,18.24c5.63-4.21,9.02-12.74,12-20.4c0.2-1.24-1.58-0.5-1.2-1.92
				C55.218,150.683,56.748,150.033,57.708,150.953z M41.868,156.953c1.74,1.24,1.74-1.96,0-0.72
				C41.868,156.473,41.868,156.712,41.868,156.953z M38.268,141.833c0.33-0.31,0.33-1.13,0-1.439c-0.85-0.051-1.25,0.35-1.2,1.199
				C37.348,141.792,37.708,141.913,38.268,141.833z M32.268,146.873c-1.16,1.21,1.41,2.28,0.96,0.24
				C32.778,147.163,32.698,146.844,32.268,146.873z M32.028,158.393c0.34-0.32,0.34-1.36,0-1.681c-0.98-0.1-1.51,0.25-1.44,1.2
				C31.088,158.053,31.278,158.513,32.028,158.393z M24.828,176.393c1.4,2.13,3.9,4.42,7.44,3.6
				C29.218,179.522,26.778,177.172,24.828,176.393z M19.548,153.594c0.14,0.989,2.03,0.96,1.92-0.24
				C21.188,152.462,19.578,152.442,19.548,153.594z M11.388,155.033c0.23-0.25,0.47-0.49,0.72-0.72
				C11.858,150.073,7.138,154.712,11.388,155.033z"/>
			<path d="M134.508,88.792c0.539,0.9,0.09,4.86,0.24,6.96C134.208,94.853,134.659,90.893,134.508,88.792z"/>
			<path fill="none" d="M32.268,179.993c-3.54,0.82-6.04-1.47-7.44-3.6C26.778,177.172,29.218,179.522,32.268,179.993z"/>
			<path fill="#FFFFFF" d="M128.508,250.792c-1.17-1.39,1.08-3.18,1.68-1.439C130.168,250.373,129.618,250.863,128.508,250.792z"/>
			<path d="M181.788,106.073c0.58-5.19,7.86,0.82,2.16,2.4c-0.9,8.18-3.39,15.659-8.4,21.359
				c-4.619,5.261-11.889,11.66-21.119,11.04c-1.051-0.33-0.51,0.931-1.44,0.721c-3.7-0.86-6.979-1.091-10.079-1.921
				c-13.091-3.5-17.671-17.43-22.08-29.76c-0.091-0.79-1.891-1.13-0.961-2.16c1.53-0.91,1.391,1.4,1.44,2.16
				c4.78,10.98,8.75,22.771,19.68,27.601c-9.96-8.591-21.81-26.801-14.88-45.841c-2.73-0.909-2.57-5.52-0.24-6.239
				c4.631-1.44,7.07,6.38,1.2,6.239c-5.37,16.761,2.06,33.61,11.28,41.761c-4.54-8.29-9.87-18.25-8.881-30.48
				c-0.25-0.859-1.869-0.37-1.92-1.439c-0.26-2.78,4.711-4.771,5.521-2.16c0.41,1.31-0.78,3.43-3.12,3.12
				c0.08,9.949,4.07,20.489,8.641,28.08c2.33,3.869,4.47,8.01,10.08,8.159c-8.851-8.43-13.98-22.659-13.92-40.8
				c0-3.189,0.41-0.109,0.239,1.44c0.91,10.77,2.851,20.51,7.2,27.84c-2.01-10.4-1.91-23.311-0.24-34.08
				c-4.47,1.03-4.89-5.85-0.479-6c3.6-0.12,4.78,5.36,0.96,6.72c-0.84,15.4-1.551,33.971,6.24,42.24
				c-5.021-17.47-3.82-42.27,1.92-58.08c-0.12-1.34-1.141-1.66-0.721-3.12c0.66-2.33,4.75-1.7,5.28,0c0.69,2.24-1.37,4.32-4.08,4.08
				c-5.11,16.07-6.53,40.32-0.96,56.88c2.61-8.42,0.02-19.76,0.48-28.8c-6.221-2.01,2.689-8.19,3.359-3.36
				c0.26,1.841-1.59,2.521-3.119,3.12c1.26,9.37,3.149,21.07,0.479,30.24c8.521-6.68,9.56-22.92,9.12-39.36
				c0.27-1.31-1.17-0.909-0.721-2.399c0.631-0.3,1.521-1.181,2.4-0.48c0.82,1.36-0.67,1.67-0.96,2.641
				c0.24,1.35,0.42,2.52,0.479,3.6c0.86,16.75-1.33,31.3-10.319,38.64c1.771-0.58,3.46-1.97,4.8-3.359
				c5.83-6.061,10.38-21,11.04-32.641c0.34-6.04-0.601-12.26-1.44-18c-1-1.08-2.35-0.75-2.64-2.159
				c-0.569-2.761,3.78-4.45,5.521-1.921c0.189,2.28-1.17,2.99-2.4,3.841c5.01,17.979-0.01,39.27-8.16,50.64
				c-0.07,0.02-0.119,0.05-0.16,0.1c-0.109,0.051-0.209,0.091-0.32,0.141c0.16,0,0.23-0.08,0.32-0.141
				c3.551-1.77,5.711-7.13,7.84-12.58c2.09-5.35,3.871-12.069,4.08-17.039c0.07-1.66-0.81-3.54,0.961-4.08
				c3.67-1.11,4.59,5.739,0,4.56c-1.221,13.03-4.471,24.01-12.24,30.48c5.84-2.921,9.93-9.36,13.439-15.36
				c2.971-5.07,4.92-10.94,6.961-16.561c-3.431-1.189-0.73-6.93,2.399-4.079c1.08,1.859-0.63,2.89-1.2,4.319
				c-2.37,5.96-3.51,12.101-6.72,17.521c-3.64,6.14-8.72,13.6-15.841,16.319c14.15-3.609,22.471-15.13,25.201-30.96
				C182.168,107.533,181.659,107.203,181.788,106.073z M183.948,107.272c0.44-0.311,1.061-1.08,0.48-1.681
				C183.088,105.333,182.898,107.073,183.948,107.272z M180.348,102.232c-1.28-0.92-2.21,0.84-1.439,1.92
				C179.868,103.993,180.338,103.344,180.348,102.232z M172.428,105.353c0.26-1.8-1.86-1.71-1.92-0.24c0.3,0.1,0.49,0.31,0.479,0.72
				C171.818,106.022,171.999,105.563,172.428,105.353z M165.228,84.232c1.36,0,1.819-0.9,2.16-1.92
				c-0.99-1.04-3.33-0.431-2.88,1.439C164.788,83.873,165.047,84.013,165.228,84.232z M151.788,78.232
				c1.09-0.59,2.381-0.98,2.16-2.88C151.358,73.462,150.988,76.973,151.788,78.232z M152.508,103.672
				c-1.33-0.67-2.541,0.16-2.641,1.44C150.808,106.143,152.467,105.002,152.508,103.672z M142.668,92.393
				c3.33-2.45-2.791-5.98-3.121-1.681C140.228,91.613,141.588,92.633,142.668,92.393z M128.988,101.513
				c1.511,0.069,2.81-0.07,2.64-1.681C130.627,99.402,129.108,100.283,128.988,101.513z M125.868,90.473
				C134.308,90.363,123.458,82.883,125.868,90.473L125.868,90.473z"/>
			<path fill="#FFFFFF" d="M21.468,153.353c0.11,1.2-1.78,1.229-1.92,0.24C19.578,152.442,21.188,152.462,21.468,153.353z"/>
			<path fill="#FFFFFF" d="M75.948,26.393c0.2,1.85-1.65,2.479-3.12,1.92c0.05-0.75-0.16-1.76,0.24-2.16
				C74.048,25.893,75.278,25.752,75.948,26.393z"/>
			<path d="M136.909,253.672c-0.091,1.03-1.121,1.12-0.961,2.4c-0.56-0.57-1.18,0.04-1.92,0
				C130.668,253.893,135.238,250.333,136.909,253.672z M134.749,255.353c-0.061-0.94,1.319-0.44,1.199-1.44
				c-0.25-0.55-1.1-0.5-1.92-0.479C133.948,254.393,134.028,255.192,134.749,255.353z"/>
			<path fill="#FFFFFF" d="M38.268,140.393c0.33,0.31,0.33,1.13,0,1.439c-0.56,0.08-0.92-0.04-1.2-0.239
				C37.018,140.743,37.418,140.344,38.268,140.393z"/>
			<path fill="none" d="M147.708,442.553c-4.16,0-8.319,0-12.479,0c3.92-17.44,6.66-36.062,9.12-54.96
				C145.538,405.844,145.688,425.134,147.708,442.553z"/>
			<path fill="#FFFFFF" d="M32.028,156.712c0.34,0.32,0.34,1.36,0,1.681c-0.75,0.12-0.94-0.34-1.44-0.48
				C30.518,156.962,31.048,156.613,32.028,156.712z"/>
			<path fill="#FFFFFF" d="M52.668,151.672c0.72,1.49-0.97,2.82-2.16,1.681C50.158,151.462,51.588,150.863,52.668,151.672z"/>
			<path d="M25.068,149.272c-0.34,0.46-0.74,0.859-1.2,1.2C20.408,149.692,24.608,145.623,25.068,149.272z"/>
			<path fill="#FFFFFF" d="M170.508,105.113c0.06-1.47,2.18-1.56,1.92,0.24c-0.43,0.21-0.61,0.67-1.44,0.479
				C170.999,105.422,170.808,105.212,170.508,105.113z"/>
			<path fill="none" d="M151.788,280.553c0.541,0.18,0.09,1.35,0.24,1.92c-1.14,0.859-2.119,1.88-3.6,2.399
				C149.538,283.422,151.058,282.383,151.788,280.553z"/>
			<path fill="#FFFFFF" d="M41.868,156.232c1.74-1.24,1.74,1.96,0,0.72C41.868,156.712,41.868,156.473,41.868,156.232z"/>
			<path fill="#FFFFFF" d="M184.428,105.594c0.58,0.6-0.04,1.369-0.48,1.68C182.898,107.073,183.088,105.333,184.428,105.594z"/>
			<path fill="#FFFFFF" d="M27.228,136.792c-0.42-2.93,3.67-1.25,1.68,0.48C28.048,137.413,27.748,136.993,27.228,136.792z"/>
			<path fill="none" d="M152.268,273.113c0.88,7.28-3.859,11.03-8.641,13.44C146.588,283.113,151.249,279.303,152.268,273.113z"/>
			<path fill="#FFFFFF" d="M33.228,147.113c0.45,2.04-2.12,0.97-0.96-0.24C32.698,146.844,32.778,147.163,33.228,147.113z"/>
			<path d="M161.148,268.073c1.479,1.6-0.7,2.08-1.44,3.12c-2.199,3.11-3.279,8.43-6.24,11.04c-0.969,24.46-2.85,48.84-5.039,72.72
				c-0.721,7.91-2.02,15.62-2.641,23.28c-0.75,9.29,0.551,18.97,0.961,28.08c0.56,12.26,0.879,24.28,2.16,36.24
				c-0.4,0-0.801,0-1.201,0c-2.02-17.42-2.17-36.71-3.359-54.96c-2.46,18.898-5.2,37.52-9.12,54.96c-0.56,0-1.12,0-1.681,0
				c3.351-14.021,6.031-31.78,8.4-48c0.801-5.431,2.211-11.01,2.4-16.08c0.27-7.19-0.631-14.73-0.96-22.08
				c-1.05-23.021-1.15-45.47-4.08-67.681c-14.351,0.03-23.42-7.3-26.64-19.199c-1.15-0.45-2.65-0.551-3.121-1.681
				c0.19-1.89,1.221-2.939,3.361-2.88c1.319,0.87,0.93,2.8,0.239,4.08c2.94,10.82,10.649,16.87,22.56,18.72
				c-10.42-4.14-16.01-13.109-18.24-25.439c-6.279-0.26-1.949-9.08,2.16-4.561c0.36,2.29-0.93,2.91-1.68,4.08
				c2.7,10.82,6.7,20.351,16.561,24c-6.26-5.51-12.83-16.319-10.08-29.279c0.15-1.19-1.37-0.711-0.961-2.16
				c0.74-0.57,1.211-1.19,2.4-0.721c0.93,1.641-0.779,2.101-1.199,3.12c-0.78,11.71,2.819,20.98,9.359,26.16
				c-5.01-6.33-7.51-17.71-5.76-28.56c-0.28,10.29,0.58,21.279,6,26.64c-2.141-3.62-2.01-12.14-2.88-18.24
				c-0.171-1.21-1.81-3.899,0.239-4.319c2.66-0.54,2.521,3.81,0.24,3.84c-0.13,8.77,2.18,15.1,4.801,21.12
				c-0.721-3.351-0.45-8.96-1.2-12.96c-0.25-1.32-1.66-2.311-0.48-3.36c3.03-0.37,1.16,2,0.96,3.6
				c-0.52,4.181,1.62,10.891,2.641,14.16c2.3-9.51-0.59-20.41-2.641-28.56c3.03,7.609,5.11,18.47,3.6,29.04
				c4.49-10.95-0.35-26.07-1.92-36.24c-0.319-2.1,0.221-0.56,0.48,0.24c2.65,8.31,4.09,18.41,3.84,30.479
				c2.92-6.189,3.4-14.96,2.16-23.04c-1.38-0.859-2.74-0.71-3.359-1.92c-2.121-4.109,6.34-6.83,6.239-1.68
				c-0.04,1.83-1.29,1.97-2.399,3.6c2.959,9.761,0.08,21.5-3.12,28.8c3.47-1.52,5.84-8.289,6.72-14.399
				c0.32-2.24,0.859-4.89,0.48-6.48c-0.291-1.22-1.48-1.14-1.2-2.399c0.14-1.82,2.829-1.29,3.12,0c0.109,1.31-1.131,1.27-1.68,1.92
				c0.699,7.37-1.131,14.22-4.08,18.72c5-3.39,8.199-11.7,7.439-20.88c0.561,0.24,0.77,0.83,0.721,1.68
				c3.659-39.51,1.609-83.529-1.201-121.68c4.28,33.51,5.84,73.28,3.36,109.92c3.46-4.86,11.21,3.32,3.36,4.32
				c0.55,9-4.16,15.66-4.801,23.52c2.09-1.67,3.641-5.96,5.521-8.64C159.038,269.803,158.928,267.343,161.148,268.073z
				 M160.428,254.393c1.18-2.49-2.43-3.28-3.84-1.92C156.368,254.573,158.877,255.533,160.428,254.393z M158.028,256.073
				c-1.189-0.49-2.22-1.14-2.88-2.16c-0.181,6.141-0.819,13.101-0.72,18.72C155.938,267.422,157.368,262.133,158.028,256.073z
				 M143.627,286.553c4.781-2.41,9.521-6.16,8.641-13.44C151.249,279.303,146.588,283.113,143.627,286.553z M152.028,282.473
				c-0.15-0.57,0.301-1.74-0.24-1.92c-0.729,1.829-2.25,2.869-3.359,4.319C149.909,284.353,150.888,283.333,152.028,282.473z
				 M145.547,369.833c2.531-27.869,5.49-56.591,6-85.681c-2.869,2.41-6.76,3.8-11.52,4.32
				C143.818,313.643,143.988,342.433,145.547,369.833z M142.188,254.393c1.859,2.29,4.779-1.16,2.641-2.88
				C142.958,251.482,141.978,252.344,142.188,254.393z M117.228,260.873c1.021-0.13,1.56-1.12,1.44-2.88
				C115.329,255.663,114.098,261.272,117.228,260.873z M112.428,268.073c0.189-0.53,0.5-0.93,0.48-1.68
				c-1-0.71-2.021,0.29-1.921,1.439C111.268,268.113,111.838,268.103,112.428,268.073z"/>
			<path fill="#FFFFFF" d="M139.547,90.712c0.33-4.3,6.451-0.77,3.121,1.681C141.588,92.633,140.228,91.613,139.547,90.712z"/>
			<path fill="#FFFFFF" d="M135.948,253.913c0.12,1-1.26,0.5-1.199,1.44c-0.721-0.16-0.801-0.96-0.721-1.92
				C134.848,253.413,135.698,253.363,135.948,253.913z"/>
			<path d="M137.388,83.272c0.18,1.7-1.9,1.14-2.16,2.399C131.368,84.953,135.568,80.123,137.388,83.272z M134.988,84.953
				c0.12-0.92,1.82-0.26,1.44-1.68C134.888,82.823,133.909,84.203,134.988,84.953z"/>
			<path fill="#FFFFFF" d="M58.428,17.993c0.17,1.15-0.52,1.26-1.2,0.96C57.278,18.272,57.648,17.933,58.428,17.993z"/>
			<path d="M23.388,151.672c0.43-0.64,0.17,1.41,0.24,1.92C23.198,154.232,23.458,152.183,23.388,151.672z"/>
			<path d="M112.909,40.073c1.77,1.78-0.291,3.38-1.681,4.08c-5.479,9.24-11.29,21.27-24,24.24c-1.56,0.359-5.46,0.14-6.48,1.439
				c-0.97,1.24-0.32,3.65-0.24,5.521c0.32,7.56,0.44,15.38,0.48,23.04c0.04,7.64,0.72,15.189,0.72,22.8
				c0,15.29-0.71,30.58-1.2,46.08c-0.98,31.14,0.76,62.729-0.72,93.84c-0.72,15.07-1.16,30.28-1.68,45.36
				c-0.53,15.229-1.92,30.32-1.92,45.359c0,30.881-1.7,61.391-3.84,90.721c-0.4,0-0.8,0-1.2,0c1.37-14.79,2.16-29.71,2.88-44.88
				c0.74-15.44,0.33-31.11,0.96-46.801c0.91-22.881,1.83-45.689,2.64-69.121c0.27-7.71,0.96-15.42,0.96-23.04
				c0-31.75-0.38-63.439,0.72-94.8c0.54-15.53,1.9-31.05,1.2-46.56c-0.71-15.63-1.02-31.33-0.96-47.04
				c-3.3-2.42-7.3-2.07-10.56-3.601c-2.98-1.399-6.3-4.06-8.64-6.239c-6.35-5.931-10.04-14.58-11.52-25.44
				c-1.4-0.85-2.59-1.39-2.4-3.36c0.32-3.34,5.55-3.56,5.52,0c-0.02,2.271-1.44,1.69-2.64,3.601c2.74,13.66,9.69,24.39,20.4,29.279
				c-6.81-7.5-12.76-20.76-13.68-34.56c-0.24-3.51,0.4-6.24,0.48-9.36c0.02-0.939-0.69-2.18,0.24-3.119
				c0.72-0.721,2.52-1.57,2.88,0.479c0.34,1.94-1.84,1.47-2.64,2.4c-0.43,8.109,0.67,14.04,2.4,20.159
				c3.09,10.94,7.37,21.381,15.6,25.681c-8.8-9.38-14.3-27.48-10.32-45.12c-2.22-1.44,0.04-6.58,3.36-4.32
				c1.41,2.32-0.86,4.391-2.88,4.8c-2.2,14.271,1.04,27.86,6.48,36.721c-1.94-5.34-3.96-11.88-3.12-19.2
				c-0.2-1.34-1.71-0.58-1.44-2.4c0.25-1.64,2.86-1.939,3.36-0.479c0.5,1.47-1.39,2.109-1.68,3.359c-0.45,1.94,0.39,5.601,0.96,8.4
				c1.6,7.84,5.11,15.59,9.6,19.2c-5.5-8.87-8.84-23.03-6.48-37.44c-5.1-3.41,3.94-7.75,4.08-2.88c0.06,2.15-1.91,2.03-3.6,2.88
				c-0.67,14.351,1.78,25.58,6.24,34.8c-0.15-7.34,0.56-14.13-0.24-20.88c-6.71-1.59,2.44-9.46,3.36-4.08
				c0.41,2.41-1.73,2.29-2.64,3.841c1.45,5.359,1.25,12.8,1.44,18.72c4.09-10.63,3.79-25.65,4.08-40.08c0.26-0.49-1.85-2.42,0-3.12
				c3.29,0.55,1.03,2.05,0.72,3.6c-0.34,1.73,0.17,4.011,0.24,5.761c0.28,6.609,0.49,14.05-0.24,20.64
				c-0.72,6.58-3.3,12.05-4.08,16.8c6.61-13.439,10.8-34.06,7.44-53.04c-5.51-2.22,1.03-7.199,2.88-2.64
				c-0.2,1.479-2.04,1.32-2.4,2.64c3.86,16.92-1.03,36.2-4.8,49.2c2.23-4.02,4.65-9.26,6.24-14.88c1.58-5.58,3.19-12.28,2.88-18.24
				c-0.11-2.16-2.12-3.5-0.72-5.04c1.51,0.811,1.5,2.95,1.68,4.8c1.12,11.5-3.57,23.86-7.44,31.2c-1.54,2.92-4.2,4.811-4.8,7.681
				c11.03-4.73,13.31-18.21,16.56-30.721c-0.879-1.399-3.02-1.699-2.399-4.08c0.59-2.27,5.79-2.43,6,0.48
				c0.14,1.89-1.47,1.7-2.64,3.36c-0.641,10-4.661,19.979-8.88,26.399c5.919-5.46,11.009-13.13,12.96-22.8
				c0.479-2.38,2.16-8.04,1.68-10.32c-0.26-1.239-2.08-1.84-1.92-3.359c0.109-1.051,4.34-4.021,5.039-0.721
				c0.391,1.851-1.959,2.62-2.399,4.08c-0.489,1.65-0.239,4-0.479,5.761c-1.561,11.479-5.701,19.619-12,25.92
				c-1.06,1.06-2.54,2.25-2.4,3.119c8.34-4.539,12.59-13.18,17.76-20.88C110.159,42.473,110.238,39.203,112.909,40.073z
				 M108.348,25.913c-0.67-0.91-1.91-0.17-2.4,0.48c-0.039,0.6,0.381,0.739,0.48,1.2C107.659,27.623,108.238,27.002,108.348,25.913z
				 M102.108,33.113c-0.49-0.9-2.59-0.96-3.359-0.24C98.438,35.703,101.999,35.402,102.108,33.113z M91.068,9.833
				c-0.6-0.2-1.29-0.31-2.16-0.239c0,0.479,0,0.96,0,1.439C90.088,11.094,90.938,10.823,91.068,9.833z M78.588,42.232
				c1.59-0.17,2.67-0.851,2.88-2.4C80.048,38.573,77.988,39.962,78.588,42.232z M72.828,28.313c1.47,0.56,3.32-0.07,3.12-1.92
				c-0.67-0.641-1.9-0.5-2.88-0.24C72.668,26.553,72.878,27.563,72.828,28.313z M68.268,37.433c0.49,0.5,1.22,0,1.2-0.721
				C68.718,36.603,68.488,37.013,68.268,37.433z M57.228,18.953c0.68,0.3,1.37,0.19,1.2-0.96
				C57.648,17.933,57.278,18.272,57.228,18.953z M48.108,33.594c2.05-0.051,2.98-1.601,2.4-3.601
				C47.878,29.493,46.588,32.033,48.108,33.594z"/>
			<path fill="#FFFFFF" d="M178.909,104.152c-0.771-1.08,0.159-2.84,1.439-1.92C180.338,103.344,179.868,103.993,178.909,104.152z"
				/>
			<path fill="#FFFFFF" d="M157.547,136.313c0.111-0.05,0.211-0.09,0.32-0.141C157.778,136.232,157.708,136.313,157.547,136.313z"/>
			<path fill="#FFFFFF" d="M125.868,90.473C123.458,82.883,134.308,90.363,125.868,90.473L125.868,90.473z"/>
			<path fill="#FFFFFF" d="M50.508,29.993c0.58,2-0.35,3.55-2.4,3.601C46.588,32.033,47.878,29.493,50.508,29.993z"/>
			<path d="M128.508,247.433c4.47-1.261,3.35,5.67-0.48,4.56C125.868,251.363,126.217,248.083,128.508,247.433z M130.188,249.353
				c-0.6-1.74-2.85,0.05-1.68,1.439C129.618,250.863,130.168,250.373,130.188,249.353z"/>
			<path d="M26.268,136.792c-0.31-2.26,3.01-3.46,4.32-0.96C30.388,138.533,26.598,139.183,26.268,136.792z M28.908,137.272
				c1.99-1.73-2.1-3.41-1.68-0.48C27.748,136.993,28.048,137.413,28.908,137.272z"/>
			<path d="M53.868,152.633c0.07,1.551-1.22,1.431-1.92,2.641c-1.69-0.65-2.56-1.16-2.64-2.4
				C49.108,149.833,53.738,149.823,53.868,152.633z M50.508,153.353c1.19,1.14,2.88-0.19,2.16-1.681
				C51.588,150.863,50.158,151.462,50.508,153.353z"/>
			<path fill="#FFFFFF" d="M118.668,257.993c0.119,1.76-0.42,2.75-1.44,2.88C114.098,261.272,115.329,255.663,118.668,257.993z"/>
			<path fill="#FFFFFF" d="M88.908,9.594c0.87-0.07,1.56,0.039,2.16,0.239c-0.13,0.99-0.98,1.261-2.16,1.2
				C88.908,10.553,88.908,10.073,88.908,9.594z"/>
			<path fill="#FFFFFF" d="M136.428,83.272c0.38,1.42-1.32,0.76-1.44,1.68C133.909,84.203,134.888,82.823,136.428,83.272z"/>
			<path d="M136.909,238.073c0.559,2.98-3.801,3.75-5.281,1.2C131.467,235.913,136.428,235.533,136.909,238.073z"/>
			<path fill="#FFFFFF" d="M81.468,39.833c-0.21,1.55-1.29,2.23-2.88,2.4C77.988,39.962,80.048,38.573,81.468,39.833z"/>
			<path fill="#FFFFFF" d="M149.868,105.113c0.1-1.28,1.311-2.11,2.641-1.44C152.467,105.002,150.808,106.143,149.868,105.113z"/>
			<path fill="#FFFFFF" d="M153.948,75.353c0.221,1.899-1.07,2.29-2.16,2.88C150.988,76.973,151.358,73.462,153.948,75.353z"/>
			<path fill="#FFFFFF" d="M105.948,26.393c0.49-0.65,1.73-1.391,2.4-0.48c-0.11,1.09-0.689,1.71-1.92,1.681
				C106.329,27.133,105.909,26.993,105.948,26.393z"/>
			<path fill="#FFFFFF" d="M131.627,99.833c0.17,1.61-1.129,1.75-2.64,1.681C129.108,100.283,130.627,99.402,131.627,99.833z"/>
			<path fill="none" d="M155.148,253.913c0.66,1.021,1.69,1.67,2.88,2.16c-0.66,6.06-2.09,11.35-3.6,16.56
				C154.329,267.013,154.967,260.053,155.148,253.913z"/>
			<path fill="none" d="M151.547,284.152c-0.51,29.09-3.469,57.812-6,85.681c-1.56-27.399-1.729-56.189-5.52-81.359
				C144.788,287.953,148.678,286.563,151.547,284.152z"/>
			<path fill="#FFFFFF" d="M69.468,36.712c0.02,0.721-0.71,1.221-1.2,0.721C68.488,37.013,68.718,36.603,69.468,36.712z"/>
			<path fill="#FFFFFF" d="M98.749,32.873c0.77-0.72,2.869-0.66,3.359,0.24C101.999,35.402,98.438,35.703,98.749,32.873z"/>
			<path fill="#FFFFFF" d="M156.588,252.473c1.41-1.36,5.02-0.57,3.84,1.92C158.877,255.533,156.368,254.573,156.588,252.473z"/>
			<path fill="#FFFFFF" d="M112.909,266.393c0.02,0.75-0.291,1.149-0.48,1.68c-0.59,0.03-1.16,0.04-1.44-0.24
				C110.888,266.683,111.909,265.683,112.909,266.393z"/>
			<path fill="#FFFFFF" d="M167.388,82.313c-0.341,1.02-0.8,1.92-2.16,1.92c-0.181-0.22-0.44-0.36-0.72-0.48
				C164.058,81.883,166.398,81.272,167.388,82.313z"/>
			<path fill="#FFFFFF" d="M144.829,251.513c2.139,1.72-0.781,5.17-2.641,2.88C141.978,252.344,142.958,251.482,144.829,251.513z"/>
		</g>
	</g>
</g>
</svg>
