

<svg xmlns="http://www.w3.org/2000/svg" version="1.1" xmlns:xlink="http://www.w3.org/1999/xlink" xmlns:svgjs="http://svgjs.dev/svgjs" viewBox="0 0 800 210"><path d="M5.381165981292725,196.4125518798828C43.049327770868935,194.31987762451172,158.29596479733783,183.7070287068685,231.39013671875,183.85650634765625C304.48430864016217,184.005983988444,372.1973164876302,196.71151224772134,443.9461975097656,197.30941772460938C515.695078531901,197.9073232014974,603.2885080973307,190.134521484375,661.8834228515625,187.44393920898438C720.4783376057943,184.75335693359375,773.243642171224,182.2122599283854,795.5156860351562,181.16592407226562" fill="none" stroke-width="4" stroke="hsl(340, 45%, 50%)" stroke-linecap="round"></path>
<path d="M2.6905829906463623,192.8251190185547C35.12705544630686,195.21674601236978,131.9880423148473,207.32435862223306,197.30941772460938,207.1748809814453C262.63079313437146,207.02540334065756,333.4828135172526,193.57249704996744,394.61883544921875,191.92825317382812C455.7548573811849,190.2840092976888,499.40207926432294,196.41255696614584,564.1255493164062,197.30941772460938C628.8490193684896,198.2062784830729,746.4873046875,197.30941772460938,782.9596557617188,197.30941772460938" fill="none" stroke-width="2" stroke="hsl(340, 45%, 50%)" stroke-linecap="round"></path>
<path d="M3.5874438285827637,200C27.354259729385376,200.44843037923178,90.58295877774557,204.1853510538737,146.18833923339844,202.69058227539062C201.7937196890513,201.19581349690756,275.9342219034831,194.17039998372397,337.2197265625,191.03138732910156C398.5052312215169,187.89237467447916,457.84755452473956,184.45441436767578,513.9013671875,183.85650634765625C569.9551798502604,183.25859832763672,626.158447265625,187.89236958821616,673.5426025390625,187.44393920898438C720.9267578125,186.9955088297526,777.4290161132812,182.2122599283854,798.206298828125,181.16592407226562" fill="none" stroke-width="" stroke="hsl(340, 45%, 50%)" stroke-linecap="round"></path>
</svg>