<?xml version="1.0" encoding="UTF-8" standalone="no"?>
<!-- Created with Inkscape (http://www.inkscape.org/) -->

<svg
   version="1.1"
   id="svg824"
   viewBox="0 0 4262.6665 109.33333"
   sodipodi:docname="Striche.svg"
   inkscape:version="1.1.2 (0a00cf5339, 2022-02-04, custom)"
   xmlns:inkscape="http://www.inkscape.org/namespaces/inkscape"
   xmlns:sodipodi="http://sodipodi.sourceforge.net/DTD/sodipodi-0.dtd"
   xmlns="http://www.w3.org/2000/svg"
   xmlns:svg="http://www.w3.org/2000/svg">
  <defs
     id="defs828" />
  <sodipodi:namedview
     id="namedview826"
     pagecolor="#ffffff"
     bordercolor="#666666"
     borderopacity="1.0"
     inkscape:pageshadow="2"
     inkscape:pageopacity="0.0"
     inkscape:pagecheckerboard="0"
     showgrid="false"
     inkscape:zoom="0.5"
     inkscape:cx="2131"
     inkscape:cy="54"
     inkscape:window-width="3840"
     inkscape:window-height="2054"
     inkscape:window-x="-11"
     inkscape:window-y="-11"
     inkscape:window-maximized="1"
     inkscape:current-layer="g830" />
  <g
     inkscape:groupmode="layer"
     inkscape:label="Image"
     id="g830">
    <path
       style="fill:#000000;stroke-width:1.33333"
       d="M 2.544797,89.14015 C 1.62813,88.71406 0.87813,86.61544 0.87813,84.47655 v -3.88889 l 30.999999,-0.0363 c 17.049999,-0.02 39.999998,-0.58962 50.999998,-1.2659 11.000003,-0.67627 41.299993,-1.86526 67.333333,-2.64218 26.03333,-0.77693 65.63333,-2.02021 87.99999,-2.76284 22.36667,-0.74264 73.06667,-2.23683 112.66667,-3.32043 39.59999,-1.0836 95.69999,-2.8638 124.66666,-3.956 56.95915,-2.14767 164.43074,-4.5191 224.53007,-4.9544 42.36306,-0.30683 43.38856,-0.25889 -65.19675,-3.04834 -43.99999,-1.13032 -101.89999,-3.01211 -128.66666,-4.18175 -51.4254,-2.24719 -76.57798,-1.98908 -149.33332,1.5324 -21.63334,1.0471 -45.93334,2.61409 -54,3.48222 -18.59836,2.00154 -51.74456,2.10953 -190.33333,0.6201 L 0.87813,58.85414 v -3.69377 c 0,-3.57446 0.289391,-3.72477 8.958786,-4.65318 4.927332,-0.52768 64.485295,-0.51728 132.351024,0.0231 114.82245,0.91427 151.50264,0.45066 150.05199,-1.89655 -0.32207,-0.52111 -24.06694,-1.35846 -52.76641,-1.86079 C 210.77405,46.27063 171.5994,44.98513 152.41874,43.9163 133.23807,42.84747 105.24479,41.3575 90.21146,40.60526 75.178127,39.85302 49.978128,37.75088 34.211462,35.93384 18.444796,34.11681 4.494797,32.62058 3.211464,32.6089 1.42307,32.5926 0.87813,31.46095 0.87813,27.76329 v -4.82436 l 11.666666,0.90036 c 6.416667,0.4952 16.466666,1.44063 22.333333,2.10096 41.707567,4.69443 185.690711,10.50762 264.666651,10.68566 25.3,0.057 67.9,0.89027 94.66667,1.85163 49.95216,1.79409 110.61477,1.23091 208.66666,-1.9372 90.66702,-2.92951 162.91164,-3.13654 227.99999,-0.65339 66.32038,2.53017 172.4194,2.3242 241.9999,-0.46979 19.4334,-0.78034 56.9334,-2.04045 83.3334,-2.80026 48.4312,-1.39387 87.867,-2.91817 138,-5.33407 47.1986,-2.27449 129.0353,-5.19891 191.1636,-6.83118 63.8138,-1.67656 203.1542,-0.87854 242.1697,1.38693 60.5251,3.51446 113.2063,4.3638 200.6666,3.23519 112.1042,-1.44661 217.2132,-1.17703 294.6667,0.75575 33,0.82348 126.6,2.08137 208,2.79531 81.4,0.71393 195.4,1.92059 253.3333,2.68147 130.2853,1.71111 178.0784,0.83035 418,-7.70315 59.6571,-2.12187 108.2865,-2.32019 506,-2.06353 248.2369,0.1602 467.3117,0.87887 502.6666,1.64899 71.1491,1.5498 141.8791,3.86952 148.3824,4.86649 l 4.3826,0.67183 -0.3826,12.2637 -0.3824,12.2637 -29.3333,0.95941 c -115.5005,3.7777 -167.5779,5.33037 -220,6.55925 -74.6576,1.75012 -212.4527,0.51257 -284.6667,-2.55662 -47.4554,-2.01693 -86.3185,-2.25268 -320.6666,-1.94527 -146.6667,0.1924 -288.5667,0.80585 -315.3333,1.36323 l -48.6667,1.01341 68,0.98885 c 37.4,0.54386 105.5,1.59683 151.3333,2.33993 45.8334,0.74309 126.8334,1.92047 180,2.61639 53.1667,0.69591 111.9667,1.8675 130.6667,2.60351 101.3796,3.99021 134.8264,4.43919 348,4.67152 184.1132,0.20066 234.1733,0.64408 277.3333,2.45659 28.9667,1.21646 55.2167,2.2233 58.3333,2.23744 l 5.6667,0.0257 v 6.84964 6.84964 l -39.6667,-0.89584 c -21.8166,-0.49271 -59.7666,-1.49833 -84.3333,-2.23472 -25.1483,-0.75383 -133.8104,-1.19245 -248.6667,-1.00377 -190.2117,0.31248 -209.1434,0.13591 -280.0978,-2.6124 -41.8539,-1.62114 -121.6539,-3.54366 -177.3333,-4.27226 -55.6795,-0.72859 -133.3355,-1.90967 -172.5688,-2.62462 -39.2334,-0.71494 -121.1334,-1.65211 -182,-2.08259 -117.3579,-0.83003 -215.5276,-2.45546 -278,-4.60297 -162.9743,-5.60228 -265.9631,-7.80502 -436,-9.32521 -86.1667,-0.77036 -189.0667,-2.03184 -228.6667,-2.8033 -39.6,-0.77145 -100.6505,-1.89133 -135.6677,-2.48862 -66.5055,-1.13439 -198.5421,0.13556 -263.6656,2.53597 -81.9537,3.02077 -140.6229,4.03051 -235.3333,4.05024 -71.8545,0.015 -107.1813,0.55638 -130,1.99232 -132.8168,8.35798 -330.9584,12.34717 -513.33327,10.33496 -132.11978,-1.45774 -284.47306,-0.0966 -396.88105,3.5458 -46.08208,1.49321 -109.2856,3.32605 -140.45226,4.07299 -31.16667,0.74694 -81.86667,1.96425 -112.66667,2.70512 -30.79999,0.74087 -72.19999,1.98298 -91.99999,2.76024 C 70.96093,89.11462 4.747963,90.16424 2.544797,89.14015 Z M 1356.878,49.88971 c 37.0334,-0.75636 88.3334,-2.54386 114,-3.97222 25.6667,-1.42837 60.4667,-3.20602 77.3334,-3.95033 16.8666,-0.74432 52.8666,-2.32957 80,-3.52279 27.1333,-1.19322 50.2333,-2.72287 51.3333,-3.39922 1.2257,-0.75368 -44.4544,-0.99565 -118,-0.62505 -111.4851,0.56177 -162.1845,1.78036 -256,6.15312 -51.6694,2.40833 -95.6992,4.02599 -164,6.0254 -36.6667,1.07337 -70.2667,2.08553 -74.6667,2.24924 -4.4,0.16372 1,0.64663 12,1.07314 35.9652,1.39448 209.1445,1.37499 278,-0.0313 z m -508.66657,-0.7887 c -17.86616,-1.75635 -87.11238,-3.18671 -110,-2.27218 l -27.33333,1.09217 33.33333,0.70183 c 36.46807,0.76784 110.40463,1.10779 104,0.47818 z M 2992.2113,44.65628 c 62.9409,-2.9476 194.6773,-4.31528 435.3333,-4.51962 187.5913,-0.15928 261.8436,0.21677 284,1.43831 58.9847,3.25198 204.9955,4.81419 290.6667,3.10994 43.6333,-0.86799 90.7333,-2.13445 104.6666,-2.81434 13.9334,-0.67989 53.5334,-1.6935 88,-2.25246 60.4351,-0.98011 61.6222,-1.04759 33.3334,-1.89497 -91.9302,-2.75375 -224.8724,-3.78404 -554,-4.29345 -362.0775,-0.56042 -495.4009,0.14232 -574,3.02552 -22,0.80701 -57.7,2.07842 -79.3333,2.82536 -21.6334,0.74694 -55.8334,1.98527 -76,2.75185 -20.1667,0.76658 -84.3667,1.80511 -142.6667,2.30784 -71.8937,0.61996 -97.4199,1.17393 -79.3333,1.72169 38.5997,1.16903 236.3986,0.1367 269.3333,-1.40567 z m -1138.281,-3.71904 c -4.188,-0.26375 -11.388,-0.2659 -16,-0.005 -4.6121,0.2611 -1.1856,0.4769 7.6144,0.47953 8.8,0.003 12.5734,-0.21099 8.3856,-0.47474 z"
       id="path1198" />
  </g>
</svg>
