<?xml version="1.0" encoding="utf-8"?>
<!-- Generator: Adobe Illustrator 15.1.0, SVG Export Plug-In . SVG Version: 6.00 Build 0)  -->
<!DOCTYPE svg PUBLIC "-//W3C//DTD SVG 1.1//EN" "http://www.w3.org/Graphics/SVG/1.1/DTD/svg11.dtd" [
	<!ENTITY ns_flows "http://ns.adobe.com/Flows/1.0/">
	<!ENTITY ns_extend "http://ns.adobe.com/Extensibility/1.0/">
	<!ENTITY ns_ai "http://ns.adobe.com/AdobeIllustrator/10.0/">
	<!ENTITY ns_graphs "http://ns.adobe.com/Graphs/1.0/">
]>
<svg version="1.1"
	 id="svg553" xmlns:x="&ns_extend;" xmlns:i="&ns_ai;" xmlns:graph="&ns_graphs;" xmlns:inkscape="http://www.inkscape.org/namespaces/inkscape" xmlns:svg="http://www.w3.org/2000/svg" xmlns:sodipodi="http://sodipodi.sourceforge.net/DTD/sodipodi-0.dtd" sodipodi:docname="Vogel_nur Noten.svg" inkscape:version="1.1.2 (0a00cf5339, 2022-02-04, custom)"
	 xmlns="http://www.w3.org/2000/svg" xmlns:xlink="http://www.w3.org/1999/xlink" xmlns:a="http://ns.adobe.com/AdobeSVGViewerExtensions/3.0/"
	 x="0px" y="0px"  viewBox="0 0 34.686 97.6" enable-background="new 0 0 34.686 97.6"
	 xml:space="preserve">
<sodipodi:namedview  id="namedview555" inkscape:window-maximized="1" inkscape:pagecheckerboard="0" inkscape:zoom="8.9446723" borderopacity="1.0" bordercolor="#666666" showgrid="false" inkscape:cx="32.142038" inkscape:cy="48.7441" pagecolor="#ffffff" inkscape:current-layer="g559" inkscape:window-y="-11" inkscape:window-x="-11" inkscape:window-height="2054" inkscape:window-width="3840" inkscape:pageopacity="0.0" inkscape:pageshadow="2">
	</sodipodi:namedview>
<g id="g559" inkscape:label="Image" inkscape:groupmode="layer">
	<path id="path581" d="M22.886,94.935c-0.269-0.41-1.072-2.39-1.785-4.4c-2.231-6.289-3.117-15.398-2.204-22.678
		c0.367-2.93,1.326-5.457,2.07-5.457c0.594,0,0.597-0.057-0.185,3.2c-1.466,6.108-1.454,13.255,0.033,19.453
		c1.11,4.629,1.889,6.773,3.217,8.867c0.51,0.804,0.927,1.529,0.927,1.611c0,0.081-0.356,0.148-0.792,0.148
		C23.69,95.68,23.18,95.383,22.886,94.935z M15.484,54.6c-1.102-0.5-1.537-1.729-1.059-2.986c0.628-1.653,5.913-3.996,9.252-4.102
		l1.758-0.056l0.716-2.528c0.395-1.391,1.291-5.336,1.993-8.768c0.702-3.433,1.559-7.519,1.903-9.081l0.627-2.841l-1.938-3.56
		c-2.468-4.534-3.92-7.424-5.242-10.432c-0.578-1.316-1.17-2.43-1.313-2.476c-0.144-0.045-1.025,2.544-1.959,5.753
		c-0.934,3.21-1.97,6.699-2.302,7.755c-0.333,1.057-1.135,4.08-1.782,6.721c-1.508,6.146-2.17,7.933-3.707,9.998
		c-1.449,1.946-3.177,2.944-5.515,3.186c-2.381,0.246-3.933-0.466-4.207-1.928c-0.314-1.676-0.11-2.171,1.355-3.289
		c1.607-1.227,4.978-2.406,7.603-2.661c2.183-0.213,2.059-0.024,3.374-5.146c0.385-1.496,1.57-5.816,2.635-9.601
		c1.065-3.784,2.342-8.719,2.838-10.966c0.831-3.771,1.531-5.902,1.556-4.741c0.012,0.516,3.563,6.811,5.631,9.979
		c0.758,1.16,1.914,3.104,2.569,4.319c0.656,1.215,1.486,2.537,1.845,2.938c0.604,0.674,0.622,0.842,0.233,2.239
		c-0.23,0.832-1.479,6.191-2.774,11.911c-3.355,14.819-3.64,15.792-5.044,17.229C21.771,54.294,17.822,55.661,15.484,54.6z"/>
</g>
</svg>
