<?xml version="1.0" encoding="utf-8"?>
<!-- Generator: Adobe Illustrator 15.1.0, SVG Export Plug-In . SVG Version: 6.00 Build 0)  -->
<!DOCTYPE svg PUBLIC "-//W3C//DTD SVG 1.1//EN" "http://www.w3.org/Graphics/SVG/1.1/DTD/svg11.dtd" [
	<!ENTITY ns_flows "http://ns.adobe.com/Flows/1.0/">
	<!ENTITY ns_extend "http://ns.adobe.com/Extensibility/1.0/">
	<!ENTITY ns_ai "http://ns.adobe.com/AdobeIllustrator/10.0/">
	<!ENTITY ns_graphs "http://ns.adobe.com/Graphs/1.0/">
]>
<svg version="1.1" id="Ebene_1" xmlns:x="&ns_extend;" xmlns:i="&ns_ai;" xmlns:graph="&ns_graphs;"
	 xmlns="http://www.w3.org/2000/svg" xmlns:xlink="http://www.w3.org/1999/xlink" xmlns:a="http://ns.adobe.com/AdobeSVGViewerExtensions/3.0/"
	 x="0px" y="0px" width="375.999px" height="178.556px" viewBox="0 0 375.999 178.556" enable-background="new 0 0 375.999 178.556"
	 xml:space="preserve">
<g>
	<path fill-rule="evenodd" clip-rule="evenodd" fill="#FFFFFF" d="M347,10.221c-15.732-1.255-33.725,0.803-51.993,0
		c-12.717-0.559-25.24-2.049-37.995-3c-28.787-2.145-60.089,0.227-87.989-1c-23.846-1.048-36.178,0.628-49.994,7.999
		c-10.5,5.603-23.26,14.392-29.996,20.998c-7.943-9.921-28.897-1.27-42.995-2c-1.887-1.779-0.738-6.594-5-5.999
		c-10.404,2.146-18.271,0.778-27.997,3c-3.816,4.863-1.188,10.377-1,15.998c1.48,44.166,1.038,96.644,15.998,128.984
		c8.087-0.578,15.367-1.964,19.997-5.999c1.335-4.392-2.991-8.264,0-10.999c16.033,1.264,31.148-2.238,42.995-1.999
		c1.982-3.88,1.616-6.234,1-10.999c14.843,9.4,31.488,18.652,56.993,17.998c23.431-0.603,46.99-6.656,61.992-11.999
		c17.197,11.92,44.553,3.239,41.994-21.997c15.959,4.347,24.062-9.421,24.997-21.997c0.504-6.775-4.423-13.741-2.999-17.998
		c2.516-7.522,15.221-7.775,16.997-14.998c2.284-11.064-3.713-17.534-3.999-20.998c26.984-0.802,60.992-1.104,80.99-11.999
		C381.006,24.208,362.646,11.469,347,10.221z"/>
	<path fill-rule="evenodd" clip-rule="evenodd" d="M368.998,41.217C349,52.111,314.992,52.413,288.008,53.215
		c0.286,3.464,6.283,9.934,3.999,20.998c-1.776,7.223-14.481,7.476-16.997,14.998c-1.424,4.257,3.503,11.223,2.999,17.998
		c-0.936,12.576-9.038,26.344-24.997,21.997c2.559,25.236-24.797,33.917-41.994,21.997c-15.002,5.343-38.562,11.396-61.992,11.999
		c-25.505,0.654-42.15-8.598-56.993-17.998c0.616,4.765,0.982,7.119-1,10.999c-11.847-0.239-26.962,3.263-42.995,1.999
		c-2.991,2.735,1.335,6.607,0,10.999c-4.63,4.035-11.91,5.421-19.997,5.999c-14.96-32.34-14.518-84.818-15.998-128.984
		c-0.188-5.621-2.816-11.135,1-15.998c9.726-2.221,17.592-0.854,27.997-3c4.261-0.595,3.113,4.22,5,5.999
		c14.098,0.73,35.052-7.921,42.995,2c6.736-6.605,19.496-15.395,29.996-20.998c13.815-7.371,26.148-9.047,49.994-7.999
		c27.9,1.227,59.202-1.145,87.989,1c12.755,0.95,25.278,2.44,37.995,3c18.268,0.803,36.26-1.255,51.993,0
		C362.646,11.469,381.006,24.208,368.998,41.217z M230.015,23.219c-5.056-2.581-7.4-8.55-11.998-9.999
		c-2.103-0.663-10.069,0.088-15.998,0c-31.333-0.464-62.51-1.332-84.989,6.999c-10.295,3.815-21.667,16.625-28.044,23.499
		c-0.519,31.388,1.708,45.267,1.047,77.489c8.714,0.235,18.683-0.805,28.996-3c9.016-1.918,20.069-3.6,27.997-6.999
		c2.42-1.037,5.878-2.579,9.104-4.612c3.009-1.896,6.461-4.524,8.895-6.386c13.803-10.562,19.623-26.673,11.998-48.994
		c-5.425-0.629-12.197,3.608-13.998-2c3.919-3.747,14.904-0.427,17.998-4.999c9.197,7.491,42.674,2.277,56.993,1
		c6.044-0.539,11.845,1.08,15.998,0c7.281-1.892,11.207-11.689,8.999-17.998C252.388,29.867,238.336,27.466,230.015,23.219z
		 M228.016,16.22c2.761,7.741,19.62,9.136,32.995,6.999C258.14,11.685,238.167,12.416,228.016,16.22z M266.607,40.16
		c-1.516,1.597-8.711,5.223-3.596,6.056c16.768,4.21,32.756-1.29,48.995-3c16.488-1.736,46.957,0.711,49.994-3
		c4.287-3.21,3.959-17.539,0.998-19.998c-10.947-5.92-68.077-1.621-92.988-6c-0.609,0.057-1.184,0.15-1,1
		C272.913,22.396,268.919,37.723,266.607,40.16z M46.039,150.203c15.233,0.107,26.339,5.829,39.995,1
		c0.702-33.592-3.045-75.082-2-111.986c-12.318-2.072-30.763,3.019-40.995,3C44.95,78.183,45.316,113.116,46.039,150.203z
		 M249.013,52.216c1.753-0.914,4.989-0.344,5.999-2C252.587,49.885,246.918,51.326,249.013,52.216z M184.021,52.216
		c0.043,1.376-0.471,2.195-1,3c5.024,27.732-2.103,40.617-18.998,51.994c-17.878,12.039-48.901,21.707-71.991,20.997
		c-1.291,5.957,2.553,6.779,3,10.999c16.126,8.19,37.779,19.885,61.993,17.997c11.75-0.915,21.289-5.396,31.996-7.999
		c2.27-2.396,3.105-6.227,5-8.998c0.413-4.746-3.412-5.254-3-9.999c-0.034-3.63,5.056-5.443,3-7.999
		c-2.29-4.877-4.271-10.161-3-15.998c1.32-6.06,6.729-7.209,8.999-10.999c-7.416-10.79-3.423-27.254-5.999-41.995
		C190.063,51.495,186.759,53.663,184.021,52.216z M215.017,62.214c2.134,1.39,8.908,10.675,6.999,18.998
		c-1.197,5.225-5.439,3.901-7.999,8.999c26.28,7.015,57.212-2.974,70.991-17.998c0.1-4.1,0.197-8.196-0.999-10.999
		C265.794,53.33,235.032,59.496,215.017,62.214z M199.888,71.157c-0.542,8.875,1.435,13.417,7.13,16.055
		c3.227-1.773,8.154-3.278,9.958-6.473c0.524-5.815-1.399-9.878-3.958-12.524C207.978,65.676,202.883,68.533,199.888,71.157z
		 M202.019,95.21c1.862-0.137,3.342-0.657,4-1.999C204.247,93.438,201.011,92.203,202.019,95.21z M209.406,98.333
		c1.934,2.439,4.125,10.653,2.675,18.335c-1.555,3.111-4.457,4.056-7.062,5.539c14.88-0.467,43.275,4.441,56.992,1
		c9.129-2.291,11.197-16.104,7.999-26.997C251.198,92.147,230.662,100.521,209.406,98.333z M201.019,118.207
		c10.194,1.491,7.579-19.622-1-15.998C194.132,104.696,194.461,117.248,201.019,118.207z M196.02,130.206
		c0.3,4.032,1.476,7.189,5.999,6.999c2.325-1.008,3.225-3.441,3-6.999C203.398,128.703,197.641,128.703,196.02,130.206z
		 M205.019,142.204c12.039,12.149,41.306,12.841,41.994-10.998c-12.272-0.393-22.25-3.081-35.995-2
		C211.94,136.461,207.233,138.087,205.019,142.204z M197.02,147.204c1.333,0,2.666,0,3.999,0c0.17-2.503-1.536-3.13-2.999-4
		C197.556,145.24,196.893,145.41,197.02,147.204z"/>
	<path fill-rule="evenodd" clip-rule="evenodd" fill="#FFFFFF" d="M263.011,27.219c2.208,6.308-1.718,16.105-8.999,17.998
		c-4.153,1.08-9.954-0.539-15.998,0c-14.318,1.277-47.796,6.491-56.993-1c-3.094,4.572-14.079,1.252-17.998,4.999
		c1.801,5.608,8.573,1.371,13.998,2c7.625,22.321,1.805,38.432-11.998,48.994c-2.433,1.861-5.886,4.489-8.895,6.386
		c-3.225,2.033-6.684,3.575-9.104,4.612c-7.927,3.399-18.981,5.081-27.997,6.999c-10.313,2.195-20.282,3.235-28.996,3
		c0.661-32.222-1.566-46.101-1.047-77.489c6.377-6.873,17.749-19.683,28.044-23.499c22.479-8.331,53.656-7.463,84.989-6.999
		c5.929,0.088,13.896-0.663,15.998,0c4.598,1.449,6.942,7.418,11.998,9.999C238.336,27.466,252.388,29.867,263.011,27.219z"/>
	<path fill-rule="evenodd" clip-rule="evenodd" fill="#FFFFFF" d="M261.011,23.219c-13.375,2.137-30.234,0.742-32.995-6.999
		C238.167,12.416,258.14,11.685,261.011,23.219z"/>
	<path fill-rule="evenodd" clip-rule="evenodd" fill="#FFFFFF" d="M194.02,53.215c2.576,14.74-1.417,31.205,5.999,41.995
		c-2.271,3.79-7.679,4.939-8.999,10.999c-1.271,5.837,0.71,11.121,3,15.998c2.056,2.556-3.034,4.369-3,7.999
		c-0.412,4.745,3.413,5.253,3,9.999c-1.895,2.771-2.729,6.603-5,8.998c-10.707,2.603-20.245,7.084-31.996,7.999
		c-24.214,1.888-45.866-9.807-61.993-17.997c-0.447-4.22-4.291-5.042-3-10.999c23.09,0.71,54.113-8.958,71.991-20.997
		c16.895-11.377,24.021-24.261,18.998-51.994c0.529-0.804,1.043-1.623,1-3C186.759,53.663,190.063,51.495,194.02,53.215z"/>
	<path fill-rule="evenodd" clip-rule="evenodd" fill="#FFFFFF" d="M200.019,64.214c-2.796-1.203-1.982-6.869-2.475-10.158
		c8.528-2.813,14.85,0.035,24.472-0.841c4.364-0.022,0.918,0.56-1.999,1C211.751,55.949,204.834,59.031,200.019,64.214z"/>
	<path fill-rule="evenodd" clip-rule="evenodd" fill="#FFFFFF" d="M284.009,61.214c1.196,2.803,1.099,6.899,0.999,10.999
		c-13.779,15.024-44.711,25.012-70.991,17.998c2.56-5.098,6.802-3.774,7.999-8.999c1.909-8.322-5.035-16.998-6.999-18.998
		C235.032,59.496,265.794,53.33,284.009,61.214z"/>
	<path fill-rule="evenodd" clip-rule="evenodd" fill="#FFFFFF" d="M213.018,68.214c2.181,3.151,2.405,8.26,2.999,12.998
		c-1.804,3.195-5.772,4.226-8.999,6c-5.695-2.637-7.672-7.18-7.13-16.055C203.923,68.649,207.978,65.676,213.018,68.214z"/>
	<path fill-rule="evenodd" clip-rule="evenodd" fill="#FFFFFF" d="M206.019,93.211c-0.658,1.342-2.138,1.862-4,1.999
		C201.011,92.203,204.247,93.438,206.019,93.211z"/>
	<path fill-rule="evenodd" clip-rule="evenodd" fill="#FFFFFF" d="M270.01,96.21c3.198,10.893,1.13,24.706-7.999,26.997
		c-13.717,3.441-42.112-1.467-56.992-1c2.604-1.708,5.507-2.428,7.062-5.539c1.45-7.682-0.904-16.211-2.675-18.335
		C230.662,100.521,251.198,92.147,270.01,96.21z"/>
	<path fill-rule="evenodd" clip-rule="evenodd" fill="#FFFFFF" d="M200.019,102.209c8.579-3.624,11.194,17.489,1,15.998
		C194.461,117.248,194.132,104.696,200.019,102.209z"/>
	<path fill-rule="evenodd" clip-rule="evenodd" d="M47.039,137.205c-0.266-6.994,8.49-14.773,16.998-11.999
		c11.241,3.667,7.563,23.772-5.999,22.998C51.681,147.841,47.273,143.389,47.039,137.205z M66.036,140.205
		c-0.784-3.217-1.371-6.628-3-8.999C43.301,128.847,56.048,153.686,66.036,140.205z"/>
	<path fill-rule="evenodd" clip-rule="evenodd" fill="#FFFFFF" d="M205.019,130.206c0.225,3.558-0.675,5.991-3,6.999
		c-4.523,0.19-5.699-2.967-5.999-6.999C197.641,128.703,203.398,128.703,205.019,130.206z"/>
	<path fill-rule="evenodd" clip-rule="evenodd" fill="#FFFFFF" d="M211.018,129.206c13.745-1.081,23.723,1.607,35.995,2
		c-0.688,23.839-29.955,23.147-41.994,10.998C207.233,138.087,211.94,136.461,211.018,129.206z"/>
	<path fill-rule="evenodd" clip-rule="evenodd" fill="#FFFFFF" d="M63.037,131.206c1.628,2.371,2.216,5.782,3,8.999
		C56.048,153.686,43.301,128.847,63.037,131.206z"/>
	<path fill-rule="evenodd" clip-rule="evenodd" fill="#FFFFFF" d="M198.02,143.204c1.463,0.87,3.169,1.497,2.999,4
		c-1.333,0-2.666,0-3.999,0C196.893,145.41,198.244,145.095,198.02,143.204z"/>
	<path fill-rule="evenodd" clip-rule="evenodd" fill="#FFFFFF" d="M43.039,42.217c10.232,0.019,28.677-5.071,40.995-3
		c-1.045,36.904,2.702,78.394,2,111.986c-13.656,4.829-24.762-0.893-39.995-1C45.316,113.116,44.95,78.183,43.039,42.217z
		 M58.037,148.204c13.563,0.774,17.24-19.331,5.999-22.998c-8.508-2.774-17.263,5.005-16.998,11.999
		C47.273,143.389,51.681,147.841,58.037,148.204z"/>
	<path fill-rule="evenodd" clip-rule="evenodd" fill="#FFFFFF" d="M255.012,50.216c-1.01,1.656-4.246,1.086-5.999,2
		C246.918,51.326,252.587,49.885,255.012,50.216z"/>
</g>
</svg>
