<?xml version="1.0" encoding="UTF-8" standalone="no"?>
<!-- Created with Inkscape (http://www.inkscape.org/) -->

<svg
   version="1.1"
   id="svg5277"
   viewBox="0 0 3971.8311 7250.7041"
   sodipodi:docname="Zweig einmal.svg"
   inkscape:version="1.1.2 (0a00cf5339, 2022-02-04, custom)"
   xmlns:inkscape="http://www.inkscape.org/namespaces/inkscape"
   xmlns:sodipodi="http://sodipodi.sourceforge.net/DTD/sodipodi-0.dtd"
   xmlns="http://www.w3.org/2000/svg"
   xmlns:svg="http://www.w3.org/2000/svg">
  <defs
     id="defs5281" />
  <sodipodi:namedview
     id="namedview5279"
     pagecolor="#ffffff"
     bordercolor="#666666"
     borderopacity="1.0"
     inkscape:pageshadow="2"
     inkscape:pageopacity="0.0"
     inkscape:pagecheckerboard="0"
     showgrid="false"
     inkscape:zoom="0.25045843"
     inkscape:cx="1986.3576"
     inkscape:cy="4903.0093"
     inkscape:window-width="3840"
     inkscape:window-height="2054"
     inkscape:window-x="-11"
     inkscape:window-y="-11"
     inkscape:window-maximized="1"
     inkscape:current-layer="g5283" />
  <g
     inkscape:groupmode="layer"
     inkscape:label="Image"
     id="g5283">
    <path
       style="fill:#000000;stroke-width:3.36304"
       d="m 596.05759,7216.2452 c -10.3919,-10.3921 -12.471,-66.7939 -4.1667,-113.0326 3.6541,-20.3464 8.0094,-41.5335 9.6785,-47.0825 1.6691,-5.549 3.3947,-18.4126 3.8347,-28.5858 1.1045,-25.5406 5.1277,-51.6986 15.5174,-100.8911 4.8832,-23.1208 12.4497,-70.7919 16.8143,-105.9356 4.3647,-35.1437 11.8947,-79.788 16.7335,-99.2095 12.5266,-50.2788 14.4105,-90.1842 5.4549,-115.5516 -6.228,-17.6414 -6.6192,-22.9241 -3.7358,-50.4455 1.7713,-16.9073 4.8678,-48.9009 6.8812,-71.0969 4.2057,-46.3662 6.3577,-56.0433 21.6876,-97.528 12.2589,-33.174 21.3226,-73.3768 32.2235,-142.929 3.9137,-24.9706 9.8253,-57.5079 13.1371,-72.3053 3.3117,-14.7974 6.9565,-42.0379 8.0994,-60.5346 2.5342,-41.0116 4.0585,-46.7469 30.3887,-114.3432 19.6188,-50.3669 30.3044,-78.3668 55.2361,-144.739 13.8635,-36.9063 22.0014,-68.9157 37.5875,-147.8451 7.3051,-36.9934 15.6305,-74.8275 18.5008,-84.0759 12.4441,-40.0944 32.3418,-188.3202 38.5992,-287.5395 2.0414,-32.3692 5.2639,-70.0759 7.1612,-83.7927 1.8973,-13.7172 3.01,-61.3882 2.4727,-105.9356 -0.5373,-44.5478 0.067,-84.7795 1.343,-89.4036 1.276,-4.6242 4.0684,-15.9745 6.2054,-25.2228 2.137,-9.2484 4.9919,-18.3285 6.3443,-20.1782 1.3524,-1.8497 3.5112,-7.9031 4.7973,-13.4522 1.2861,-5.549 7.3181,-17.6643 13.4044,-26.9231 18.7585,-28.5357 21.29112,-35.816 22.80622,-65.5603 1.549,-30.4083 3.208,-34.4271 26.63059,-64.5108 6.743,-8.6605 21.7225,-33.631 33.2878,-55.4901 11.5652,-21.8587 26.2035,-49.1847 32.5295,-60.7243 7.7667,-14.1678 13.1363,-30.345 16.5348,-49.8149 8.244,-47.2312 20.8053,-92.8867 48.5296,-176.3872 7.0626,-21.2712 15.1454,-50.7818 17.9617,-65.5792 2.8164,-14.7973 8.3685,-43.5513 12.338,-63.8977 16.9517,-86.888 17.7806,-102.5201 9.9869,-188.3299 -2.016,-22.1961 -3.5405,-45.9865 -3.3879,-52.8676 0.9854,-44.4308 -19.3692,-136.7394 -53.6006,-243.0795 -28.1438,-87.4292 -38.3266,-114.4852 -60.7536,-161.4257 -43.6305,-91.3202 -51.7311,-108.8615 -62.5524,-135.453 -15.97009,-39.2439 -19.19199,-45.0045 -48.38151,-86.5074 -37.5297,-53.3612 -60.0118,-88.9119 -84.0071,-132.8399 -17.6685,-32.3454 -40.8377,-69.73 -116.0228,-187.2082 -3.7483,-5.8569 -19.6788,-30.6375 -35.401,-55.068 -15.7221,-24.4306 -36.4863,-56.716 -46.1425,-71.7455 -9.6563,-15.0295 -19.1148,-29.1542 -21.019,-31.3882 -1.9042,-2.234 -3.4622,-5.0423 -3.4622,-6.2406 0,-1.1983 -3.4051,-6.4689 -7.5668,-11.7125 -4.1618,-5.2436 -15.1337,-20.3756 -24.382,-33.6266 -9.2484,-13.2511 -20.2763,-28.3815 -24.5064,-33.623 -5.9043,-7.316 -7.7444,-13.9765 -7.9199,-28.6684 -0.1258,-10.526 -2.2168,-23.8968 -4.6469,-29.7128 -7.8936,-18.892 -21.5164,-75.9767 -30.51,-127.8482 -9.7096,-56.0005 -22.1144,-99.7119 -30.2021,-106.424 -4.3264,-3.5907 -10.4281,-3.3886 -34.4491,1.1408 -49.2489,9.2864 -88.3358,13.4077 -111.4642,11.7529 -20.4339,-1.4621 -47.751,-10.5152 -58.0189,-19.228 -2.3753,-2.0156 -10.6315,-7.7987 -18.347,-12.8513 -15.0379,-9.8479 -49.4923,-41.738 -59.0561,-54.6607 -8.2325,-11.1241 -23.7604,-53.0095 -21.6706,-58.4553 1.1674,-3.0423 6.007,-4.1513 14.6197,-3.35 7.081,0.6588 40.1151,2.8121 73.4092,4.785 89.8801,5.326 98.1982,7.6579 172.0442,48.2297 11.3892,6.2573 25.0094,15.4456 30.2673,20.4184 5.2579,4.9728 12.3761,10.6039 15.8183,12.5136 5.9087,3.278 6.1467,2.1853 4.258,-19.5466 -1.1003,-12.6602 -3.5613,-67.6628 -5.4689,-122.2281 -5.2146,-149.1549 -7.3096,-158.6558 -57.0999,-258.9537 -41.4134,-83.4231 -59.4654,-130.3054 -92.5882,-240.457 -10.4692,-34.8158 -20.4909,-53.4522 -38.0243,-70.7101 -22.6858,-22.3294 -42.7576,-29.124 -108.8352,-36.8427 -33.4695,-3.9096 -44.3022,-6.6894 -64.5667,-16.5684 -25.6005,-12.4803 -57.854803,-37.6555 -99.150801,-77.3894 -34.1473,-32.8556 -41.4516,-45.1678 -43.4615,-73.2592 -1.919,-26.8198 1.5287,-32.9479 18.5365,-32.9479 9.7911,0 11.3419,-0.968 9.4281,-5.8853 -3.8672,-9.9366 -3.6629,-11.4309 2.0802,-15.2204 7.168,-4.7296 81.642501,30.4228 169.324001,79.9218 26.8511,15.1583 62.498,39.9078 84.1892,58.4522 l 20.0649,17.1539 1.0166,-13.0454 c 0.5592,-7.175 -1.41,-26.4481 -4.3759,-42.8291 -21.7114,-119.9131 -22.2554,-124.2894 -24.8119,-199.617 -1.5307,-45.1006 -4.1012,-78.3854 -6.3633,-82.3944 -4.8277,-8.5562 -27.6817,-60.7662 -27.6817,-63.2391 0,-1.0219 -5.3662,-10.8663 -11.9249,-21.8764 -20.8596,-35.0172 -29.6451,-62.8262 -52.1991,-165.2272 -11.1978,-50.8409 -13.1295,-83.2818 -6.6741,-112.0868 1.9039,-8.4956 4.9357,-37.8734 6.7373,-65.284 3.0204,-45.95193 9.9219,-81.92843 23.9077,-124.62699 3.7577,-11.47232 37.0615,-66.35259 45.3442,-74.7214 8.0951,-8.1793 11.6302,-0.51044 25.2509,54.7787 25.9918,105.50616 30.6993,157.74309 31.8737,353.68589 1.068,178.1835 1.873,193.2992 12.2888,230.758 3.7978,13.658 8.2469,42.2364 9.8869,63.5076 9.2435,119.8925 39.066,266.4183 70.1189,344.5126 16.7029,42.0057 29.1122,79.3245 45.5744,137.0572 8.387,29.4133 25.2464,79.4829 37.4652,111.2659 21.0613,54.7835 30.7597,74.605 65.3592,133.58 l 14.7977,25.2227 -1.1025,77.3106 c -1.129,79.1627 0.628,103.0755 16.8051,228.7256 8.7107,67.6573 7.4522,61.2152 21.4947,110.0301 8.4247,29.2864 18.7174,54.3737 35.3701,86.2112 12.9182,24.6975 25.815,47.232 28.6596,50.0766 10.6092,10.6092 15.1335,20.8103 18.4759,41.6579 3.5476,22.1275 15.925,47.7785 24.6749,51.1361 7.7509,2.9743 22.0571,27.8583 30.8079,53.5867 4.3698,12.8479 12.389,30.0687 17.8203,38.2685 5.4313,8.1997 14.0554,26.5757 19.1647,40.8354 5.1094,14.2597 20.6994,46.7896 34.6445,72.2886 26.4372,48.3413 29.1166,51.4754 95.4965,111.7008 17.3776,15.7665 19.2268,18.9972 29.6506,51.8036 11.047,34.7676 18.3679,47.9702 64.22211,115.8198 9.8039,14.5068 19.7363,28.4167 22.0719,30.9107 18.3581,19.6038 73.7697,125.5858 99.5715,190.444 8.5819,21.5725 20.7975,48.4116 27.1456,59.6427 21.419,37.8941 58.2302,133.0478 64.183,165.907 0.9148,5.0499 6.7311,23.2103 12.925,40.3564 12.334,34.1436 25.9309,88.2958 34.0043,135.4291 6.2226,36.3285 23.1569,98.4263 28.2227,103.492 6.4383,6.4382 16.1088,-6.6679 30.058,-40.7371 24.3727,-59.5274 37.4686,-96.0728 46.5906,-130.0156 4.9709,-18.4967 12.4329,-38.1704 16.5823,-43.7195 10.5249,-14.0753 34.6276,-63.4453 53.3599,-109.2986 8.6898,-21.2712 23.4392,-54.5653 32.7764,-73.9868 19.4581,-40.4734 30.2114,-67.7117 41.8217,-105.9356 14.6771,-48.3204 34.5907,-131.308 39.748,-165.6443 5.6582,-37.6717 11.7336,-53.9834 32.1426,-86.2988 7.7253,-12.2321 19.2766,-34.7039 25.6697,-49.9373 6.3931,-15.2334 18.1124,-41.3173 26.0428,-57.9644 16.0588,-33.7094 46.2827,-109.5145 52.964,-132.8399 2.3842,-8.3235 13.2037,-32.5373 24.0433,-53.8085 21.125,-41.4549 28.6744,-70.6513 45.6536,-176.5594 3.855,-24.0457 12.2485,-76.2568 18.6522,-116.0247 6.4038,-39.7679 14.0717,-94.2491 17.04,-121.0693 6.1911,-55.9415 21.7693,-165.1967 24.0901,-168.9518 0.859,-1.39 3.0724,-30.6585 4.9185,-65.0412 3.214,-59.8575 3.0488,-63.4393 -3.8886,-84.2859 -8.4257,-25.3194 -46.3863,-84.2755 -66.823,-103.782 -7.7514,-7.3987 -39.2435,-43.7195 -69.9823,-80.7128 -69.4006,-83.5218 -87.9748,-102.8871 -109.799,-114.4753 -37.2179,-19.7619 -49.1832,-29.3144 -66.5312,-53.1148 -31.9873,-43.8847 -124.7029,-128.9785 -164.4659,-150.9457 -9.6618,-5.3377 -26.8096,-16.1793 -38.1062,-24.0926 -11.2967,-7.9132 -31.5113,-21.0474 -44.9214,-29.1871 -13.4101,-8.1397 -24.382,-15.9647 -24.382,-17.3888 0,-1.4242 -2.0288,-2.5894 -4.5084,-2.5894 -7.1152,0 -56.8487,-46.8701 -65.7838,-61.9963 -4.4418,-7.5196 -12.9107,-19.7254 -18.8198,-27.1241 -18.5506,-23.2269 -65.7228,-105.182 -69.6859,-121.0693 -3.1388,-12.5832 -4.2757,-31.4219 -2.0316,-33.666 2.0665,-2.0665 65.602,28.4532 87.908,42.2272 52.7901,32.5979 160.057,132.6835 189.0631,176.4058 27.3044,41.1572 36.7191,52.3811 50.9168,60.7015 8,4.6883 14.5455,10.0631 14.5455,11.944 0,1.8809 1.2842,2.6261 2.8537,1.656 1.5696,-0.97 5.7313,0.8445 9.2484,4.0321 3.517,3.1877 10.2966,8.2969 15.0658,11.3537 4.7691,3.0568 23.6861,18.9941 42.0379,35.4162 78.098,69.8862 107.6373,93.7776 130.5712,105.6061 11.276,5.8158 22.5359,12.2049 25.0219,14.1981 3.8798,3.1106 50.7523,57.3472 71.7203,82.9882 3.7815,4.6242 21.7223,25.0546 39.8686,45.401 30.5457,34.2491 77.2655,92.6896 77.2655,96.6493 0,0.9406 5.8902,8.154 13.0894,16.0297 12.0313,13.1621 14.0582,14.1377 25.077,12.0706 15.8182,-2.9675 23.7817,-13.8191 29.1002,-39.654 2.4002,-11.6589 5.4176,-22.7113 6.7053,-24.561 4.4822,-6.4384 23.1602,-70.8152 28.7591,-99.1231 3.6644,-18.5269 5.147,-38.5324 4.2372,-57.1716 -1.2815,-26.2527 -2.6845,-31.0844 -16.6257,-57.258 -34.2255,-64.2556 -44.7341,-81.2429 -73.8554,-119.3878 -5.6485,-7.3986 -18.5975,-27.0724 -28.7755,-43.7194 -34.4933,-56.4164 -59.8589,-90.2817 -78.6486,-105.0028 -37.3993,-29.301 -40.2213,-32.9367 -40.2213,-51.8187 0,-12.8979 -3.3022,-24.112 -13.5224,-45.9213 -7.4373,-15.8707 -17.3512,-33.8758 -22.0309,-40.0112 l -8.5085,-11.1552 h 17.0944 c 18.7117,0 36.1207,-5.8913 43.421,-14.694 7.1393,-8.6085 1.6408,-10.703 -11.5654,-4.4054 -7.1863,3.4269 -20.1279,5.6473 -32.9155,5.6473 -11.5902,0 -22.7411,1.668 -24.7799,3.7068 -4.5962,4.5963 -19.8629,-6.0015 -33.9643,-23.5773 -19.8838,-24.7827 -62.6484,-90.1267 -71.8796,-109.8314 -18.9542,-40.4593 -21.3816,-62.5901 -16.4989,-150.4199 5.1048,-91.8227 7.9439,-112.4306 16.695,-121.1818 6.3154,-6.3153 6.5845,-6.319 11.6732,-0.1587 57.177,69.2164 75.4759,96.7848 107.9669,162.6576 15.0506,30.5138 23.3644,52.5281 28.7499,76.1276 19.3398,84.7475 29.5467,113.5489 64.802,182.8553 28.4608,55.9496 62.4146,107.4017 89.8818,136.2029 22.5954,23.6929 53.8003,65.1822 53.8003,71.5318 0,1.8793 2.27,4.288 5.0445,5.3527 2.7745,1.0646 5.0446,4.1452 5.0446,6.8456 0,2.7005 1.8917,6.9097 4.2038,9.3539 2.312,2.4442 8.6634,10.4975 14.1142,17.8962 5.4507,7.3987 16.8009,20.7257 25.2227,29.6156 8.4218,8.89 17.4275,20.2402 20.0127,25.2228 2.5852,4.9826 11.2862,15.8694 19.3357,24.1929 8.0493,8.3235 14.6361,17.2369 14.6371,19.8075 0,5.1593 9.5721,13.5482 15.6472,13.7159 2.1311,0.059 5.417,-4.0548 7.3018,-9.1414 1.8849,-5.0866 8.893,-22.1119 15.5737,-37.8341 6.6806,-15.7222 16.6621,-41.9897 22.1811,-58.3722 11.6717,-34.6458 39.1913,-88.0707 64.6669,-125.5403 9.8262,-14.4525 25.1382,-41.149 34.0266,-59.3256 14.4414,-29.5322 18.021,-34.2384 33.6448,-44.2328 9.6162,-6.1514 22.9172,-17.7635 29.5578,-25.8047 6.6406,-8.0412 15.7065,-18.797 20.1464,-23.9017 11.8348,-13.6072 67.0593,-126.706 75.1108,-153.8259 1.3728,-4.6242 5.6386,-14.461 9.4794,-21.8597 3.8408,-7.3987 7.1383,-14.2088 7.3277,-15.1337 2.1246,-10.375 14.3935,-47.2692 22.367,-67.2607 5.533,-13.8725 12.3451,-33.4917 15.138,-43.5982 8.8404,-31.9898 22.8481,-58.9099 35.1358,-67.5238 6.267,-4.3934 23.1104,-17.4616 37.4297,-29.0406 l 26.035,-21.0526 12.9985,12.7411 c 7.1491,7.0076 13.6831,14.795 14.5199,17.3053 2.5744,7.7233 9.532,0.2217 9.532,-10.2772 0,-10.5397 -10.1451,-23.3427 -18.4967,-23.3427 -8.6682,0 -5.6306,-4.7158 11.9572,-18.563 9.351,-7.3622 26.0752,-23.5591 37.1649,-35.9931 14.1034,-15.8129 27.035,-26.2183 43.0285,-34.6226 34.0441,-17.88973 114.3448,-90.70223 123.1544,-111.67007 5.7182,-13.61003 37.3608,-45.27822 63.8269,-63.87857 11.0981,-7.79965 26.2317,-20.26551 33.6304,-27.70189 23.7401,-23.86114 24.7991,-24.22599 49.0281,-16.89004 11.6863,3.53835 21.8511,5.83009 22.5884,5.09282 2.0066,-2.00663 -25.1299,-15.2619 -31.2445,-15.2619 -7.5769,0 -2.6842,-7.71658 20.2574,-31.94883 10.5069,-11.09802 22.3938,-23.96163 26.4154,-28.5858 16.2604,-18.69673 50.4442,-47.51404 69.8624,-58.89479 30.7339,-18.01262 96.7155,-72.36021 152.586,-125.68181 16.6987,-15.93688 41.6693,-39.65015 55.4901,-52.69614 13.8208,-13.04602 36.1162,-35.96419 49.5453,-50.92926 20.41,-22.74462 28.6748,-29.23161 50.3688,-39.53403 14.2738,-6.7786 26.7436,-13.50044 27.7106,-14.93736 3.2024,-4.75869 52.1398,-32.14207 55.5667,-31.09277 1.8497,0.56636 2.2556,-0.0777 0.902,-1.43138 -1.3536,-1.35359 0.3128,-4.88477 3.7061,-7.84707 13.4292,-11.72832 17.4592,-25.788 16.7264,-58.35558 -1.6917,-75.17969 1.1787,-97.32717 18.1987,-140.40492 13.0909,-33.13411 23.5654,-48.254258 56.167,-81.077758 37.5678,-37.82382 49.0472,-46.2446 54.9682,-40.32281 4.5505,4.55095 3.8897,54.35985 -1.2174,91.744478 -4.261,31.19305 -32.3807,128.30896 -43.702,150.93307 -5.1481,10.28743 -10.4073,24.28606 -11.6872,31.10808 l -2.3269,12.40367 h 17.0301 c 21.0028,0 129.9423,-21.62839 151.3392,-30.0463 28.2751,-11.12384 149.7086,-50.32706 172.0459,-55.5428 34.2383,-7.99457 80.6035,-10.16413 113.7042,-5.32054 47.9495,7.01644 49.403,7.56353 49.403,18.59652 0,7.80448 -2.899,11.45725 -15.1337,19.06918 -8.3235,5.17853 -17.4037,10.43621 -20.1782,11.68374 -2.7745,1.24753 -11.8547,7.11877 -20.1782,13.0472 -8.3235,5.92844 -24.2139,15.73341 -35.3119,21.78884 -11.098,6.05542 -26.2317,14.48945 -33.6303,18.74227 -7.3987,4.25283 -34.0635,14.63879 -59.255,23.07991 -47.6966,15.98188 -81.2136,19.95228 -101.9333,12.07481 -23.518,-8.94154 -104.659,-2.6571 -218.4517,16.91926 -70.315,12.0967 -162.1839,67.62364 -217.0048,131.161 -16.7247,19.38403 -20.1501,25.59092 -22.1509,40.13914 -2.6648,19.37505 -8.0307,25.79367 -31.392,37.55034 -8.6019,4.32896 -17.1653,9.52835 -19.0297,11.55414 -1.8643,2.02576 -12.4699,10.75529 -23.5679,19.3989 -11.098,8.6436 -30.1899,24.38984 -42.4263,34.99164 -12.2365,10.6018 -34.1803,29.63561 -48.764,42.2973 -14.5838,12.66169 -31.288,25.5253 -37.1206,28.5858 -14.3002,7.50367 -42.2744,34.16787 -54.3033,51.76034 -5.3923,7.88635 -15.3751,24.93237 -22.1841,37.88005 -11.1881,21.27483 -38.9565,52.12705 -46.9167,52.12705 -1.6691,0 -11.5474,3.89675 -21.9518,8.65945 -18.7155,8.56706 -32.4132,22.9774 -63.6949,67.00879 -5.2564,7.3987 -23.0589,24.7761 -39.5613,38.6165 -16.5023,13.8403 -40.5978,34.88353 -53.5455,46.76263 -12.9477,11.879 -34.1455,30.0731 -47.1062,40.4312 -12.9607,10.3582 -28.0944,23.4632 -33.6304,29.1224 -5.5359,5.6591 -20.6589,18.7486 -33.6066,29.0878 -40.6119,32.4298 -94.5345,90.7985 -126.3673,136.7867 -67.2665,97.1783 -90.5485,148.6305 -90.5485,200.1084 0,44.1897 -9.4665,65.8984 -47.2433,108.3398 -21.2481,23.8718 -85.3475,119.6891 -127.6345,190.7911 -4.6242,7.7752 -13.4413,20.913 -19.5935,29.1951 -6.1522,8.2822 -16.5883,24.1387 -23.1912,35.2367 -6.6029,11.098 -13.8794,21.7303 -16.17,23.6274 -2.2905,1.897 -5.0386,14.4517 -6.1069,27.8991 -1.8143,22.8382 -2.9241,25.6038 -16.8342,41.9518 -8.1906,9.626 -23.5959,32.6355 -34.234,51.1322 -10.6382,18.4967 -25.1951,42.2689 -32.3487,52.827 -14.1271,20.8505 -20.0322,33.3145 -21.9747,46.3825 -0.6873,4.6242 -2.671,12.191 -4.4081,16.8152 -1.7372,4.6242 -5.3491,21.3441 -8.0266,37.1554 -2.6774,15.8114 -8.1456,34.303 -12.1515,41.0925 -4.006,6.7895 -16.1611,39.6791 -27.0116,73.0879 -10.8504,33.4088 -26.7249,75.32 -35.2765,93.1359 -18.6289,38.8101 -38.7224,105.9449 -47.1856,157.6529 -0.8865,5.416 -3.0521,16.6574 -4.8124,24.9809 -3.1891,15.079 -7.4357,45.6334 -20.0985,144.6105 -3.6679,28.6699 -8.8478,67.2607 -11.5108,85.7574 -11.1289,77.2986 -16.1647,168.9985 -10.1426,184.6919 3.7065,9.6589 22.4568,5.997 55.4319,-10.8257 17.4059,-8.88 38.3144,-20.993 46.4631,-26.9177 8.1488,-5.9247 25.5525,-13.9221 38.6749,-17.7719 36.7044,-10.7681 61.8691,-25.0978 156.6989,-89.2299 15.7222,-10.6327 40.7587,-31.9513 55.6367,-47.3748 20.1412,-20.8795 30.4496,-28.9751 40.3565,-31.6934 16.1889,-4.4419 70.764,-41.8604 84.2438,-57.7603 5.376,-6.3412 14.0008,-17.0258 19.1662,-23.7437 7.6038,-9.889 11.6114,-12.2144 21.0509,-12.2144 7.415,0 22.3596,-5.69 41.0539,-15.6308 24.2366,-12.888 36.0116,-22.33 67.1039,-53.8086 31.4082,-31.7983 39.3953,-38.1777 47.7988,-38.1777 5.5491,0 17.3339,-2.8555 26.1883,-6.3456 8.8544,-3.4901 16.8556,-6.4191 17.7804,-6.509 9.7652,-0.9488 59.7843,-22.4294 71.0613,-30.517 6.7145,-4.8155 24.8749,-17.9277 40.3564,-29.1382 15.4816,-11.2105 41.4822,-28.5261 57.7791,-38.479 26.1903,-15.9951 32.2092,-21.6335 51.8363,-48.5595 25.3742,-34.8104 32.2814,-42.9472 81.2047,-95.6595 19.5467,-21.0606 40.1263,-43.9215 45.7325,-50.8019 23.983,-29.4346 86.3398,-101.144 112.4294,-129.2921 15.5373,-16.7632 36.2155,-40.3155 45.9516,-52.3383 9.7362,-12.0229 27.713,-30.6978 39.9486,-41.4998 13.7856,-12.1705 25.5843,-26.2398 31.0229,-36.9934 16.5829,-32.7886 36.0533,-57.7965 79.9192,-102.6488 51.7983,-52.9629 101.3747,-96.746 136.4343,-120.4911 13.8726,-9.3956 28.8915,-21.0401 33.3758,-25.8766 4.4843,-4.8366 9.8954,-8.7938 12.0252,-8.7938 2.1298,0 7.4962,-3.8577 11.9257,-8.5726 15.6391,-16.6471 63.5953,-45.236 75.8805,-45.236 2.5724,0 4.6773,2.7428 4.6773,6.0952 0,14.9782 -28.2925,86.1369 -54.4052,136.8338 -5.7161,11.098 -13.4999,26.2317 -17.2971,33.6303 -11.1848,21.7929 -34.4936,50.4137 -55.2419,67.8314 -10.6413,8.9331 -39.7379,35.548 -64.6589,59.1443 -45.1015,42.7039 -54.4051,49.0285 -104.344,70.934 -36.6591,16.0802 -119.0572,91.7539 -234.9149,215.7437 -87.9611,94.1351 -104.7517,113.0273 -104.7517,117.8636 0,9.5594 18.6399,11.2843 49.3265,4.5646 97.2649,-21.2989 146.4088,-24.8513 239.8946,-17.3408 50.2331,4.0356 86.0007,12.5667 91.1323,21.7361 2.1213,3.7907 -2.7573,10.2898 -19.1147,25.4641 -38.1778,35.4164 -109.5793,73.1161 -154.412,81.5288 -7.3987,1.3883 -26.3158,5.1311 -42.0379,8.3172 -37.3056,7.5602 -79.2877,5.1397 -117.9677,-6.8014 -37.7931,-11.6672 -44.8782,-19.2013 -46.2219,-49.1509 -0.6581,-14.6683 0.7977,-26.6333 4.2441,-34.8818 6.4668,-15.477 6.6479,-21.8227 0.623,-21.8227 -7.7551,0 -19.8838,43.3932 -17.1759,61.4507 l 2.2918,15.2829 -17.9916,3.5933 c -9.8953,1.9763 -22.5316,4.3255 -28.0806,5.2205 -16.3983,2.6447 -82.2007,37.1224 -107.6172,56.3869 -44.7406,33.9113 -136.6846,93.4782 -144.2873,93.4782 -7.0456,0 -60.1488,39.8136 -67.0869,50.2977 -5.9042,8.9219 -17.5131,17.6593 -40.0542,30.1466 -17.4571,9.6709 -48.9924,31.0887 -70.0783,47.5951 -21.0859,16.5063 -41.8787,32.7861 -46.2062,36.1774 -4.3274,3.3911 -21.2968,13.4452 -37.7097,22.3423 -31.6282,17.145 -45.401,30.5989 -68.8495,67.2548 -7.0219,10.9769 -17.4423,24.2813 -23.1566,29.5652 -17.3629,16.0553 -74.04,46.2651 -118.757,63.2993 -37.6421,14.3392 -66.7448,30.3522 -76.5995,42.1469 -8.3207,9.9586 -68.4212,43.8043 -112.6617,63.4456 -37.2361,16.5316 -46.3261,26.4277 -62.045,67.5469 -7.0227,18.3708 -21.6922,54.913 -32.5989,81.2049 -22.3239,53.8143 -45.152,112.9538 -68.5235,177.52 -8.7039,24.0457 -18.9307,49.7729 -22.726,57.1716 -3.7953,7.3987 -13.2848,30.8558 -21.0879,52.127 -7.803,21.2712 -19.6691,51.7366 -26.3692,67.7013 -17.4125,41.4898 -26.0531,79.3824 -28.6567,125.6733 -2.1735,38.6433 -2.7993,41.2563 -14.7418,61.5556 -6.8596,11.6593 -12.472,21.9119 -12.472,22.7829 0,0.871 -6.035,11.1394 -13.4111,22.8185 -7.3761,11.6792 -24.1141,43.8012 -37.1956,71.3821 -13.0815,27.581 -43.2094,89.4948 -66.9509,137.5862 -23.7415,48.0914 -45.9696,94.249 -49.3957,102.5726 -3.4262,8.3235 -17.0207,36.3207 -30.2101,62.2161 -13.1894,25.8954 -28.1613,56.9194 -33.2708,68.9422 -5.1095,12.0229 -18.0991,40.9991 -28.8658,64.3917 -34.1865,74.2767 -100.4777,264.9621 -122.2163,351.5526 -10.8015,43.0256 -10.8179,42.4509 1.141,39.8244 5.3553,-1.1761 17.7915,-2.2008 27.6361,-2.2771 15.29,-0.1178 19.0182,1.1622 25.575,8.7849 9.2337,10.7348 10.3026,31.6804 2.2445,43.9787 -4.2066,6.4201 -8.3334,8.2892 -18.301,8.2892 -10.6374,0 -16.1986,2.9131 -32.0622,16.795 -39.6461,34.6934 -57.4885,58.9661 -85.3021,116.0449 -22.2597,45.6811 -29.298,64.73 -46.5968,126.1138 -45.0713,159.9326 -61.1243,234.7621 -73.2289,341.3481 -7.1222,62.7142 -9.8462,168.7629 -5.2262,203.4637 2.4754,18.5922 2.7454,35.0522 0.7725,47.0825 -2.414,14.7203 -1.5141,26.049 4.408,55.49 l 7.4413,36.9934 -15.9583,19.2628 c -18.9517,22.8764 -33.41369,52.0834 -42.91631,86.6728 -22.6446,82.4267 -35.8129,131.3108 -46.202,171.5148 -6.4527,24.9706 -15.2529,57.5079 -19.5561,72.3053 -8.4493,29.0549 -19.5569,77.939 -25.4899,112.1801 -2.0373,11.7582 -7.5448,34.4587 -12.2389,50.4455 -7.7143,26.2734 -8.3305,32.6484 -6.4103,66.3238 l 2.1243,37.2564 -11.7272,19.475 c -14.4714,24.0319 -15.9113,33.9249 -14.4655,99.3867 1.3136,59.4767 -2.781,90.165 -18.1732,136.203 -22.7331,67.9948 -33.6563,123.4261 -46.3904,235.4124 -1.8929,16.6471 -10.2349,66.5881 -18.5378,110.9802 -8.3029,44.3921 -16.7758,96.6032 -18.8288,116.0247 -5.7935,54.8101 -6.7902,60.7391 -14.1333,84.0759 -10.2872,32.6931 -28.1094,66.314 -48.1331,90.802 -21.0638,25.7598 -27.003,31.0586 -45.2405,40.3624 -25.7243,13.1236 -29.7901,13.9112 -36.6104,7.091 z m 246.8123,-995.8294 c 0,-3.704 -5.3615,-5.5692 -20.1782,-7.0186 -21.6297,-2.1164 -40.6707,-10.3733 -66.8146,-28.9736 -17.2039,-12.2401 -26.3488,-11.4764 -19.3423,1.6156 4.2357,7.9146 33.4513,27.6072 52.5265,35.4054 17.4081,7.1165 53.8086,6.4207 53.8086,-1.0288 z m 9.4974,-28.5858 c -0.3252,-1.8497 -6.3788,-4.7005 -13.4521,-6.3349 -7.0733,-1.6348 -18.914,-4.3844 -26.3126,-6.1103 -10.4404,-2.4359 -18.9199,-8.8768 -37.874,-28.7691 -18.2406,-19.1431 -25.3896,-24.6628 -28.245,-21.8073 -4.7796,4.7796 0,12.4937 24.0608,38.8182 12.8468,14.0561 21.6621,20.4506 33.143,24.0406 17.2021,5.3792 49.6167,5.4875 48.6799,0.1615 z M 1020.535,4904.2449 c 19.2022,-8.0232 36.2044,-34.3827 26.1754,-40.5808 -1.6424,-1.0153 -8.6108,5.0183 -15.4854,13.4081 -7.8111,9.5322 -16.1777,15.9892 -22.3066,17.2151 -10.70989,2.1419 -14.57949,5.9545 -11.34889,11.1817 2.84129,4.5973 9.93779,4.2193 22.96549,-1.2241 z m 632.6424,-1462.537 c 20.7396,-18.2509 11.8003,-42.4348 -21.9126,-59.2812 -24.8254,-12.4056 -36.7566,-13.6311 -36.7566,-3.7757 0,4.0904 2.242,6.7261 5.7219,6.7261 7.8561,0 39.2714,19.4235 44.2129,27.336 5.9179,9.4761 -0.6025,19.7464 -12.5365,19.7464 -6.5329,0 -15.3756,-5.1874 -28.6631,-16.8151 -10.5686,-9.2484 -20.5517,-16.8152 -22.1845,-16.8152 -7.6591,0 -6.117,7.8877 4.0199,20.5623 23.4366,29.3034 50.1943,38.0722 68.0986,22.3164 z M 707.00849,2973.151 c 8.9744,-4.5612 29.9258,-26.4405 29.9258,-31.2511 0,-7.4164 -5.5817,-5.9479 -17.1637,4.5158 -7.0403,6.3605 -18.9222,14.6876 -26.4043,18.5046 -7.482,3.8171 -13.6036,8.1705 -13.6036,9.6743 0,8.2683 9.0842,7.7869 27.2458,-1.4436 z m -8.3055,-43.7047 c 10.0139,-10.6178 14.8122,-21.6203 9.4288,-21.6203 -3.0958,0 -35.0917,28.3623 -35.0936,31.1081 0,6.9107 15.6609,1.1194 25.6648,-9.4878 z M 2879.1877,820.94435 c 0,-0.98991 -2.4948,-5.60736 -5.544,-10.26103 -9.8192,-14.98605 -38.1755,-24.76256 -38.1755,-13.16191 0,2.77451 1.8917,5.09483 4.2038,5.15628 2.3121,0.0615 10.2573,4.47751 17.6559,9.8135 12.5422,9.04549 21.8598,12.64858 21.8598,8.45316 z"
       id="path921" />
  </g>
</svg>
