<?xml version="1.0" encoding="UTF-8" standalone="no"?>
<!-- Created with Inkscape (http://www.inkscape.org/) -->

<svg
   version="1.1"
   id="svg824"
   width="3971.8311"
   height="7250.7041"
   viewBox="0 0 3971.8311 7250.7041"
   sodipodi:docname="Zweig-inkbw.svg"
   inkscape:version="1.1.2 (0a00cf5339, 2022-02-04, custom)"
   xmlns:inkscape="http://www.inkscape.org/namespaces/inkscape"
   xmlns:sodipodi="http://sodipodi.sourceforge.net/DTD/sodipodi-0.dtd"
   xmlns="http://www.w3.org/2000/svg"
   xmlns:svg="http://www.w3.org/2000/svg">
  <defs
     id="defs828" />
  <sodipodi:namedview
     id="namedview826"
     pagecolor="#ffffff"
     bordercolor="#666666"
     borderopacity="1.0"
     inkscape:pageshadow="2"
     inkscape:pageopacity="0.0"
     inkscape:pagecheckerboard="0"
     showgrid="false"
     inkscape:zoom="0.25045843"
     inkscape:cx="1986.3575"
     inkscape:cy="3625.3521"
     inkscape:window-width="3840"
     inkscape:window-height="2054"
     inkscape:window-x="-11"
     inkscape:window-y="-11"
     inkscape:window-maximized="1"
     inkscape:current-layer="g830" />
  <g
     inkscape:groupmode="layer"
     inkscape:label="Image"
     id="g830">
    <path
       style="fill:#000000;stroke-width:3.38028"
       d="m 592.53445,7244.9288 c -10.4452,-10.4454 -12.535,-67.1364 -4.1881,-113.6123 3.6728,-20.4507 8.0505,-41.7465 9.7282,-47.3239 1.6776,-5.5775 3.4121,-18.5071 3.8543,-28.7324 1.1102,-25.6716 5.154,-51.9637 15.597,-101.4085 4.9083,-23.2394 12.5135,-71.1549 16.9006,-106.4788 4.387,-35.324 11.9447,-80.1972 16.795,-99.7183 13.0321,-52.4512 14.7178,-87.9154 5.4961,-115.6266 -6.4116,-19.267 -6.9271,-24.8803 -4.0101,-43.6638 1.8411,-11.855 3.7497,-32.4423 4.2414,-45.7491 l 0.894,-24.1943 13.6383,9.674 c 7.5011,5.3209 25.8073,13.6807 40.6806,18.577 23.611,7.7733 30.6979,8.6623 55.8535,7.006 32.0266,-2.1086 49.12,-6.8022 51.9875,-14.2746 2.8156,-7.3376 -5.9846,-9.2366 -24.1398,-5.2097 -43.8174,9.719 -66.6921,6.9441 -107.778,-13.0746 -11.3831,-5.5464 -22.6072,-10.0841 -24.9426,-10.0841 -3.1657,0 -3.6491,-4.4995 -1.9,-17.6853 1.2904,-9.7267 2.9513,-18.2903 3.691,-19.0299 0.7398,-0.74 7.89,5.3892 15.8895,13.6201 27.374,28.1659 68.1922,40.6053 109.5864,33.3969 12.4047,-2.1604 26.6808,-6.0619 31.7246,-8.6701 5.0439,-2.6082 9.9932,-3.9198 10.9986,-2.9145 2.0342,2.0343 -8.2925,41.2878 -16.0888,61.1568 -2.7629,7.0411 -10.2074,34.0979 -16.5434,60.126 -10.5329,43.2693 -15.8889,77.2804 -25.5512,162.2536 -1.9026,16.7324 -10.2874,66.9295 -18.6329,111.5493 -8.3455,44.6197 -16.8618,97.0985 -18.9253,116.6197 -5.8233,55.0911 -6.825,61.0506 -14.2059,84.507 -10.3399,32.8607 -28.2535,66.6541 -48.3799,91.2676 -21.1718,25.892 -27.1414,31.2179 -45.4725,40.5695 -25.8562,13.1908 -29.9428,13.9825 -36.7981,7.1273 z m 133.2614,-742.6594 c -7.3745,-2.6998 -22.077,-11.7194 -32.6723,-20.0433 -10.5952,-8.3243 -21.1128,-15.1349 -23.3722,-15.1349 -6.0401,0 -2.3368,-17.733 11.4013,-54.5943 12.8112,-34.3741 21.8289,-74.0444 32.925,-144.8423 3.9337,-25.0986 9.8757,-57.8029 13.2044,-72.6761 3.3288,-14.8732 6.9922,-42.2535 8.141,-60.8451 2.5472,-41.2218 4.0793,-46.9866 30.5445,-114.9295 19.7195,-50.6252 30.4598,-78.7687 55.5195,-145.4813 13.9345,-37.0955 22.1141,-69.269 37.7802,-148.6032 7.3425,-37.1831 15.7106,-75.2113 18.5957,-84.5071 12.5079,-40.3 32.5076,-189.2859 38.7971,-289.0141 2.0519,-32.5352 5.2909,-70.4352 7.198,-84.2224 1.907,-13.7875 3.0254,-61.703 2.4853,-106.4789 -0.5401,-44.7762 0.067,-85.2141 1.3499,-89.862 1.2825,-4.6479 4.0893,-16.0564 6.2372,-25.3521 2.148,-9.2958 5.0175,-18.4226 6.3769,-20.2817 1.3593,-1.8592 3.5291,-7.9437 4.8219,-13.5212 1.2926,-5.5774 7.3556,-17.7549 13.4731,-27.0611 18.8547,-28.6821 21.4002,-35.9997 22.9232,-65.8966 1.5569,-30.5642 3.2244,-34.6036 26.76705,-64.8416 6.7776,-8.7049 21.834,-33.8035 33.4585,-55.7746 11.6246,-21.9708 26.3379,-49.437 32.6964,-61.0357 7.8065,-14.2405 13.2036,-30.5007 16.6195,-50.0705 8.2863,-47.4733 20.9121,-93.363 48.7785,-177.2917 7.0988,-21.3803 15.2231,-51.0422 18.0539,-65.9155 2.8308,-14.8732 8.4113,-43.7746 12.4012,-64.2253 17.0386,-87.3337 17.8718,-103.0459 10.0381,-189.2958 -2.0263,-22.3099 -3.5587,-46.2223 -3.4053,-53.1387 0.9905,-44.6586 -19.4685,-137.4406 -53.8755,-244.3261 -28.2881,-87.8775 -38.523,-115.0722 -61.0651,-162.2535 -43.8542,-91.7885 -51.9963,-109.4197 -62.87305,-136.1476 -16.0521,-39.4452 -19.2905,-45.2353 -48.6297,-86.951 -37.7221,-53.6349 -60.3196,-89.3679 -84.4379,-133.5211 -17.7591,-32.5114 -41.0471,-70.0877 -116.6178,-188.1683 -3.7676,-5.8869 -19.7797,-30.7946 -35.5825,-55.3504 -15.8028,-24.5558 -36.6735,-57.0069 -46.3792,-72.1134 -9.7058,-15.1066 -19.2128,-29.3037 -21.1268,-31.5492 -1.914,-2.2455 -3.4799,-5.0681 -3.4799,-6.2726 0,-1.2045 -3.4226,-6.5021 -7.6057,-11.7726 -4.183,-5.2704 -15.2112,-20.48 -24.507,-33.799 -9.2958,-13.3191 -20.4354,-28.5926 -24.7547,-33.9412 -16.7529,-20.745 7.497,-33.547 28.7916,-15.1997 8.5619,7.377 9.4479,10.1712 9.1106,28.7324 -0.2728,15.0065 0.8366,20.5608 4.1064,20.5608 7.7231,0 12.3227,-13.6875 10.6054,-31.5598 -1.3035,-13.5655 -3.7308,-18.9222 -11.8694,-26.194 -11.6136,-10.3768 -34.0757,-15.5498 -44.1374,-10.1649 -5.7523,3.0786 -6.4395,2.6494 -4.94,-3.0848 0.958,-3.6634 -0.6382,-12.6091 -3.5472,-19.8792 -8.9483,-22.3641 -22.0285,-76.8033 -31.2951,-130.2495 -9.7593,-56.2877 -22.2278,-100.2231 -30.3569,-106.9697 -4.3487,-3.6091 -10.4816,-3.406 -34.6258,1.1466 -49.5015,9.334 -88.7888,13.4765 -112.0359,11.8132 -20.5387,-1.4696 -47.9958,-10.5691 -58.3164,-19.3266 -2.3875,-2.0259 -10.6859,-7.8387 -18.4411,-12.9172 -15.1149,-9.8984 -49.7461,-41.952 -59.3589,-54.941 -8.2747,-11.1811 -23.8822,-53.2813 -21.7818,-58.7551 1.1735,-3.0579 6.0379,-4.1725 14.6947,-3.3671 7.1174,0.6621 40.3209,2.8264 73.7857,4.8095 90.341,5.3533 98.7018,7.6972 172.9265,48.477 11.4476,6.2894 25.1377,15.5249 30.4225,20.5231 5.2848,4.9984 12.4396,10.6583 15.8994,12.5778 5.9391,3.2948 6.1783,2.1965 4.2799,-19.6468 -1.1059,-12.7251 -3.5796,-68.0098 -5.497,-122.8549 -5.2413,-149.9198 -7.347,-159.4695 -57.3927,-260.2817 -41.6258,-83.851 -59.7704,-130.9737 -93.063,-241.6901 -10.5229,-34.9943 -20.596,-53.7264 -38.2193,-71.0728 -22.8022,-22.4438 -42.9769,-29.2733 -109.3933,-37.0316 -33.6412,-3.9296 -44.5294,-6.7237 -64.8978,-16.6533 -25.7318,-12.5443 -58.151604,-37.8487 -99.659404,-77.7863 -34.3224,-33.0241 -41.6641,-45.3995 -43.6843999,-73.6349 -1.9288,-26.9574 1.5366,-33.1169 18.6315999,-33.1169 9.8414,0 11.4001,-0.973 9.4765,-5.9155 -3.887,-9.9875 -3.6817,-11.4895 2.0909,-15.2984 7.2047,-4.7538 82.061104,30.5788 170.192304,80.3317 26.9888,15.236 62.8185,40.1124 84.621,58.7519 l 20.1677,17.2419 1.0219,-13.1123 c 0.562,-7.2118 -1.4172,-26.5837 -4.3984,-43.0488 -2.9812,-16.465 -9.2677,-51.2322 -13.9701,-77.2604 -6.3355,-35.0682 -9.0166,-63.9567 -10.3526,-111.5493 -0.9916,-35.3239 -3.3903,-67.2347 -5.3304,-70.9128 -1.9401,-3.678 -3.9241,-11.6865 -4.4089,-17.7966 -0.4848,-6.11 -9.3722,-28.7666 -19.7497,-50.3478 -10.3775,-21.5814 -18.8681,-39.7332 -18.8681,-40.3375 0,-0.6042 4.6015,0.5055 10.2257,2.4661 14.7234,5.1326 31.3347,0.8878 48.852,-12.4835 l 15.2885,-11.67 0.066,17.7242 c 0.092,24.7874 8.782,85.0916 15.4619,107.3016 3.0755,10.2254 6.932,36.0845 8.5702,57.4648 9.2095,120.196 39.2327,267.7464 70.46,346.2793 16.7885,42.2211 29.2615,79.7313 45.8081,137.7601 8.43,29.5641 25.3758,79.8904 37.6574,111.8364 21.1692,55.0645 30.9174,74.9876 65.6943,134.265 l 14.8736,25.3521 -1.1082,77.7071 c -1.1347,79.5687 0.6312,103.604 16.8913,229.8986 8.7553,68.0042 7.4904,61.5291 21.6049,110.5943 8.4966,29.5362 18.8288,54.6882 35.8013,87.1521 13.1219,25.0986 25.5871,46.7113 27.7004,48.0283 2.8257,1.7608 2.7318,3.5052 -0.3546,6.5915 -2.3083,2.3084 -4.197,6.8184 -4.197,10.0223 0,9.3355 -16.431,26.2732 -34.2432,35.2994 -9.0536,4.5878 -16.4611,9.7472 -16.4611,11.4653 0,12.0515 30.7935,3.1519 47.7437,-13.7984 6.8272,-6.8271 13.5054,-17.3865 14.8406,-23.4653 3.1384,-14.2894 7.1754,-7.7942 12.1312,19.5178 3.7907,20.891 16.5057,46.2727 24.7689,49.4436 7.7906,2.9895 22.1702,28.0012 30.9658,53.8615 4.3923,12.9137 12.4526,30.2229 17.9117,38.4647 5.4592,8.2418 14.1276,26.712 19.2631,41.0448 5.1356,14.3329 20.8055,47.0296 34.8221,72.6594 26.5728,48.5892 29.266,51.7393 95.9862,112.2736 17.4668,15.8473 19.3254,19.0946 29.8027,52.0693 11.1037,34.9458 18.4621,48.2161 64.55135,116.4137 9.8542,14.5812 19.8376,28.5624 22.1851,31.0692 18.4523,19.7043 74.148,126.2299 100.0822,191.4206 8.6259,21.6832 20.9041,48.6598 27.2848,59.9486 21.5288,38.0884 58.5288,133.7301 64.5121,166.7578 0.9195,5.0758 6.7656,23.3293 12.9913,40.5634 12.3973,34.3186 26.0639,88.7486 34.1787,136.1236 6.2545,36.5148 23.2757,98.931 28.3674,104.0227 6.4713,6.4712 16.1915,-6.7021 30.2122,-40.946 24.4978,-59.8327 37.6608,-96.5655 46.8296,-130.6824 4.9964,-18.5915 12.4967,-38.3662 16.6673,-43.9436 10.579,-14.1475 34.8053,-63.7707 53.6336,-109.8592 8.7344,-21.3803 23.5594,-54.8451 32.9444,-74.3662 19.558,-40.681 30.3664,-68.0589 42.0362,-106.4788 14.7524,-48.5683 34.7682,-131.9815 39.9519,-166.4938 5.6872,-37.8649 11.7938,-54.2603 32.3074,-86.7414 7.7649,-12.2948 19.3755,-34.8818 25.8014,-50.1933 6.4258,-15.3116 18.2052,-41.5293 26.1763,-58.2617 16.1412,-33.8822 46.5201,-110.0761 53.2357,-133.5211 2.3964,-8.3662 13.2713,-32.7042 24.1665,-54.0845 21.2334,-41.6675 28.8215,-71.0136 45.8877,-177.4648 3.8748,-24.169 12.3114,-76.6479 18.7479,-116.6197 6.4366,-39.9718 14.1439,-94.7324 17.1273,-121.6902 6.2229,-56.2284 21.8811,-166.0439 24.2138,-169.8182 0.8634,-1.3971 3.088,-30.8157 4.9436,-65.3748 3.2305,-60.1644 3.0644,-63.7645 -3.9085,-84.7181 -8.4689,-25.4492 -46.6242,-84.7077 -67.1656,-104.3142 -7.7913,-7.4366 -39.4448,-43.9437 -70.3413,-81.1268 -69.7565,-83.95 -88.426,-103.4147 -110.3621,-115.0623 -37.4718,-19.8967 -49.4194,-29.4437 -66.8114,-53.3872 -9.6788,-13.3246 -24.3306,-30.8887 -32.5596,-39.0313 -11.3955,-11.2759 -13.8749,-15.4937 -10.4017,-17.6948 2.5081,-1.5894 5.628,-2.9132 6.933,-2.9416 3.8301,-0.083 22.9793,-29.5072 22.9793,-35.3087 0,-9.9191 -9.7829,-5.3547 -19.834,9.2542 -17.4483,25.3602 -17.9359,25.4375 -40.0405,6.3495 -60.55,-52.2869 -72.5404,-62.1774 -80.1894,-66.1458 l -8.418,-4.3673 16.7762,-19.8409 c 14.8224,-17.5304 20.5886,-28.5843 14.9106,-28.5843 -8.1758,0 -29.7043,17.5459 -35.9705,29.3164 l -7.5092,14.1052 -25.4965,-17.728 c -14.023,-9.7504 -36.5245,-24.4335 -50.0034,-32.6293 -13.4789,-8.1957 -24.5071,-16.0725 -24.5071,-17.504 0,-1.4314 -1.7447,-2.6026 -3.8772,-2.6026 -4.5518,0 -31.6152,-21.3531 -42.6931,-33.6851 -8.4406,-9.396 -7.8142,-20.8015 1.7238,-31.3853 12.6224,-14.0064 51.1987,-4.2046 76.177,19.3557 6.9459,6.5516 13.4719,11.9119 14.5023,11.9119 5.333,0 -12.2265,-22.3251 -24.5702,-31.2385 -11.9246,-8.6108 -14.5936,-12.6979 -16.472,-25.2241 -2.2736,-15.1616 -0.406,-43.6967 3.0887,-47.1914 1.0514,-1.0513 20.6241,16.976 43.495,40.0607 50.1666,50.6353 51.8419,52.5451 72.1789,82.2794 26.4418,38.6602 29.3408,41.9744 44.4735,50.8428 7.9798,4.6764 14.5087,10.0494 14.5087,11.9399 0,1.8905 1.2907,2.6395 2.8683,1.6645 1.5776,-0.975 5.7607,0.8488 9.2958,4.0528 3.5351,3.204 10.3494,8.3394 15.143,11.4119 4.7936,3.0725 23.8077,19.0915 42.2535,35.5978 78.4986,70.2446 108.1894,94.2585 131.2408,106.1477 11.3339,5.8456 22.6515,12.2675 25.1503,14.2709 3.8996,3.1265 51.0126,57.6413 72.0881,83.4138 3.8008,4.6479 21.8337,25.1831 40.073,45.6338 30.7024,34.4248 77.6618,93.1649 77.6618,97.1449 0,0.9454 5.9204,8.1958 13.1564,16.1119 12.0931,13.2296 14.1304,14.2103 25.2057,12.1325 15.8993,-2.9827 23.9036,-13.89 29.2495,-39.8573 2.4125,-11.7187 5.4453,-22.8278 6.7396,-24.687 4.5052,-6.4714 23.279,-71.1784 28.9066,-99.6314 3.6831,-18.6219 5.1734,-38.73 4.2589,-57.4648 -1.2881,-26.3873 -2.6982,-31.2438 -16.711,-57.5516 -34.4009,-64.5852 -44.9635,-81.6596 -74.2341,-120 -5.6774,-7.4367 -18.6929,-27.2113 -28.9231,-43.9437 -34.6701,-56.7057 -60.1658,-90.7447 -79.0518,-105.5412 -37.5912,-29.4514 -40.4277,-33.1056 -40.4277,-52.0845 0,-12.964 -3.3191,-24.2356 -13.5917,-46.1567 -7.4754,-15.9522 -17.4402,-34.0496 -22.1438,-40.2164 l -8.5522,-11.2125 h 17.182 c 18.8077,0 36.306,-5.9215 43.6437,-14.7693 7.176,-8.6527 1.6492,-10.7579 -11.6247,-4.428 -7.2231,3.4445 -20.2311,5.6762 -33.0843,5.6762 -11.6496,0 -22.8577,1.6766 -24.9069,3.7259 -4.6199,4.6198 -19.9648,-6.0323 -34.1386,-23.6982 -19.9857,-24.9098 -62.9696,-90.589 -72.2481,-110.3947 -19.0514,-40.6668 -21.4913,-62.911 -16.5835,-151.1913 5.1309,-92.2936 7.9845,-113.0072 16.7806,-121.8032 6.3477,-6.3478 6.6182,-6.3514 11.7331,-0.1596 57.4701,69.5714 75.8629,97.2812 108.5205,163.4918 15.1278,30.6703 23.4842,52.7975 28.8973,76.518 19.439,85.1821 29.6982,114.1312 65.1343,183.793 28.6068,56.2365 62.7348,107.9525 90.3428,136.9014 22.7113,23.8144 54.0761,65.5165 54.0761,71.8986 0,1.8889 2.2817,4.31 5.0705,5.3802 2.7887,1.0701 5.0704,4.1664 5.0704,6.8807 0,2.7143 1.9014,6.9452 4.2253,9.4019 2.324,2.4567 8.708,10.5513 14.1866,17.9879 5.4787,7.4366 16.8872,20.832 25.3522,29.7675 8.4649,8.9355 17.5168,20.344 20.1153,25.3522 2.5984,5.0081 11.3441,15.9507 19.4348,24.3169 8.0906,8.3662 14.7111,17.3253 14.7121,19.9091 0,5.1858 9.6212,13.6177 15.7275,13.7862 2.1421,0.059 5.4448,-4.0756 7.3393,-9.1882 1.8945,-5.1127 8.9386,-22.2254 15.6535,-38.0282 6.7148,-15.8028 16.7476,-42.205 22.2949,-58.6715 11.7315,-34.8234 39.3923,-88.5223 64.9985,-126.1841 9.8766,-14.5266 25.2672,-41.36 34.2011,-59.6299 14.5155,-29.6836 18.1135,-34.4139 33.8174,-44.4596 9.6655,-6.1829 23.0347,-17.8546 29.7094,-25.937 6.6746,-8.0824 15.787,-18.8934 20.2496,-24.0243 11.8956,-13.6769 67.4032,-127.3558 75.496,-154.6147 1.3799,-4.6479 5.6675,-14.5352 9.528,-21.9719 3.8606,-7.4366 7.175,-14.2816 7.3653,-15.2112 2.1356,-10.4283 14.4674,-47.5117 22.4817,-67.6057 5.5614,-13.9436 12.4084,-33.6634 15.2156,-43.8217 8.8858,-32.1539 22.9654,-59.2121 35.316,-67.8702 6.2992,-4.4158 23.229,-17.5511 37.6217,-29.1894 l 26.1686,-21.1606 13.065,12.8064 c 7.1858,7.0435 13.7533,14.8709 14.5944,17.3941 2.5876,7.7628 9.5809,0.2228 9.5809,-10.3299 0,-10.5938 -10.1971,-23.4625 -18.5915,-23.4625 -8.7127,0 -5.6595,-4.74 12.0185,-18.6582 9.3989,-7.3999 26.2089,-23.6798 37.3555,-36.1776 14.1757,-15.894 27.1736,-26.3527 43.2492,-34.8002 12.6405,-6.6424 31.1967,-19.19934 41.2361,-27.90434 38.1313,-33.06314 78.1429,-73.84949 82.4113,-84.007 2.441,-5.80877 11.2499,-17.67055 19.5753,-26.35943 l 15.1371,-15.79802 18.1705,10.51156 c 22.5026,13.0177 30.0014,21.54872 30.0014,34.13111 0,6.09434 1.7705,9.76638 4.7088,9.76638 5.868,0 8.8123,-7.34654 8.8123,-21.98826 0,-13.73071 -14.4663,-29.65271 -32.2845,-35.53325 -6.6051,-2.17988 -11.5502,-5.09044 -10.9891,-6.4679 0.5611,-1.37746 12.4286,-12.1947 26.3722,-24.03826 13.9437,-11.8436 26.4577,-23.30414 27.809,-25.46789 1.3513,-2.16379 6.1128,-6.32958 10.5812,-9.25734 7.4592,-4.88745 9.8723,-4.79388 29.4809,1.14314 11.7463,3.5565 21.9632,5.85999 22.7042,5.11893 2.017,-2.01691 -25.2587,-15.34016 -31.4046,-15.34016 -7.6159,0 -2.698,-7.75615 20.3612,-32.11267 10.5607,-11.15493 22.5087,-24.08451 26.5509,-28.7324 16.3437,-18.7926 50.7029,-47.7577 70.2207,-59.19681 30.8915,-18.10499 97.2114,-72.73128 153.3685,-126.32633 16.7843,-16.01861 41.8829,-39.85348 55.7746,-52.96637 13.8917,-13.11293 36.3014,-36.14863 49.7993,-51.19045 20.5147,-22.86125 28.822,-29.38151 50.6272,-39.73676 14.347,-6.81337 26.8807,-13.56967 27.8527,-15.01396 3.2188,-4.7831 52.4073,-32.30691 55.8517,-31.25224 1.8592,0.56929 2.2671,-0.0782 0.9066,-1.43869 -1.3606,-1.36055 0.3157,-4.90985 3.725,-7.88732 13.4982,-11.78846 17.5488,-25.92025 16.8122,-58.65485 -1.7002,-75.56522 1.1848,-97.82628 18.2921,-141.12494 13.1581,-33.304039 23.6863,-48.501729 56.4551,-81.493549 37.7604,-38.01779 49.2987,-46.4817502 55.25,-40.52959 4.5739,4.57429 3.9097,54.63861 -1.2236,92.214959 -4.3298,31.69749 -32.5988,129.07183 -44.1989,152.247 -5.3243,10.63712 -9.6805,21.8427 -9.6805,24.90129 0,4.1833 -1.8841,5.001 -7.6056,3.3005 -24.7149,-7.34579 -57.1335,-4.11255 -61.0482,6.08856 -1.3745,3.58189 4.4521,4.57447 27.5398,4.69135 16.1057,0.0815 37.9734,1.20041 48.5949,2.48638 30.2296,3.65994 123.3083,-16.57192 208.3958,-45.29742 l 68.8343,-23.23847 -1.8612,11.46943 c -1.0238,6.30818 -0.4894,11.46942 1.1875,11.46942 4.1689,0 10.0472,-11.59584 10.0472,-19.81961 0,-5.22907 3.9844,-7.8952 17.7465,-11.87531 50.5596,-14.62214 97.0472,-18.71382 140.4517,-12.36205 48.2326,7.05829 49.6892,7.60641 49.6892,18.69695 0,7.87576 -2.8648,11.4458 -15.2113,18.95604 -17.7221,10.78011 -20.2817,11.42727 -20.2817,5.12774 0,-2.56109 -2.3202,-6.58201 -5.1556,-8.93538 -4.6208,-3.83488 -4.6208,-4.86997 0,-9.97584 5.2202,-5.76829 7.0952,-16.99564 2.8384,-16.99564 -1.2747,0 -5.6731,3.15251 -9.7747,7.00557 -6.5033,6.10984 -12.1673,7.08229 -44.2976,7.60563 l -36.8407,0.60007 1.365,-9.29578 c 2.1221,-14.45281 -6.4337,-11.36429 -17.9939,6.49555 -6.8373,10.56314 -17.0863,19.82031 -31.4613,28.41675 -21.0893,12.61168 -21.4557,12.69324 -33.8029,7.52315 -15.4269,-6.45978 -47.164,-4.37336 -77.3073,5.08227 -15.4601,4.84962 -21.882,5.56508 -24.7349,2.75572 -11.7708,-11.59215 -19.7324,45.01339 -8.5721,60.94707 4.8102,6.86737 4.4106,7.16962 -12.676,9.58535 -9.7035,1.37191 -26.7695,3.02424 -37.9244,3.67187 -19.1216,1.11015 -90.8948,10.97682 -134.8263,18.53459 -70.6756,12.15873 -163.0157,67.97043 -218.1176,131.83362 -16.8106,19.48343 -20.2535,25.72215 -22.2646,40.34498 -2.6784,19.47441 -8.0719,25.92595 -31.5529,37.7429 -8.6461,4.35117 -17.2534,9.57722 -19.1273,11.6134 -1.8739,2.03615 -12.5339,10.81045 -23.6888,19.49838 -11.1549,8.68793 -30.3447,24.51492 -42.6439,35.17108 -12.2992,10.65617 -34.3555,29.78759 -49.0141,42.51421 -14.6585,12.72663 -31.4484,25.6562 -37.3109,28.7324 -14.3736,7.54215 -42.4912,34.34308 -54.5818,52.02578 -5.4199,7.92679 -15.454,25.06022 -22.2979,38.0743 -11.2455,21.38394 -39.1562,52.39437 -47.1573,52.39437 -1.6776,0 -11.6065,3.91673 -22.0644,8.70385 -18.8114,8.611 -32.5793,23.09524 -64.0215,67.35249 -5.2833,7.43662 -23.1772,24.90314 -39.7641,38.81445 -16.587,13.91135 -40.8061,35.06244 -53.8202,47.00244 -13.0141,11.94 -34.3205,30.2274 -47.3477,40.6387 -13.0272,10.4112 -28.2385,23.5834 -33.8029,29.2716 -5.5643,5.6882 -20.7649,18.8448 -33.7789,29.237 -40.8202,32.5962 -95.0193,91.2642 -127.0154,137.4882 -67.6115,97.6767 -91.0128,149.3927 -91.0128,201.1346 0,44.4163 -9.515,66.2363 -47.4856,108.8954 -21.3571,23.9941 -85.7852,120.3029 -128.2891,191.7695 -4.6479,7.8151 -13.5101,21.0202 -19.6939,29.3449 -6.1838,8.3245 -16.6734,24.2624 -23.3102,35.4173 -6.6368,11.1549 -13.9506,21.8418 -16.2529,23.7486 -2.3022,1.9067 -5.0645,14.5257 -6.1382,28.0422 -1.8236,22.9552 -2.9391,25.7351 -16.9206,42.1669 -8.2325,9.6754 -23.7168,32.8029 -34.4095,51.3944 -10.6927,18.5916 -25.3243,42.4856 -32.5146,53.0979 -14.1996,20.9574 -20.1349,33.4853 -22.0874,46.6204 -0.6908,4.6479 -2.6847,12.2535 -4.4307,16.9014 -1.7461,4.6479 -5.3765,21.4536 -8.0677,37.346 -2.6912,15.8924 -8.1874,34.4788 -12.2139,41.3032 -4.0265,6.8243 -16.244,39.8826 -27.1501,73.4627 -10.9061,33.5801 -26.8619,75.7062 -35.4574,93.6135 -18.7244,39.0091 -38.9209,106.4882 -47.4276,158.4614 -0.891,5.4438 -3.0677,16.7428 -4.8371,25.109 -3.2055,15.1563 -7.4738,45.8674 -20.2015,145.3521 -3.6868,28.8169 -8.8932,67.6056 -11.5699,86.1972 -11.1859,77.6949 -16.2476,169.8651 -10.1946,185.639 3.7255,9.7085 22.5719,6.0278 55.7161,-10.8813 17.4953,-8.9255 38.5109,-21.1005 46.7015,-27.0556 8.1906,-5.9552 25.6835,-13.9936 38.8732,-17.8631 36.8926,-10.8234 62.1864,-25.2265 157.5025,-89.6875 15.8028,-10.6872 40.9677,-32.1152 55.922,-47.6177 20.2445,-20.9866 30.6058,-29.1237 40.5634,-31.8559 16.272,-4.4648 71.1269,-42.0751 84.6759,-58.0566 5.4035,-6.3737 14.0726,-17.1131 19.2645,-23.8655 7.6428,-9.9397 11.6709,-12.2769 21.1589,-12.2769 7.453,0 22.4742,-5.7192 41.2643,-15.711 24.3609,-12.9541 36.1964,-22.4446 67.4481,-54.0845 31.5693,-31.9615 39.5973,-38.3736 48.0439,-38.3736 5.5776,0 17.4228,-2.8701 26.3226,-6.3781 8.8998,-3.508 17.3064,-6.5918 18.6812,-6.853 13.7449,-2.6113 59.1309,-22.1259 70.6161,-30.3629 6.749,-4.8402 25.0025,-18.0196 40.5634,-29.2876 15.561,-11.268 41.6949,-28.6724 58.0754,-38.6764 26.3246,-16.0771 32.3744,-21.7444 52.1021,-48.8085 25.5044,-34.9889 32.447,-43.1673 81.6211,-96.15 19.647,-21.1686 40.3321,-44.1467 45.9671,-51.0625 24.106,-29.5855 86.7826,-101.6626 113.006,-129.955 15.6169,-16.8493 36.5132,-40.6668 46.4362,-52.9278 15.9751,-19.7394 78.3234,-77.4255 83.6829,-77.4255 1.1274,0 2.0497,3.9532 2.0497,8.7849 0,20.0571 15.0187,38.7728 35.1728,43.8312 4.8591,1.2195 9.5721,3.4104 10.4732,4.8685 0.9012,1.458 -9.885,10.4696 -23.9691,20.0256 -24.9277,16.9132 -31.4062,22.2641 -73.9543,61.0814 -46.1103,42.0671 -80.0937,76.1257 -139.9721,140.2817 -88.7863,95.129 -105.2153,113.6273 -105.2153,118.468 0,9.4428 18.0438,11.0188 50.8655,4.4428 34.5484,-6.922 78.4364,-14.7482 98.712,-17.6027 10.7692,-1.516 12.6761,-0.8326 12.6761,4.5435 0,19.1836 -18.2445,46.0663 -44.8238,66.0463 -11.0393,8.2984 -21.2397,15.088 -22.6676,15.088 -1.4279,0 -6.6765,-6.1659 -11.6636,-13.7019 -9.9254,-14.9982 -36.4339,-33.7091 -47.4223,-33.4727 -5.2622,0.1133 -3.9694,1.7211 5.338,6.6391 25.3066,13.3719 47.9841,48.0091 54.7565,83.6341 2.0268,10.6616 1.7469,10.9859 -9.4836,10.9859 -6.3646,0 -24.1998,-3.8971 -39.6338,-8.6602 -37.5421,-11.5858 -44.7041,-19.249 -46.0511,-49.2741 -0.6615,-14.7436 0.8018,-26.7699 4.2659,-35.0607 6.4999,-15.5564 6.682,-21.9346 0.6261,-21.9346 -7.7948,0 -19.9857,43.6156 -17.2639,61.7658 l 2.3035,15.3613 -18.0838,3.6117 c -9.9461,1.9865 -22.6472,4.3477 -28.2247,5.2473 -16.4824,2.6583 -82.6222,37.3128 -108.169,56.6761 -44.9701,34.0851 -137.3856,93.9575 -145.0273,93.9575 -7.0818,0 -60.4573,40.0178 -67.4309,50.5556 -5.9345,8.9677 -17.603,17.7499 -40.2596,30.3012 -17.5467,9.7206 -49.2437,31.2482 -70.4377,47.8392 -21.1941,16.591 -42.0935,32.9543 -46.4432,36.3629 -4.3496,3.4086 -21.406,13.5142 -37.9031,22.457 -31.7903,17.2329 -45.6338,30.7557 -69.2025,67.5996 -7.0579,11.0332 -17.5318,24.4058 -23.2754,29.7169 -17.4519,16.1376 -74.4197,46.5023 -119.366,63.6239 -37.8351,14.4127 -67.0871,30.5078 -76.9924,42.363 -8.3633,10.0096 -68.772,44.0289 -113.2394,63.771 -37.4271,16.6163 -46.5637,26.5631 -62.3631,67.8932 -7.0588,18.4651 -21.8036,55.1947 -32.7662,81.6214 -22.4384,54.0903 -45.3835,113.533 -68.8748,178.4303 -8.7486,24.169 -19.0278,50.0282 -22.8426,57.4648 -3.8148,7.4366 -13.353,31.0141 -21.196,52.3944 -7.8431,21.3803 -19.7701,52.0019 -26.5045,68.0484 -17.5018,41.7026 -26.1867,79.7895 -28.8036,126.3178 -2.1847,38.8414 -2.8137,41.4679 -14.8175,61.8713 -6.8948,11.7191 -12.536,22.0242 -12.536,22.8997 0,0.8755 -6.0659,11.1965 -13.4798,22.9356 -7.4139,11.739 -24.2377,44.0258 -37.3863,71.7481 -13.1486,27.7224 -43.431,89.9537 -67.2943,138.2917 -23.8632,48.3381 -46.2053,94.7324 -49.649,103.0986 -3.4437,8.3662 -17.108,36.5071 -30.365,62.5352 -13.2571,26.0282 -28.3057,57.2113 -33.4414,69.2958 -5.1357,12.0845 -18.1919,41.2094 -29.0138,64.7219 -34.362,74.6576 -100.9932,266.3209 -122.8432,353.3554 -10.8569,43.2463 -10.8734,42.6686 1.1468,40.0286 5.3827,-1.1821 17.8828,-2.212 27.7779,-2.2888 15.3684,-0.1183 19.1157,1.1683 25.7062,8.83 9.2809,10.7899 10.3553,31.8429 2.2559,44.2043 -4.2282,6.4529 -8.3761,8.3317 -18.3949,8.3317 -10.6919,0 -16.2816,2.928 -32.2266,16.8811 -39.8494,34.8714 -57.7832,59.2685 -85.7396,116.64 -22.3738,45.9154 -29.4482,65.062 -46.8357,126.7606 -45.3024,160.7527 -61.4378,235.966 -73.6044,343.0986 -7.1588,63.0358 -9.8967,169.6283 -5.253,204.507 2.4881,18.6876 2.7595,35.232 0.7765,47.324 -2.4264,14.7958 -1.5219,26.1826 4.4306,55.7746 l 7.4794,37.1831 -16.0401,19.3616 c -19.04885,22.9937 -33.58495,52.3504 -43.13635,87.1173 -22.7607,82.8493 -35.9965,131.9841 -46.439,172.3943 -6.4857,25.0986 -15.3311,57.8029 -19.6563,72.6761 -8.4927,29.2039 -19.6572,78.3387 -25.6206,112.7554 -2.0478,11.8184 -7.5835,34.6353 -12.3017,50.7042 -7.768,26.4564 -8.3752,32.7803 -6.4268,66.9387 l 2.1517,37.7222 -10.3437,16.3102 c -15.0257,23.6931 -17.633,37.6483 -16.6003,88.8528 1.5205,75.4016 0.6201,88.107 -6.2529,88.2351 -3.2535,0.061 -14.2816,3.0534 -24.507,6.6504 -22.4136,7.8845 -63.0777,8.5606 -82.7039,1.3754 z m 90.5213,-39.0473 c 9.4223,-2.3878 12.5787,-4.8064 11.7382,-8.9942 -0.8033,-4.0023 -4.1774,-5.5653 -11.1977,-5.1871 -62.201,3.3495 -63.2728,3.2153 -94.6891,-11.8594 -21.6109,-10.3697 -30.7224,-13.2426 -33.3858,-10.5275 -2.6443,2.6954 -1.3155,5.6515 4.7771,10.6276 11.7827,9.623 44.8885,25.9447 60.0243,29.593 13.6053,3.2792 41.8743,1.6334 62.733,-3.6524 z m 24.2953,-219.2295 c 0,-3.7231 -5.389,-5.5978 -20.2817,-7.0547 -21.7406,-2.1272 -40.8793,-10.4264 -67.1573,-29.1221 -17.2921,-12.3029 -26.4838,-11.5352 -19.4414,1.6239 4.2574,7.9551 33.6228,27.7487 52.7959,35.5869 17.4973,7.153 54.0845,6.4537 54.0845,-1.034 z m 9.5462,-28.7324 c -0.3273,-1.8592 -6.4116,-4.7246 -13.5212,-6.3674 -7.1095,-1.6432 -19.0109,-4.4069 -26.4476,-6.1417 -10.4939,-2.4483 -19.0169,-8.9222 -38.0682,-28.9166 -18.3341,-19.2412 -25.5197,-24.7893 -28.3898,-21.9191 -4.8041,4.8041 0,12.5578 24.1842,39.0172 12.9126,14.1283 21.7732,20.5555 33.313,24.164 17.2903,5.4068 49.8711,5.5156 48.9296,0.1622 z M 1019.1886,4921.0721 c 19.3007,-8.0644 36.3901,-34.559 26.3096,-40.7889 -1.6508,-1.0205 -8.6549,5.0441 -15.5648,13.4769 -7.8511,9.581 -16.2606,16.0712 -22.4209,17.3033 -10.76475,2.1529 -14.65425,5.9851 -11.40715,11.2391 2.856,4.6208 9.98875,4.2409 23.08325,-1.2304 z m 241.9998,-658.1794 c 12.6189,-7.0922 22.6668,-19.0374 19.0532,-22.6509 -1.0812,-1.0814 -6.8909,1.7202 -12.9103,6.2261 -9.0647,6.7849 -15.7338,8.4 -38.8316,9.4022 -15.3381,0.666 -27.8873,2.5001 -27.8873,4.076 0,11.5021 41.741,13.5323 60.576,2.9466 z m 9.3039,-65.5342 c 12.7993,-5.1925 20.7053,-13.7665 16.5371,-17.9348 -0.8963,-0.8961 -7.3968,0.6436 -14.4458,3.4215 -21.5905,8.5089 -41.7003,9.9685 -60.1674,4.367 -20.9263,-6.3475 -21.9447,-6.3566 -21.9447,-0.2028 0,2.7445 5.7042,8.0998 12.6761,11.901 15.1455,8.2577 44.8501,7.5725 67.3447,-1.5529 z m 3.6412,-20.8486 c 13.7838,-3.6939 7.9559,-7.2889 -15.6609,-9.6608 -21.3219,-2.1411 -28.7111,-5.0887 -48.4024,-19.3079 -7.1344,-5.1518 -10.7653,-2.0075 -7.9445,6.8803 5.3251,16.7777 45.6579,29.1498 72.0078,22.0884 z m 380.942,-725.475 c 20.8459,-18.3445 11.8608,-42.6524 -22.025,-59.5852 -24.9527,-12.4691 -36.9451,-13.701 -36.9451,-3.7951 0,4.1114 2.2536,6.7606 5.7512,6.7606 7.8964,0 39.4729,19.5231 44.4397,27.4763 5.9482,9.5246 -0.6056,19.8476 -12.6008,19.8476 -6.5664,0 -15.4545,-5.2141 -28.8101,-16.9014 -10.6228,-9.2958 -20.6571,-16.9014 -22.2983,-16.9014 -7.6983,0 -6.1484,7.9281 4.0405,20.6677 23.5569,29.4538 50.4517,38.2675 68.4479,22.4309 z M 704.05435,2980.0751 c 9.0204,-4.5846 30.0792,-26.576 30.0792,-31.4113 0,-7.4544 -5.6103,-5.9784 -17.2517,4.539 -7.0764,6.3931 -19.0193,14.7628 -26.5397,18.5995 -7.5203,3.8366 -13.6734,8.2123 -13.6734,9.7238 0,8.3107 9.1308,7.8269 27.3856,-1.451 z m -8.3481,-43.9288 c 10.0652,-10.6722 14.8881,-21.7311 9.4772,-21.7311 -3.1117,0 -35.2718,28.5077 -35.2736,31.2676 0,6.9461 15.7412,1.1252 25.7964,-9.5365 z M 1468.9515,1900.321 c 11.3405,-12.5526 15.8279,-23.6523 9.5621,-23.6523 -4.6826,0 -34.7778,32.4191 -32.3495,34.8474 4.8817,4.8817 10.9614,1.8948 22.7874,-11.1951 z m -116.2264,-109.0204 c 0,-2.3328 -8.2188,-12.0487 -18.264,-21.591 -21.1085,-20.0514 -30.5657,-33.222 -27.4617,-38.2443 1.1995,-1.9409 7.7954,-3.6843 14.6575,-3.8741 l 12.4767,-0.3451 -11.0582,-3.5448 c -13.4441,-4.3098 -27.8152,0.9919 -27.8152,10.2613 0,9.5798 17.6779,35.1618 33.8832,49.0328 14.988,12.8292 23.5817,15.8558 23.5817,8.3052 z m 1534.648,-974.46911 c 0,-0.99498 -2.5076,-5.63611 -5.5724,-10.31364 -9.8696,-15.06291 -38.3713,-24.88956 -38.3713,-13.22941 0,2.78873 1.9014,5.12096 4.2254,5.18272 2.3239,0.0619 10.3098,4.50047 17.7464,9.86383 12.6065,9.09187 21.9719,12.71344 21.9719,8.4965 z m 559.5573,-508.41816 c -2.7154,-4.39336 -30.285,-8.17778 -40.6408,-5.57864 -16.919,4.24643 -8.1269,8.76362 17.0576,8.76362 15.1291,0 24.7487,-1.29916 23.5832,-3.18498 z M 2977.4939,2455.4772 c 3.7891,-2.4109 2.5752,-15.0307 -3.6631,-38.0825 -2.0372,-7.5278 -0.5562,-9.5606 12.1809,-16.7193 7.9751,-4.4822 21.0294,-14.1679 29.0095,-21.5237 l 14.5092,-13.3742 12.5833,10.1288 c 6.9208,5.5708 17.4848,16.5138 23.4754,24.3178 10.6249,13.8409 20.7444,39.1743 17.1029,42.8158 -1.0013,1.0013 -16.6033,4.7943 -34.6712,8.4289 -31.8688,6.4109 -78.4651,9.0591 -70.5269,4.0084 z m 120.9195,-18.0494 c -8.2344,-13.3236 -6.8208,-21.1988 5.8619,-32.6569 17.1479,-15.4921 30.0162,-42.7727 32.358,-68.5988 l 1.8932,-20.8787 37.5219,1.8011 c 39.5421,1.8982 74.918,10.7329 80.1074,20.0059 3.8296,6.8431 -33.2242,41.3075 -63.9087,59.4426 -47.5058,28.0766 -90.2414,46.6972 -93.8337,40.8848 z m 94.6983,-56.8109 c 2.645,-4.2797 -13.796,-23.1342 -25.41,-29.14 -10.5398,-5.4504 -26.8075,-6.6512 -26.8075,-1.9788 0,1.6335 4.1831,4.7168 9.2958,6.8515 5.1126,2.1348 15.3803,9.1073 22.8169,15.4945 14.4928,12.4476 17.124,13.5957 20.1048,8.7728 z m -114.2972,13.317 c -9.4054,-14.2126 -33.5591,-33.8849 -41.604,-33.8849 -3.7101,0 -3.543,-1.676 0.8328,-8.3544 3.0108,-4.5949 7.3215,-15.6231 9.5794,-24.507 l 4.1053,-16.1527 18.3859,-1.0897 c 25.1574,-1.4911 52.9691,2.2938 54.959,7.4794 4.9495,12.8984 -22.3736,85.4396 -33.5171,88.9857 -2.0376,0.6484 -7.7711,-4.966 -12.7413,-12.4764 z m 144.8966,-412.7833 c -1.8592,-1.842 -5.8582,-5.1884 -8.8868,-7.4366 -4.9089,-3.644 -3.2583,-7.7581 15.2113,-37.9134 11.3948,-18.6042 21.8964,-34.119 23.3369,-34.4774 1.4405,-0.3583 12.1257,-5.3316 23.7449,-11.0517 11.6192,-5.7201 26.5462,-11.2798 33.1711,-12.3549 12.977,-2.1059 50.324,4.2955 50.324,8.6257 0,1.4485 -9.507,10.7983 -21.1267,20.7774 -11.6198,9.979 -27.9719,24.552 -36.3381,32.3843 -21.5031,20.1311 -29.7025,26.1021 -49.7468,36.2266 -18.8842,9.5386 -24.3594,10.5012 -29.6898,5.22 z m -31.8673,-22.1208 c -3.8533,-4.8986 -7.0059,-12.7648 -7.0059,-17.4804 0,-4.7155 -2.2099,-11.0156 -4.9108,-14.0001 -4.3705,-4.8293 -2.4953,-8.5781 17.0417,-34.069 12.0739,-15.7534 27.5764,-36.7884 34.4499,-46.7444 l 12.4972,-18.1019 2.4123,11.3413 c 4.8031,22.5821 -3.0407,53.0483 -22.7489,88.359 -10.1528,18.1907 -18.4597,34.5428 -18.4597,36.338 0,5.9929 -6.1943,3.3602 -13.2758,-5.6425 z m 64.6882,-83.4211 c 1.8004,-7.7832 2.582,-25.5532 1.7369,-39.489 -1.5058,-24.8333 -1.3047,-25.6204 10.101,-39.5396 6.4006,-7.8111 24.3768,-25.7676 39.947,-39.9033 l 28.3096,-25.7014 10.2456,5.2983 c 27.6504,14.2986 27.7362,67.0911 0.1785,110.0358 -9.7796,15.2401 -11.9976,16.8381 -23.3716,16.8381 -15.2996,0 -41.5783,8.5551 -58.152,18.9315 l -12.2685,7.6809 3.2734,-14.1513 z m 100.0025,-6.6981 -9.1485,-4.0729 13.2282,-19.5609 c 8.4876,-12.5509 14.6023,-26.5458 17.0627,-39.0513 3.5358,-17.9725 5.0607,-20.2661 19.5823,-29.4531 15.7335,-9.9538 35.0528,-12.8931 48.798,-7.424 5.5687,2.2156 5.3507,3.6942 -2.9766,20.2076 -11.0708,21.953 -23.9098,39.0504 -48.2813,64.2958 -19.6089,20.3119 -23.2483,21.7442 -38.2648,15.0588 z m 24.3597,-102.0472 c 0,-15.9551 -9.0876,-31.7736 -21.7123,-37.7939 l -11.9452,-5.6963 22.7442,-15.0694 c 12.5094,-8.2881 26.1668,-18.1745 30.3499,-21.9696 4.1831,-3.7952 7.6057,-5.114 7.6057,-2.9307 0,2.248 4.9037,3.9695 11.307,3.9695 12.2197,0 22.4958,8.398 22.4958,18.3845 0,8.8368 -20.735,46.2464 -26.8604,48.4606 -2.8888,1.0443 -11.7171,6.279 -19.6185,11.6328 l -14.3662,9.7342 z m 62.1664,-11.3847 -13.8899,-5.034 9.746,-13.8269 c 5.3605,-7.6047 10.6996,-19.704 11.8655,-26.8872 1.4954,-9.2159 6.385,-17.3261 16.6107,-27.5518 15.116,-15.1159 20.9114,-31.2253 16.9342,-47.0717 -1.727,-6.8807 -0.3211,-9.286 7.9109,-13.5433 13.2896,-6.8723 20.4872,-6.5387 20.4872,0.9497 0,13.363 -45.601,129.2789 -53.5322,136.0772 -1.2334,1.0571 -8.4929,-0.3433 -16.1324,-3.112 z M 1166.1668,1700.049 c -19.6937,-26.3663 -22.4408,-33.7894 -24.8888,-67.2527 -2.2228,-30.3849 -1.9279,-32.8495 4.3302,-36.1987 8.9447,-4.7871 25.9664,0.061 53.661,15.2839 11.8937,6.5376 21.6248,10.5285 21.6248,8.8686 0,-3.1709 -44.1517,-29.1068 -55.7746,-32.7634 -5.7692,-1.8151 -24.691,-35.825 -19.9316,-35.825 8.1939,0 68.6324,39.9923 93.2092,61.6769 8.4137,7.4235 8.626,8.2531 3.0101,11.7603 -7.4887,4.6768 -10.8597,25.0244 -7.2727,43.8974 l 2.7057,14.2361 -14.2417,-1.9521 c -18.8052,-2.5775 -37.1639,5.9259 -41.8566,19.3872 -1.8918,5.4271 -4.0989,9.8674 -4.9045,9.8674 -0.8056,0 -5.1573,-4.9436 -9.6705,-10.9859 z m 2277.8535,-17.4252 c -1.0797,-2.8138 -6.8201,-6.3745 -12.7562,-7.9127 l -10.7929,-2.7968 15.9975,-14.0815 c 8.7986,-7.7448 21.1893,-17.1448 27.5355,-20.889 l 11.5379,-6.8076 -0.074,7.4916 c -0.1859,18.6981 -26.881,56.8954 -31.4474,44.996 z M 1117.029,1622.3025 c -7.5918,-13.4788 -17.7696,-32.1126 -22.6176,-41.4084 l -8.8143,-16.9014 10.459,-1.0798 c 5.7524,-0.5939 15.1451,0.5538 20.8726,2.5505 5.7276,1.9966 11.08,2.964 11.8942,2.1497 7.098,-7.098 -26.4573,-17.9772 -38.5099,-12.4856 -7.1701,3.2669 -7.935,2.589 -10.1681,-9.0124 -2.5578,-13.2877 -2.5837,-24.1417 -0.064,-26.6618 0.8369,-0.8369 13.8481,4.676 28.9137,12.2508 18.3429,9.2227 27.4166,15.7142 27.4663,19.6502 0.041,3.2328 2.9778,12.2735 6.5265,20.0905 6.1262,13.4942 6.1498,14.3087 0.467,16.1123 -10.662,3.384 -15.0025,16.6697 -12.6862,38.8306 1.174,11.232 1.6685,20.4219 1.099,20.4219 -0.5695,0 -7.2469,-11.0282 -14.8386,-24.5071 z M 227.98565,1333.3508 c -15.0753,-34.3197 -21.5663,-54.7514 -29.8206,-93.8652 -4.7081,-22.3098 -10.8589,-49.4781 -13.6684,-60.3739 -2.8095,-10.8958 -4.126,-20.7831 -2.9256,-21.9718 6.0104,-5.9518 27.2583,33.7398 33.4567,62.4979 2.0195,9.3699 1.2961,10.8215 -6.3498,12.7405 -11.778,2.9561 -10.9066,8.7975 1.3124,8.7975 5.4678,0 10.8404,1.4547 11.9393,3.2326 1.0988,1.778 4.112,2.4214 6.6959,1.4299 2.5839,-0.9916 8.2394,0.034 12.5678,2.2759 7.5736,3.9252 7.536,3.7124 -0.9998,-5.6552 -5.4075,-5.9346 -9.5481,-15.1775 -10.6079,-23.6803 -2.5953,-20.8201 -18.8491,-54.1691 -32.0507,-65.7603 -13.1667,-11.5605 -13.1489,-17.6697 0.1082,-37.1138 6.8105,-9.989 9.7278,-11.5721 20.6735,-11.2185 16.3641,0.5286 38.3744,15.7735 48.2867,33.4446 4.1012,7.3114 9.1811,23.5163 11.2886,36.0109 2.1074,12.4946 5.8945,24.4294 8.4157,26.5218 3.7358,3.1004 2.6921,5.4948 -5.6403,12.9398 -6.722,6.006 -11.9555,15.4775 -15.2781,27.6497 -6.7683,24.7958 -9.5882,76.0992 -5.0777,92.3784 l 3.6072,13.0189 -12.1468,-2.2788 c -7.5257,-1.4118 -13.0141,-0.8755 -14.4265,1.4097 -1.2586,2.0365 -5.4505,-3.5303 -9.3598,-12.4303 z m 43.0493,-23.4474 c 0,-44.1453 5.4109,-73.3656 15.8923,-85.822 4.6039,-5.4713 10.5171,-9.9479 13.1406,-9.9479 2.6234,0 4.7699,-1.5211 4.7699,-3.3803 0,-1.8591 -1.5211,-3.3802 -3.3803,-3.3802 -1.8591,0 -3.3803,-3.9636 -3.3803,-8.8079 0,-4.8443 -2.3695,-17.9521 -5.2656,-29.1284 -5.9776,-23.0686 -3.3791,-42.7196 9.2466,-69.9252 l 7.202,-15.5188 2.5977,15.2112 c 4.2912,25.1268 9.7956,176.5569 6.8837,189.3754 -1.4881,6.5507 -4.4351,15.1419 -6.5488,19.0913 -4.3033,8.0409 -33.7467,34.9136 -38.2534,34.9136 -1.5974,0 -2.9044,-14.7064 -2.9044,-32.6808 z m -95.2943,-178.6283 c -0.7623,-6.5298 -0.3169,-21.3608 0.9899,-32.9577 1.3068,-11.5969 4.3217,-38.9158 6.6998,-60.7086 3.4271,-31.406 5.2175,-38.88175 8.633,-36.0471 2.3701,1.967 5.8099,2.6489 7.6441,1.5153 1.8341,-1.1335 6.5222,5.1447 10.418,13.9517 3.8958,8.807 9.2627,18.421 11.9265,21.3645 4.2306,4.6748 3.8253,7.8564 -3.2037,25.1508 -4.4258,10.8895 -7.2612,21.8466 -6.3009,24.3492 1.0959,2.8557 -0.7111,4.5502 -4.8522,4.5502 -3.6291,0 -9.2214,2.8984 -12.4273,6.4409 -6.6684,7.3685 -15.2536,33.7292 -13.0397,40.038 0.8156,2.3239 0,4.2253 -1.8093,4.2253 -1.8107,0 -3.9159,-5.3426 -4.6782,-11.8725 z m 95.8464,-12.1615 c -5.8965,-9.4419 -34.1226,-26.6702 -43.6952,-26.6702 -6.7324,0 -7.6532,-1.2185 -5.7478,-7.6056 7.9726,-26.7248 37.3932,-58.4302 63.4553,-68.3834 8.722,-3.3309 15.8581,-7.2809 15.8581,-8.7778 0,-12.409 -33.1832,-2.6791 -53.6645,15.7354 l -16.2572,14.6166 -9.1555,-22.2942 c -5.0355,-12.2618 -10.0245,-31.60006 -11.0866,-42.97393 -2.3752,-25.43543 5.72,-67.61297 17.7027,-92.23436 8.057,-16.555 36.4286,-51.74471 41.7191,-51.74471 3.1378,0 22.7087,81.91636 27.4582,114.92957 5.88,40.87133 13.2874,108.81683 13.3587,122.53523 0.047,9.1245 -1.3755,12.6761 -5.0789,12.6761 -5.9179,0 -25.2777,28.8319 -25.2777,37.6453 0,8.8295 -4.8589,10.1196 -9.5887,2.546 z m -77.6931,-131.36293 c -7.0962,-9.59818 -7.2163,-10.91338 -2.7003,-29.57747 l 4.7262,-19.53265 0.3744,18.61386 c 0.206,10.23762 1.7894,23.54748 3.5188,29.57746 1.7294,6.02999 2.776,10.96361 2.3258,10.96361 -0.4501,0 -4.1604,-4.52018 -8.2449,-10.04481 z m 49.783,-161.73062 c 3.6202,-7.0962 9.1396,-15.02471 12.2655,-17.61888 4.9292,-4.09088 6.2795,-3.90121 10.1774,1.42949 4.0112,5.48566 2.879,7.37905 -10.5359,17.61887 -8.2665,6.30998 -15.8084,11.47271 -16.7596,11.47271 -0.9513,0 1.2324,-5.80597 4.8526,-12.90219 z M 3677.3469,344.08684 c -7.0634,-2.19214 -11.9871,-4.84135 -10.9412,-5.88712 1.0455,-1.04579 -0.4006,-7.41006 -3.2137,-14.14285 -6.0574,-14.49777 -6.7386,-38.09825 -1.1983,-41.52238 7.774,-4.80454 45.5544,-11.26459 66.5588,-11.38082 24.7298,-0.13683 43.2743,7.11419 48.7108,19.04621 2.9149,6.39703 2.0793,11.25181 -4.2696,24.80701 -8.1962,17.49929 -7.4309,24.45369 1.8446,16.75592 9.5706,-7.94296 15.7406,-23.95805 14.449,-37.50387 -1.3531,-14.18567 0.1758,-15.08504 22.5928,-13.29115 11.9318,0.95482 40.5448,12.66747 45.4838,18.61869 4.3676,5.2628 -22.9413,17.81502 -78.5409,36.10006 -42.9526,14.12589 -74.5883,16.74473 -101.4761,8.4003 z m 185.2375,-58.01659 c -11.1746,-9.23802 -37.8656,-18.4156 -53.5582,-18.4156 -9.6622,0 -9.2738,-0.57547 9.4259,-13.96614 18.5537,-13.28603 20.9263,-14.03949 48.7193,-15.4724 25.7554,-1.32786 30.9975,-0.57449 44.258,6.3605 8.2736,4.32672 15.5571,9.56294 16.1862,11.63603 1.0583,3.48857 -46.9998,38.63514 -52.4559,38.3627 -1.3389,-0.0669 -6.9979,-3.89416 -12.5753,-8.50509 z"
       id="path932" />
  </g>
</svg>
